<svg width="342" height="365" viewBox="0 0 342 365" fill="none" xmlns="http://www.w3.org/2000/svg">
<path d="M208.668 76.9499L248.296 75.7674L249.572 77.0292L252.188 76.6989L252.459 74.4907L255.361 73.6892L255.975 70.9708L257.249 71.3903L258.852 69.7181L257.985 65.4365L259.371 65.4854L255.998 62.4827L246.746 47.2012L246.705 45.3464C244.515 43.9111 242.895 42.0956 241.918 39.8526L241.832 38.4284L240.436 37.4123L240.8 35.1521L244.948 40.6952C245.319 41.1228 244.902 41.4302 245.237 41.8942C246.321 43.3952 248.187 44.9092 249.287 45.7884C249.849 45.5995 250.508 45.7335 250.787 44.5999L251.869 37.4012L247.005 27.4921C243.721 29.7901 240.437 30.7087 237.153 27.288L233.14 27.5954C232.223 27.9897 231.246 28.5902 230.717 27.6276L224.242 31.4113L213.518 29.0223C211.907 28.6911 210.188 28.1455 208.858 28.378C207.493 29.2103 206.523 28.5671 205.553 27.9209C205.001 28.8797 204.419 29.8496 204.948 30.4156L205.382 34.3204C204.433 35.8503 203.557 37.4186 206.557 41.0219L208.668 76.9499V76.9499Z" fill="#012681"/>
<path d="M141.026 183.051L132.878 183.445L131.248 182.377L133.693 177.685L140.97 177.601L141.026 183.051V183.051Z" fill="#012681"/>
<path d="M118.537 187.327C118.538 187.815 118.143 188.21 117.655 188.21C117.167 188.21 116.771 187.815 116.771 187.327C116.771 186.839 117.167 186.443 117.655 186.443C118.143 186.443 118.538 186.839 118.537 187.327Z" fill="#012681"/>
<path d="M121.96 180.299C121.96 180.687 121.646 181.002 121.258 181.002C120.869 181.002 120.555 180.687 120.555 180.299C120.555 179.91 120.869 179.596 121.258 179.596C121.646 179.596 121.96 179.91 121.96 180.299Z" fill="#012681"/>
<path d="M326.831 145.855L312.357 162.372L306.701 162.271C306.003 162.464 303.386 164.075 301.882 165.398C300.65 166.483 298.75 167.116 296.806 168.001C295.653 168.008 294.253 168.426 293.446 167.856C291.553 166.022 289.387 166.92 287.245 167.588C286.537 168.892 285.57 169.937 283.96 170.339L276.224 169.136C274.473 167.65 272.543 166.271 270.148 165.171L265.849 164.873L265.852 161.38L262.471 160.142L260.027 154.561L256.519 151.755C257.173 150.708 255.456 149.843 254.583 148.913C253.396 149.181 252.209 148.938 251.021 148.3L252.066 147.044L252.002 145.428L255.084 145.484C255.757 145.062 256.501 144.9 256.994 143.816L256.906 134.76L258.372 132.454L259.914 132.51L260.617 128.646C262.473 126.364 263.129 123.577 266.19 121.802L266.993 115.103L269.444 115.032L269.784 114.235L270.974 114.256L271.993 115.95L273.462 112.056C274.431 112.68 275.699 112.704 276.266 114.076L278.74 113.592L279.158 112.8L279.602 112.705L280.199 113.757C280.984 113.291 281.958 112.794 283.217 113.608C283.581 113.764 284.005 113.845 284.943 113.3C285.935 113.835 286.536 114.928 287.94 114.874C291.108 117.641 294.178 120.518 296.897 123.799C296.652 124.03 296.541 124.906 296.36 126.884L295.187 128.989C294.242 130.541 295.386 131.91 297.186 131.265L298.766 130.657L300.353 131.307C298.438 133.515 302.998 137.36 307.108 141.2L321.945 145.941L326.832 145.855H326.831Z" fill="#012681"/>
<path d="M50.8711 38.7995L55.6842 36.4015L56.6781 36.7568L58.3266 35.3245L61.0945 35.5782L61.2444 34.2987C66.9733 34.5789 68.1627 33.0466 69.1743 31.5107L73.9709 29.5343L75.7419 29.5898L74.8146 28.3629L75.0588 27.393L75.02 25.7872C76.8958 25.5416 79.2091 25.8427 79.2233 23.8804L86.9835 23.9882L88.0606 21.7566C86.573 21.2107 86.307 19.0599 86.5061 16.7742C86.6541 15.0773 86.5199 11.2164 86.5199 11.2164C86.0064 10.5969 85.3668 10.0135 85.2188 9.1235C85.6338 8.93914 87.5814 9.25833 88.7638 7.67469C89.3731 6.85824 90.1517 5.21094 91.1681 5.53253C92.3545 5.90848 94.6276 6.14569 94.7666 5.39261C94.9152 4.58697 97.1177 2.81416 100.298 2.82467C106.124 2.84359 113.651 0.627268 116.11 1.34762C118.569 2.06798 121.773 0.390352 123.195 0.481635C124.627 0.573519 125.058 2.13554 127.012 0.806531C127.742 0.309879 130.379 2.37576 132.892 1.64399C132.892 1.64399 131.392 2.3103 131.307 3.8507C131.177 6.22316 130.957 13.6078 130.957 13.6078C130.707 13.2087 128.921 13.5081 128.64 14.7134C128.259 16.3511 126.415 15.9274 126.269 16.755C125.975 18.4203 127.428 19.9499 129.14 21.4437C129.579 21.8266 128.978 23.9477 129.413 24.3357C130.738 25.5184 133.088 26.3238 133.088 26.3238C133.634 31.7506 134.6 35.4983 134.6 35.4983C132.113 35.6647 133.442 37.9729 135.117 40.4369L135.222 54.5528C135.222 54.5528 132.975 55.0083 133.13 55.5872C133.478 56.8871 133.56 57.848 135.201 59.3094C136.255 60.2472 136.275 61.8296 136.184 62.8688C136.079 64.0681 137.289 64.6116 137.605 64.6038C140.07 64.5444 142.153 63.3448 144.488 69.782L114.963 89.1851C110.581 91.0723 103.364 92.2014 103.115 92.0921C101.469 91.3681 103.377 89.5557 102.825 88.3434C102.272 87.1294 101.606 86.2166 99.7295 86.4199C98.7314 86.528 98.2077 85.2443 97.8126 85.3098C96.2151 85.5743 95.8082 83.7592 95.4551 83.4364C94.0541 82.1545 92.6629 81.7819 92.9815 80.6168L49.834 47.7258L50.8711 38.7995V38.7995Z" fill="#012681"/>
<path d="M143.4 275.984C144.478 275.698 145.644 274.268 146.611 275.417C147.572 274.229 150.239 271.878 154.55 276.279L176.215 275.983L178.536 278.006L192.191 279.773L200.829 277.828L194.991 272.617L195.437 254.163L205.855 254.473L204.723 253.265L205.95 243.506C205.81 243.542 205.649 243.47 205.512 243.52C203.001 244.435 200.332 244.223 197.638 244.277L196.702 246.113L194.994 244.674L196.898 242.137L194.327 236.928L193.934 225.239L189.484 225.555L189.485 223.444L187.508 223.155L186.989 224.094L183.354 223.907L181.973 229.198C180.169 228.873 178.503 228.429 175.8 229.795C173.412 229.027 171.251 230.817 167.871 218.826L166.592 218.062L152.905 217.842L146.678 219.979C148.237 224.465 151.531 227.013 151.42 233.648L150.349 234.675C151.233 237.671 152.022 240.805 153.99 242.235C154.184 243.074 153.759 243.684 153.704 244.314C153.502 246.62 152.29 253.155 151.758 251.99C151.758 251.99 149.563 252.469 149.367 254.236C149.271 255.097 148.209 255.219 147.814 256.28C146.71 259.246 145.547 263.952 144.708 268.229C144.611 268.725 143.965 268.507 143.885 268.98C143.655 270.342 143.911 271.31 143.825 272.755C143.799 273.187 143.25 272.463 143.144 272.998C143.013 273.658 143.545 275.531 143.4 275.984V275.984Z" fill="#012681"/>
<path d="M144.959 214.184L147.375 212.723C148.387 210.346 149.214 211.035 150.016 212.104C148.989 213.032 147.923 213.928 147.822 215.576C148.065 217.86 147.005 217.669 146.252 218.061C145.917 217.441 145.442 216.849 145.607 216.129C145.587 215.448 145.597 214.762 144.959 214.184V214.184Z" fill="#012681"/>
<path d="M98.4287 156.354L93.8312 156.97L91.4566 138.355C91.153 136.935 89.7438 136.306 88.668 135.439L89.2382 132.397L92.2172 130.051L95.3229 130.178L97.6047 126.502L102.738 127.326L102.77 131.397C104.227 132.961 103.962 135.061 102.864 135.72C102.964 137.68 102.607 139.305 101.304 139.261C100.516 141.381 99.8426 143.926 98.7187 144.816L98.4287 156.354Z" fill="#012681"/>
<path d="M209.716 278.257L206.524 280.05C203.374 280.068 203.179 281.922 202 282.919L201.112 280.423L189.182 281.468L188.502 299.947L183.616 299.832L183.287 313.169C184.622 314.807 186.425 316.591 187.328 317.785C188.208 318.947 187.646 321.216 186.791 323.336C189.154 324.336 191.448 324.385 193.723 323.793C194.062 322.896 194.525 322.248 195.139 321.9C196.125 321.334 196.938 320.611 197.241 319.429L200.214 316.95C202.046 317.11 203.455 317.837 204.885 318.885C207.915 318.927 209.717 318.376 210.974 317.736L211.562 314.944L229.006 301.004C226.81 299.407 225.714 299.771 224.46 299.478C223.197 299.182 221.639 296.937 222.058 293.078C220.848 292.84 220.074 292.166 219.409 291.382C218.65 290.11 217.659 290.233 216.776 289.697C215.409 287.796 212.895 285.355 212.701 283.887C212.608 283.175 212.233 283.213 211.7 282.42C211.084 281.506 210.273 279.38 209.716 278.257V278.257Z" fill="#012681"/>
<path d="M231.838 202.101L232.568 201.415L233.452 201.459L233.895 202.698L236.372 202.211L236.504 200.663L239.601 200.486C238.578 202.265 240.102 203.236 240.751 204.135C238.677 208.981 236.911 210.683 235.308 210.762C233.183 210.772 233.461 211.55 233.231 212.229C233.077 210.075 233.189 208.066 233.325 206.302C233.49 204.145 232.772 202.556 231.838 202.101V202.101Z" fill="#012681"/>
<path d="M71.5093 139.954C70.5536 139.824 70.2167 138.54 69.4347 137.799C67.8934 136.339 64.9823 137.424 62.6609 138.856C59.8338 137.443 59.4507 136.171 58.9297 134.998C59.4954 133.472 59.1102 131.467 59.8774 129.846C60.5623 128.398 61.7541 127.057 63.8443 125.908L66.3969 120.556C68.5877 119.832 70.5773 119.556 72.2922 118.952C73.9419 118.371 75.4273 117.42 76.3314 116.206C79.5996 114.187 83.6566 111.599 86.1627 112.24C86.1279 113.062 86.1243 113.878 86.6314 114.592C87.4812 115.169 87.3004 116.126 87.1269 117.08L92.1775 123.87L94.101 124.51C94.3821 124.189 95.7549 122.494 96.4323 126.231L97.5776 126.476L95.3679 130.203L92.2372 130.037L89.224 132.39L84.6874 131.851C82.0796 131.806 81.8408 132.313 80.7301 132.618L70.662 132.33L71.5093 139.954V139.954Z" fill="#012681"/>
<path d="M179.095 170.407C178.217 173.025 177.17 174.883 176.077 177.731C174.642 181.466 174.961 187.224 174.229 192.318C170.435 194.038 169.234 196.795 167.292 199.256L165.778 206.501C163.039 209.181 160.491 212.625 157.191 213.063C156.99 209.022 153.489 210.964 153.104 212.555C151.437 213.656 150.893 212.512 149.951 212.163C148.747 213.03 147.874 214.063 147.862 215.526C148.031 217.863 146.969 217.737 146.201 218.198L146.65 219.98L152.909 217.839L166.595 218.084L167.866 218.827C170.977 230.362 173.501 229.225 175.732 229.788C179.209 228.332 180.139 229.142 181.988 229.134L183.332 223.887L186.986 224.093L187.453 223.136L189.482 223.452L189.513 225.573L193.918 225.25L194.376 236.866L196.888 242.093L194.971 244.69L196.717 246.166L197.651 244.298L203.427 244.196L205.522 243.494L207.334 243.461L207.991 246.043L211.358 244.93C211.539 245.706 211.873 246.273 212.317 246.689C213.41 247.71 215.454 249.117 217.275 249.145C218.559 249.164 219.593 247.845 220.718 248.082C222.251 250.209 224.069 250.825 225.972 250.983C227.386 253.177 228.337 255.835 232.359 255.422L233.934 256.516L233.822 250.902C231.029 251.8 229.334 250.5 227.891 248.698C228.176 246.482 229.072 244.47 230.092 242.499C230.181 240.22 229.874 238.121 229.315 235.839C229.192 235.34 229.844 233.478 230.676 232.387L239.734 230.169C238.796 225.093 235.498 224.062 234.551 220.468C233.393 216.07 232.827 210.796 233.444 205.651C233.272 203.242 232.169 201.967 230.577 201.289L233.279 197.416L235.469 195.013L235.808 186.597L238.879 181.935L243.82 177.488L240.84 175.55L240.855 170.242L234.683 165.007C234.132 165.059 233.877 165.604 233.491 165.93C232.248 166.317 231.103 165.719 229.914 165.557C229.275 166.988 226.639 166.237 226.328 165.42C226.237 165.182 226.444 164.702 226.084 164.568C225.306 163.518 224.505 162.808 223.727 162.146L221.157 162.271L220.32 163.234L219.374 162.45L218.785 163.37L217.556 161.763L212.007 162.244L212.009 163.139L209.539 163.593L209.149 162.644L202.854 164.874C201.092 163.596 200.445 164.29 199.412 164.247L198.304 166.659C193.076 166.461 190.892 166.459 190.031 165.294C188.375 167.117 187.973 164.87 186.959 164.61C186.386 161.945 184.871 162.736 183.817 161.837C181.865 163.146 180.8 164.456 179.887 165.766C179.899 167.589 179.609 169.11 179.095 170.407V170.407Z" fill="#012681"/>
<path d="M299.762 121.637L296.806 123.842C296.294 125.331 296.576 126.529 296.157 127.237C294.461 130.105 294.676 130.327 295.202 130.963C295.912 131.819 297.78 131.209 298.748 130.636L300.292 131.298L302.012 128.695C300.953 127.796 299.894 128.261 298.836 128.21C299.125 126.913 300.58 126.617 301.615 125.96C302.378 123.598 300.756 122.092 299.762 121.637V121.637Z" fill="#012681"/>
<path d="M46.0085 165.981L47.9293 166.163L63.1967 161.841L68.6749 162.455L69.4683 159.21C69.3028 156.614 67.0988 153.958 70.0799 151.454C70.3571 149.561 70.2036 147.5 72.2431 146.292L71.5461 139.908C70.7069 139.926 70.3565 139.055 69.9166 138.299C68.9389 136.618 65.6602 136.816 62.6307 138.884C61.1882 137.864 59.5076 137.161 58.9431 134.971C56.9189 134.224 55.3428 134.63 54.0399 135.739L54.2756 133.555C53.9582 132.725 52.8187 132.964 51.4783 133.463C51.1405 133.502 51.3771 134.032 51.756 134.684C51.2648 134.87 50.7735 134.897 50.2823 134.99C49.9403 135.411 49.4472 135.857 48.9007 135.971C47.5279 133.566 46.7319 134.018 45.1005 135.341C44.5417 135.794 44.1759 136.89 43.9474 137.847C43.6904 138.925 44.1516 139.965 45.3278 139.814L45.2185 141.266C46.0574 141.642 45.8767 141.791 45.0957 142.613C44.7428 142.984 46.0851 144.684 45.9256 145.086L43.3481 144.573C43.2793 144.98 43.1886 145.564 43.1514 146.013L44.3642 146.532L43.4168 149.054C43.5406 149.252 42.2713 149.124 41.9596 149.167L41.9785 150.746C43.2955 151.101 42.5761 154.186 41.3398 154.688L43.1526 155.826C43.5517 155.514 44.6714 155.787 45.3983 157.771C45.3983 157.771 47.206 158.907 47.1666 160.337C47.1354 161.472 46.3688 161.653 46.1613 162.532L46.0085 165.981V165.981Z" fill="#012681"/>
<path d="M273.514 112.064C274.437 112.695 275.359 112.615 276.281 114.06L278.731 113.569L279.209 112.801L279.613 112.693L280.155 113.704C281.393 113.048 282.509 113.021 283.294 113.641C283.773 114.019 284.478 113.494 284.992 113.303C285.947 114.077 286.895 114.926 287.931 114.896C291.294 117.675 294.194 120.687 296.895 123.798L299.806 121.768C299.387 120.657 298.831 119.639 296.857 119.591C296.759 118.696 296.381 117.902 295.125 117.421C294.859 116.346 293.935 116.367 293.207 116.061C292.593 114.353 291.097 113.418 289.869 112.247C288.485 112.572 287.846 111.655 287.191 110.765L286.139 110.56L285.385 111.023C284.598 110.375 284.383 109.482 284.164 108.591L283.036 108.29L283.322 109.854C282.64 110.271 282.266 109.144 281.91 107.93L279.614 104.595C278.116 97.6148 276.809 96.7593 275.47 94.8531C275.101 95.7215 275.037 96.777 274.43 97.2505L271.05 99.0095C270.505 99.9578 269.659 100.238 268.761 100.229C267.495 106.27 266.826 110.169 266.887 115.073L269.492 115.07L269.744 114.227L270.947 114.294L271.939 115.864L273.514 112.064V112.064Z" fill="#012681"/>
<path d="M139.962 207.663L130.921 198.309L128.766 192.802L130.753 190.895L131.309 187.795L133.852 188.352C133.998 188.2 134.227 188.089 134.09 187.795L131.884 186.664L132.58 183.504L141.046 183.07L141.084 177.623H151.574L150.761 178.768L150.667 182.321C151.614 182.683 152.246 181.901 152.859 180.778C154.472 180.527 157.432 181.984 156.627 184.765C155.284 186.276 154.673 187.683 155.152 188.968C155.505 189.914 155.93 190.833 156.202 192.236L155.389 199.636L153.702 200.856C152.943 199.604 151.544 199.152 149.587 199.398C148.986 198.644 148.395 197.682 147.254 199.202L142.879 201.894L143.258 205.512L139.962 207.663V207.663Z" fill="#012681"/>
<path d="M2.9846 116.389H8.49492C9.6834 114.802 11.434 115.322 13.4284 116.755L16.6098 116.99L17.3112 117.892L15.0069 118.694C13.4299 118.357 12.0069 117.75 10.6989 116.942C9.77558 117.489 8.71952 117.816 7.39291 117.692L6.79177 118.694L2.00391 118.894L2.9846 116.389V116.389Z" fill="#012681"/>
<path d="M90.187 157.964C89.706 158.605 89.6462 159.947 88.3157 159.171C81.7085 159.973 79.1012 162.776 74.4941 164.578L68.6673 162.446L69.4607 159.2C69.2952 156.604 67.0912 153.948 70.0723 151.444C70.3495 149.551 70.196 147.49 72.2355 146.282L70.6867 132.31L80.7485 132.621C82.0875 131.912 83.5126 131.807 84.9536 131.812C84.1636 133.391 84.5845 134.893 86.4988 136.303C88.0452 142.609 87.853 148.667 88.3377 154.822L90.187 157.964V157.964Z" fill="#012681"/>
<path d="M9.6342 130.911C9.46094 131.451 9.50508 131.719 10.2068 131.72C10.4903 132.06 11.4896 129.66 11.3358 132.082L12.2289 132.177C11.9262 133.522 12.8423 135.174 13.7161 135.472C14.8409 135.856 15.4628 137.158 16.0811 137.732L17.6074 140.541C18.6583 141.257 20.1065 140.737 22.3679 137.687C22.1217 136.671 23.5257 136.129 27.7236 136.392C31.162 138.87 32.1928 141.76 30.9107 145.047C32.4487 144.676 33.309 143.627 35.873 144.282C37.1513 145.893 37.9425 147.67 36.8795 150.084C38.2953 150.612 38.8061 152.167 40.7828 149.549C40.6479 148.948 41.1362 148.732 41.7578 149.193C42.134 149.472 42.7628 149.048 43.3561 149.195L44.4005 146.505L43.1204 145.988L43.3645 144.575L45.9811 145.107C45.7808 144.142 44.477 142.887 45.443 142.23C45.8757 141.784 45.6757 141.436 45.2364 141.124L45.2908 139.891C42.7535 139.588 44.2017 136.781 45.0773 135.358L43.5222 133.944L43.3435 130.834L42.0613 131.779L41.5815 131.063L43.2939 129.496L40.9818 127.739C41.3638 126.509 40.8485 125.034 40.4293 123.499L38.8013 123.145C38.8265 123.846 38.5836 124.377 37.8686 124.606C37.2582 124.423 36.884 124.813 36.7456 125.776L33.8603 124.582L31.5695 126.243C31.8598 125.498 31.1161 125.057 30.6482 124.502L29.385 125.35C28.398 125.683 28.2743 125.152 28.286 124.485C28.489 124.269 28.7427 124.103 28.8202 123.761C25.2568 123.208 21.5244 123.43 18.2668 121.469L17.2452 121.463L16.8014 126.991L14.0197 127.065C11.3013 128.054 9.963 130.586 9.6342 130.911V130.911Z" fill="#012681"/>
<path d="M1.75781 122.847L2.09532 123.774C2.79376 124.252 4.10865 123.307 4.02968 125.579C4.66506 125.91 5.45088 125.24 5.90669 126.768C6.6862 127.162 8.6605 123.494 7.94555 128.968L9.69824 130.889C10.7375 129.268 12.2998 127.644 13.9171 127.064L16.7787 126.995L17.2594 121.482L9.8751 121.457C8.37434 122.186 6.83213 122.586 5.19714 122.241C4.1552 122.613 3.06941 122.811 1.75781 122.847V122.847Z" fill="#012681"/>
<path d="M165.567 180.297C164.223 179.706 162.615 178.366 161.666 178.895L158.277 177.685L151.494 177.623H140.844L133.592 177.703L134.328 172.14L132.42 169.676L133.136 168.802L132.659 168.087L131.387 168.484C129.817 168.289 129.254 167.177 128.886 165.889C128.038 165.57 126.851 165.685 126.857 164.272C128.641 161.184 129.029 156.968 132.511 155.251L132.633 153.89L137.605 153.654C139.461 154.847 138.868 156.217 142.022 155.817C144.205 151.876 145.789 144.635 148.633 144.325C150.355 140.086 150.866 134.072 153.799 131.609C155.244 131.093 156.477 130.479 157.012 129.549C157.323 129.006 157.398 127.25 157.138 126.447C156.951 125.87 156.592 126.32 156.024 125.569L155.17 122.314L155.861 121.755L158.487 123.98C158.86 125.801 159.768 127.489 159.592 129.447C159.401 132.296 158.226 132.704 161.066 135.954C161.55 136.76 161.66 137.612 161.556 138.492L156.262 137.967C155.672 139.412 154.363 142.693 159.579 143.851L162.039 151.242L157.454 158.868L158.093 164.434C160.028 168.002 162.27 171.717 165.401 174.603L165.567 180.297V180.297Z" fill="#012681"/>
<path d="M295.473 196.909C294.814 197.94 294.091 198.892 292.64 198.934C292.1 200.365 291.403 201.671 289.607 202.11C287.629 205.683 286.125 209.788 283.654 212.807L276.744 208.176L275.659 204.15L254.607 190.931L261.536 180.338L261.684 174.403L259.304 172.441C259.008 170.15 258.472 168.08 256.588 167.246L259.038 165.104L265.888 164.795L270.149 165.16C271.61 165.914 272.385 165.941 276.251 169.163L284.01 170.329C285.249 169.903 286.399 169.27 287.261 167.545C289.134 167.275 291.122 165.654 293.553 167.966C294.349 168.248 295.624 168.129 296.886 167.945C295.439 170.259 293.917 172.124 292.406 174.052L292.534 193.304L295.473 196.909V196.909Z" fill="#012681"/>
<path d="M143.789 21.0862C143.789 21.0862 144.54 23.991 142.296 25.584C141.168 26.3854 137.479 29.0909 137.479 29.0909C137.792 30.7421 138.178 34.8723 134.595 35.435C132.133 35.8215 133.423 37.8123 135.07 40.5124L135.175 54.5724C135.175 54.5724 132.983 55.0003 133.139 55.5795C133.487 56.8794 133.513 57.8126 135.154 59.2738C136.208 60.2115 136.228 61.9051 136.137 62.9443C136.032 64.1436 137.381 64.6595 137.697 64.652C140.162 64.5922 142.107 63.4202 144.442 69.8578L156.022 70.2145C157.371 70.5001 158.8 72.5672 158.8 72.5672L165.433 70.6829L204.482 89.9905L204.411 86.8545C208.728 87.2061 209.224 86.7091 209.224 86.7091L206.556 41.0895C204.987 38.9374 203.441 36.8277 205.327 34.4408C205.327 34.4408 205.339 31.9092 204.867 30.4733C204.376 28.9786 205.724 27.9624 205.724 27.9624C205.703 26.0284 201.99 26.1752 200.037 26.0749C197.473 25.9434 195.751 25.5921 196.197 23.6718C196.197 23.6718 189.496 21.2657 186.903 22.8521C185.525 23.695 182.619 25.0414 182.091 26.768C181.735 27.9285 182.053 28.7155 182.745 29.8944C183.956 31.9582 179.866 39.044 175.191 33.3734C175.191 33.3734 169.05 31.6828 165.581 30.9246C162.186 30.1827 159.844 27.2058 161.253 25.4038C161.391 25.2279 152.039 22.5224 152.039 22.5224C147.72 23.1902 144.558 21.9272 143.789 21.0862V21.0862Z" fill="#012681"/>
<path d="M45.9824 165.967L41.6809 164.454L26.5273 152.04L31.3239 148.026L31.2398 146.591L33.5904 144.32C34.2897 143.848 35.1398 144.177 35.9445 144.265C37.9633 147.206 37.4222 148.589 36.8712 150.081C38.0164 150.372 38.8815 152.278 40.7768 149.556C40.724 148.799 41.1864 148.792 41.9671 149.248V150.692C42.5842 150.951 43.0358 152.179 42.4373 153.301C42.1196 153.896 41.9019 154.507 41.2203 154.629L43.2 155.842C43.7621 155.747 44.2474 155.329 45.4308 157.827C45.6851 158.177 48.6425 159.418 46.1883 162.362L45.9824 165.967Z" fill="#012681"/>
<path d="M311.814 321.333L326.224 290.664C327.326 287.203 327.98 283.742 329.606 280.282C330.71 278.823 332.109 277.47 331.228 275.302L331.541 272.328C331.703 271.429 332.198 271.447 332.95 272.171L333.392 273.968C333.927 273.798 334.453 273.615 334.411 272.724L332.951 256.827L330.196 253.842L328.603 255.161L328.189 259.241L327.268 260.051C326.785 259.903 326.077 259.174 326.286 260.827L324.919 262.326C323.365 259.443 323.136 262.001 323.556 263.247C323.515 263.791 323.668 264.722 322.93 263.873L321.817 265.67L323.399 266.848H322.46L320.425 268.322L320.738 266.535L318.703 268.57L319.172 271.075L317.8 271.13L318.069 270.008C316.801 269.174 315.769 270.94 314.632 271.545L315.885 273.58L314.319 273.736L313.693 271.858L311.169 272.272C311.248 273.16 310.227 273.419 309.309 273.736L309.152 272.484L307.744 273.893L305.284 274.013L304.805 276.131L301.481 280.939C304.02 283.171 302.991 288.206 303.673 291.899C302.738 294.877 300.923 297.151 299.289 299.571C297.389 300.825 296.532 302.079 296.243 303.333C295.966 304.537 295.382 306.903 295.735 308.106C296.146 309.51 296.923 309.033 296.958 310.437L297.42 312.741C295.096 321.687 300.879 321.553 302.125 323.737C302.691 323.48 303.411 323.918 303.965 323.619C305.194 322.956 306.765 321.319 308.407 321.863C309.781 322.318 310.811 321.797 311.814 321.333Z" fill="#012681"/>
<path d="M65.2512 59.402L57.5993 59.608L57.9609 103.763L59.979 104.476L58.5644 108.793L36.0127 107.517L33.4171 109.337L31.9989 108.813L31.0167 105.898L29.7274 105.553C27.1879 111.105 26.7982 110.459 25.855 111.409C26.0091 111.977 25.6388 112.519 25.8214 113.039C26.3928 114.666 26.7513 116.316 25.8911 117.02C27.0657 118.066 28.5815 118.899 29.0172 120.406C29.101 122.329 28.9962 123.812 28.4788 124.333C27.9662 124.846 28.5749 126.043 29.6406 125.147L30.6768 124.517C31.0173 125.059 31.7686 125.356 31.659 126.169L33.9426 124.608L36.7312 125.766C37.0144 125.339 36.6592 124.698 37.7438 124.538C38.3134 124.554 38.7139 124.147 38.8821 123.158L40.4129 123.53C40.8249 124.971 41.3269 126.426 41.0624 127.772L43.3213 129.477L41.596 131.057L42.0737 131.778L43.3321 130.939L43.5189 133.961L45.1086 135.421C45.7605 134.775 46.8009 133.959 47.5879 134.368C48.3302 134.753 48.6758 136.262 49.3757 135.791C50.1078 135.298 50.2453 134.837 51.3795 134.839C52.234 134.84 50.6471 133.363 51.711 133.394C52.2052 133.408 52.9775 132.826 53.8318 133.05C54.651 133.266 53.6324 136.316 54.2327 135.661C55.7208 134.038 58.686 134.666 58.9725 135.029C59.8027 132.057 58.1801 129.316 63.8754 125.884L66.3889 120.589C69.7397 119.183 73.3364 119.823 76.4172 116.167C80.2904 113.58 84.1612 111.634 86.2529 112.214L90.1631 112.218L92.3605 110.343L102.879 110.475C103.145 109.958 103.292 109.579 104.745 108.864C104.756 107.594 105.895 107.524 106.687 107.124L107.1 91.5372L103.151 92.1066C101.592 91.0928 102.903 90.7697 102.918 88.515C102.029 86.5131 100.898 86.2119 99.7878 86.4092C98.8125 86.5827 98.3735 85.1997 97.8618 85.3039C96.9805 85.4834 96.0154 84.6376 95.4308 83.3932C95.2323 82.9701 94.6864 82.7774 94.3174 82.5236C93.497 81.9603 92.7487 81.5273 92.961 80.6487C92.9622 80.649 74.1798 66.3032 65.2512 59.402V59.402Z" fill="#012681"/>
<path d="M255.593 238.23L258.584 248.088L257.701 256.84C259.476 258.439 261.242 259.736 263.732 263.892C264.045 264.413 264.372 265.717 264.262 266.762L263.178 271.389L260.471 272.568L260.681 276.616L259.243 276.638C259.984 274.737 259.275 275.092 258.956 274.977C256.993 273.737 256.258 271.913 255.896 270.277C257.502 267.806 257.407 265.82 257.224 263.909L254.567 263.418C252.516 263.919 252.117 263.167 251.92 262.483C250.807 259.876 250.295 260.88 249.887 260.704L248.303 258.524L251.081 253.372L253.249 253.129L251.774 251.207L253.066 244.507L254.296 243.6L250.743 236.58C251.776 237.486 252.918 237.794 255.593 238.23V238.23Z" fill="#012681"/>
<path d="M50.2566 44.7726L51.0301 38.844L55.6768 36.4457L56.726 36.7457L58.3748 35.3966L61.1148 35.5947L61.2646 34.2877C66.9935 34.5675 68.155 33.0355 69.1669 31.4993L73.9635 29.5508H75.7621L74.8628 28.3519L75.1625 27.2429L75.0126 25.8037C76.8884 25.5584 79.202 25.8593 79.2159 23.897L87.0041 24.0048L88.0532 21.6068C86.5657 21.0609 86.2996 18.9101 86.4987 16.6244C86.6467 14.9275 86.5125 11.0666 86.5125 11.0666C85.999 10.4471 85.3595 9.86371 85.2117 8.9737C83.9629 8.74339 82.4297 8.71577 81.9075 7.96659C80.0945 7.6552 78.2982 7.48975 76.6771 7.6528C73.7088 7.95127 72.4873 6.882 71.2655 4.06934C68.4069 3.88287 65.3763 10.0256 63.1713 13.0625C57.8394 14.5453 53.9809 16.949 51.3298 20.1075C51.6841 21.3915 51.0616 21.8861 49.7677 22.7337C48.9315 23.2817 45.9894 27.978 46.9833 30.5997C46.9956 32.6482 45.3991 36.0623 40.8106 38.3341C40.8106 38.3341 38.6711 40.3337 35.2874 41.4378C33.8599 41.9035 30.5502 42.2746 29.5488 43.198L50.2566 44.7726V44.7726Z" fill="#012681"/>
<path d="M25.5052 76.3583C26.1219 71.9452 23.3786 65.7431 31.9506 65.5662L33.7492 52.226L49.0379 53.5748L49.8655 47.5798L65.274 59.4118L57.599 59.5983L57.9882 103.786L59.9306 104.478L58.6214 108.77L36.0009 107.524L33.4225 109.348L32.0307 108.891L31.0473 105.895L29.6796 105.556C29.6796 105.556 27.1834 111.715 25.5944 111.092C25.5944 111.092 24.8875 110.325 24.0882 109.499C23.3837 108.771 22.6163 108.05 22.0719 107.023C21.3149 105.596 20.7909 103.303 19.748 103.467C17.5281 103.816 15.8367 100.872 15.8367 100.872C15.8367 100.872 13.2504 100.154 11.3965 100.669C9.00035 101.335 6.29369 100.644 5.81055 100.958L8.01005 94.8471L8.23435 87.7243L6.89483 85.5845C7.61099 84.3183 9.79908 83.1508 8.36888 79.3599C8.20523 78.9263 7.42632 79.1599 7.42632 79.1599L6.50268 76.3731L7.63771 75.235L25.5052 76.3583V76.3583Z" fill="#012681"/>
<path d="M234.725 265.64L235.785 268.414L235.704 269.801L239.376 270.077L247.98 273.425C248.861 278.234 248.296 282.254 246.899 285.82C246.862 286.518 246.629 287.185 246.713 287.825C246.872 289.024 247.463 290.677 246.792 292.053C245.064 295.596 243.45 299.143 243.033 299.374C241.607 300.163 239.833 302.472 239.784 304.322L240.643 325.563L243.896 325.773L244.762 322.765L243.456 323.255C243.656 322.065 243.381 320.875 244.632 319.685L255.07 315.559C256.363 314.61 257.165 313.172 258.064 311.83L256.845 311.408L259.007 303.251L257.896 302.874L256.998 296.008C254.041 294.194 255.752 291.376 256.945 290.717L263.255 285.355L263.775 286.424L266.115 283.838L265.599 283.041L267.121 282.763L267.572 281.454L275.304 277.649L277.235 277.669C278.699 276.56 279.875 275.368 282.01 274.451L281.873 273.305L284.449 271.312C285.068 270.677 285.598 269.738 286.407 269.771L286.52 268.493L286.03 267.95L287.44 265.837L287.796 264.426L287.572 263.504L286.708 262.191L287.007 257.022C286.349 256.382 286.712 255.947 287.064 255.51L286.894 249.803L288.967 246.312C289.02 245.355 289.098 244.399 288.748 243.442C285.568 245.335 280.246 248.629 277.557 246.939C276.379 247.083 275.056 247.081 273.916 248.563C272.948 248.473 272.074 248.289 270.916 248.388L267.109 249.078C266.418 248.252 265.724 247.433 264.122 248.328L258.569 248.147L257.701 256.828C260.44 259.033 262.852 261.868 264.056 264.774C264.789 266.543 263.461 269.093 263.205 271.352L260.45 272.544L260.593 276.412L259.236 276.617C259.567 275.81 259.932 274.985 258.747 274.884C257.248 273.613 256.1 272.181 255.941 270.291C257.089 268.423 257.551 266.312 257.247 263.926L254.576 263.436C253.536 263.688 252.33 263.667 252.058 262.839C251.337 260.637 250.638 260.521 249.821 260.743L234.725 265.64V265.64Z" fill="#012681"/>
<path d="M143.418 275.983C143.631 278.781 143.893 281.563 146.459 283.538L157.057 302.412L157.327 311.073L159.218 315.082C159.324 316.642 158.748 318.203 159.708 319.764L161.024 327.137L166.78 333.546C170.355 329.706 171.657 332.807 172.553 335.267C174.741 335.06 176.929 334.858 179.118 335.238C180.143 334.312 181.191 333.394 182.805 332.704L183.647 299.807L188.514 299.965L189.213 281.44L201.097 280.392L202.01 282.876C202.866 281.937 204.036 280.207 205.785 280.128C207.364 280.056 208.137 279.032 209.692 278.205L208.553 276.547L200.902 277.821L192.359 279.809L178.532 277.964L176.217 276.017L154.441 276.269C153.401 274.892 149.462 271.756 146.614 275.454C145.651 274.303 144.488 275.744 143.418 275.983V275.983Z" fill="#012681"/>
<path d="M107.092 91.5822L106.661 107.181C105.971 107.582 105.013 107.173 104.75 108.856C103.983 109.3 103.038 109.612 102.868 110.505L92.3264 110.403L90.1842 112.203L86.196 112.224C86.0807 113.083 86.1014 114.157 86.78 114.689C87.3824 115.16 87.2938 116.153 87.141 117.028L92.1846 123.757L94.0145 124.441C95.0288 123.551 95.9531 123.29 96.4128 126.281L102.659 127.168C103.095 126.169 102.99 124.784 104.122 124.283C105.821 123.322 105.544 121.642 106.15 120.284C107.537 119.622 106.65 118.682 113.981 118.75C115.876 119.942 117.706 120.341 119.702 122.737L121.172 122.797C121.214 122.294 122.697 121.261 123.604 121.089C124.586 120.555 126.332 121.484 128.659 123.528L132.805 123.899L136.786 121.044L143.747 120.865C144.796 121.275 145.574 122.214 147.123 121.826C148.236 120.573 150.365 119.377 152.81 118.346C152.43 117.238 152.003 116.156 152.357 114.734C152.954 114.232 153.687 114.153 153.759 112.288L162.168 102.956L163.728 88.0759L164.915 85.0837C162.511 84.0994 160.865 83.1665 160.337 79.8478C160.05 78.0402 160.46 75.7071 160.281 72.332L158.784 72.5887C157.962 71.6213 157.166 70.5844 156.115 70.2286L144.324 69.7992L114.452 89.4932L107.092 91.5822V91.5822Z" fill="#012681"/>
<path d="M126.849 164.328L125.839 164.281L125.507 166.049C123.776 166.091 122.044 165.908 120.313 165.276C116.177 167.85 112.9 167.429 111.21 161.487C109.925 158.17 107.845 157.093 105.642 156.362L98.4453 156.403L98.76 144.917C99.9019 143.463 100.613 141.435 101.254 139.314C103.179 138.84 102.768 137.148 102.856 135.717C104.779 134.443 103.518 132.444 102.726 131.104L102.851 127.368C103.014 126.309 102.773 125.162 104.293 124.189C104.885 123.462 105.476 123.817 106.068 120.26C107.122 119.45 108.236 118.652 113.915 118.833C115.901 119.871 118.428 120.713 119.806 122.852L121.084 122.791C121.909 122.21 122.164 121.185 123.663 121.129C124.519 121.111 124.569 120.289 128.627 123.473L132.857 123.868L136.786 121.037L143.828 120.899C144.856 121.327 145.698 122.266 147.029 121.857C148.789 120.104 150.925 119.198 152.933 118.352C153.735 119.639 154.852 120.896 155.853 121.698L155.185 122.232L156.031 125.639C156.425 125.936 157.141 126.041 157.159 126.564C157.915 129.905 156.043 130.939 153.827 131.677C151.007 133.872 150.298 139.894 148.677 144.264C145.526 145.195 144.477 151.022 142.067 155.814C139.743 156.267 139.155 155.136 137.696 153.562L132.631 153.89L132.499 155.244C129.264 156.933 128.52 160.763 126.849 164.328V164.328Z" fill="white"/>
<path d="M144.976 214.178L139.93 207.663L143.307 205.518L142.91 201.862L147.043 199.359C147.748 198.804 148.277 197.458 149.546 199.438C151.741 199.178 153.02 199.742 153.719 200.829L155.467 199.637L156.182 192.365C156.149 189.86 153.345 188.224 156.699 184.656C157.263 182.311 155.165 180.706 152.844 180.802C152.277 181.528 152.063 182.696 150.665 182.384L150.738 178.895L151.572 177.623L158.328 177.703L161.591 178.863C162.809 178.241 164.439 180.089 165.572 180.279L165.401 174.683C167.961 171.421 169.847 170.448 171.957 169.954L175.176 171.424L179.149 170.312C178.174 172.922 177.11 175.065 176.122 177.627C174.428 182.017 174.994 187.369 174.222 192.286C170.553 193.894 169.223 196.719 167.308 199.239L165.726 206.523C162.272 210.223 159.223 213.189 157.255 213.028C157.242 210.948 154.984 209.103 153.141 212.523C151.856 213.374 150.931 212.932 149.944 211.995C148.515 210.108 148.045 211.707 147.4 212.67L144.976 214.178V214.178Z" fill="#012681"/>
<path d="M238.914 193.829L236.702 195.599H235.95L235.508 194.979C233.547 196.937 232.081 199.141 230.576 201.327C231.119 201.456 231.552 201.721 231.859 202.145L232.589 201.459L233.429 201.526L233.849 202.654L236.392 202.145L236.503 200.619L239.666 200.442C240.13 199.808 240.542 199.174 241.236 198.54L238.914 193.829V193.829Z" fill="#012681"/>
<path d="M239.762 230.178L230.621 232.432C230.027 233.519 229.605 234.146 229.375 235.377C229.315 235.696 229.59 236.353 229.687 237.25C229.879 239.027 230.481 242.142 229.937 242.984C228.66 244.954 227.797 248.592 227.87 248.696C228.598 249.74 230.078 250.806 230.95 251.036C232.152 251.354 233.502 251.204 233.795 250.752L233.939 256.523C233.47 256.136 232.798 255.865 232.466 255.444C230.547 255.281 228.817 256.307 225.996 250.971C224.142 250.812 222.31 250.271 220.726 248.066C219.958 247.865 218.676 248.916 217.52 249.175C214.215 248.858 213.265 247.291 212.421 246.809C211.848 246.278 211.486 245.66 211.374 244.937L207.972 246.065L207.361 243.434L205.954 243.48L204.744 253.335L205.857 254.458L195.48 254.189L194.98 272.66L200.76 277.768L208.594 276.539L209.74 278.261L210.236 279.42L216.366 279.485L217.203 280.22L218.348 279.919C221.653 275.597 224.666 274.492 227.708 273.054L227.833 270.184C230.234 268.697 232.823 267.862 235.821 268.436L234.698 265.594L249.924 260.823L248.302 258.452L251.047 253.335L253.169 253.085L251.796 251.213L253.044 244.474L254.292 243.601L251.796 238.733L250.659 236.479L244.821 234.52C242.836 231.698 242.371 232.229 241.752 232.394L239.762 230.178V230.178Z" fill="#012681"/>
<path d="M5.88176 100.802C4.98394 102.345 4.37378 103.151 4.34796 104.404C4.2885 107.267 1.4302 108.18 0 110.262C1.33111 112.202 2.77993 114.108 3.00544 116.373H8.51575C9.70454 114.786 11.4551 115.305 13.4492 116.739L16.6309 116.974L17.3321 117.876L15.0278 118.677C13.4507 118.34 12.0278 117.734 10.7198 116.926C9.79642 117.473 8.74036 117.8 7.41375 117.676L6.8126 118.677L2.00372 118.878C1.72027 120.18 1.45873 121.483 1.70315 122.785C2.8604 122.678 3.98733 122.848 5.20644 122.187C6.84954 122.608 8.40946 122.24 9.91773 121.382L18.2281 121.482C21.3512 123.268 25.2467 123.452 28.853 123.687C29.0229 121.804 30.0748 119.933 25.9746 117.075C26.6039 116.264 26.3685 114.401 25.8178 113.054C25.5061 112.293 26.1037 112.053 25.8205 111.24C25.4311 111.023 24.9617 110.408 24.3053 109.788C23.5715 109.095 22.0815 107.105 22.0815 107.105C21.2095 104.489 20.0847 103.418 20.0847 103.418C17.4078 103.856 15.7544 100.843 15.7544 100.843C13.4694 100.226 12.2743 100.681 11.2798 100.733C8.68301 100.869 8.15453 101.189 5.88176 100.802V100.802Z" fill="#012681"/>
<path d="M26.5211 152.064L22.5791 150.062C22.1407 148.842 20.9255 148.177 19.6856 147.529C19.8024 145.805 18.659 145.413 17.8948 144.79L17.6348 140.675C19.3634 141.348 20.8936 139.604 22.3995 137.66C22.0245 136.145 25.4569 136.3 27.7486 136.344C30.0316 138.332 32.4217 140.238 30.9495 145.07C31.926 144.702 32.8475 144.279 33.9309 144.017L31.2125 146.561L31.3002 148.008L26.5211 152.064V152.064Z" fill="#012681"/>
<path d="M210.211 279.433L211.731 282.512C212.23 283.092 212.881 283.633 212.836 284.575C214.022 286.603 215.501 288.045 216.854 289.739C217.892 290.064 218.81 290.534 219.44 291.368C220.077 292.136 220.802 292.911 222.08 293.109C221.541 296.238 222.945 298.934 224.415 299.495C226.157 299.574 227.804 299.898 229.053 301.089C232.595 301.511 233.009 302.004 233.848 302.486C236.75 301.516 238.102 303.136 239.752 304.252C240.147 301.887 241.541 300.563 243.118 299.315C244.364 297.501 245.507 294.66 246.697 292.29C247.579 290.821 246.868 289.267 246.655 287.74L246.888 285.792C249.032 280.416 248.374 277.206 248.026 273.424L239.322 270.064L235.665 269.804L235.786 268.565C232.685 267.56 230.162 268.914 227.85 270.189L227.745 273.044C220.624 276.221 220.246 277.947 218.286 279.944L217.224 280.273L216.358 279.507L210.211 279.433V279.433Z" fill="#012681"/>
<path d="M302.038 128.59L300.274 131.339C298.56 133.811 303.261 137.589 307.127 141.198L322.067 145.991L326.884 145.79L312.373 162.393L306.51 162.276C304.645 163.323 302.823 164.395 301.487 165.759C299.961 166.709 298.255 167.298 296.634 168.056C295.628 170.252 293.953 172.047 292.443 173.941L292.49 193.208L295.428 196.904L302.189 189.333L313.519 178.639L314.822 178.483L319.57 173.991L319.764 173.093C322.37 171.113 325.614 167.792 326.423 166.151C327.855 163.251 329.701 160.792 331.759 158.438L336.22 145.555C337.088 144.718 337.738 143.592 338.284 142.325C338.509 140.974 339.318 140.496 339.938 139.738L340.446 133.286C341.891 133.489 341.195 130.631 341.276 128.885C340.718 128.387 340.096 127.566 341.263 126.907L341.252 125.299C340.203 125.387 339.146 124.188 338.115 124.997C336.823 126.212 335.101 127.082 333.136 127.244C330.952 127.425 329.171 128.688 328.255 128.378C326.775 129.606 324.889 130.023 322.441 129.314C320.807 130.768 319.735 132.657 314.488 131.322L311.143 133.714C305.981 135.113 304.636 130.935 302.038 128.59V128.59Z" fill="#012681"/>
<path d="M256.93 140.856H256.921L254.603 141.71V138.172L253.261 135.62L251.019 134.766L249.208 124.698L247.256 123.909V125.617H243.821L245.604 126.95L245.905 131.116L240.753 137.722L235.902 134.532L232.693 135.714V137.422L229.887 138.323L229.84 136.568L223.703 136.371V138.585H217.829L215.877 138.773L214.526 136.183H212.875H210.472L206.109 144.722L206.1 144.807C206.149 144.828 206.212 144.829 206.259 144.853C206.889 145.735 207.151 146.811 210.059 146.477L211.739 148.016C211.376 150.565 215.152 151.97 217.36 153.805L219.415 157.859C221.183 158.718 223.309 159.087 223.572 162.054C224.749 162.723 225.212 163.703 226.077 164.568C226.475 164.966 226.105 165.347 226.499 165.657C227.619 166.536 229.638 166.751 229.915 165.488C229.915 165.488 231.783 166.195 233.134 166.032C233.972 165.931 233.895 165.14 234.729 164.962L240.734 170.217L241.804 169.438C245.926 170.395 250.05 169.846 254.172 169.251L259.088 165.038L265.892 164.794L265.957 161.256L262.457 160.045L260.036 154.687L256.527 151.722C257.14 150.778 255.465 149.833 254.65 148.888C253.546 149.189 252.347 148.947 251.084 148.297L251.985 147.143L251.966 145.482L255.185 145.426C255.811 145.032 256.49 144.861 256.968 143.878L256.93 140.856Z" fill="#012681"/>
<path d="M258.939 69.6913L257.306 71.3522L255.964 71.0519L255.336 73.7637L252.436 74.5238L252.173 76.7289L249.612 77.0198L248.392 75.7437L208.728 76.9448L209.206 86.8819C207.52 87.0099 205.781 87.0148 204.411 86.8256L204.486 89.9879L204.946 108.783L199.569 109.074L199.635 111.082L196.557 114.976L196.754 117.744L195.722 118.214C195.624 119.942 195.425 121.456 194.699 121.929L194.737 124.172L196.979 123.703C197.431 126.22 197.541 128.865 199.654 130.778L199.926 132.458L198.922 132.599C200.616 134.707 202.57 136.682 203.679 139.083C201.797 144.914 204.473 144.093 206.1 144.807L206.11 144.722L210.473 136.183H212.875H214.527L215.878 138.773L217.83 138.585H223.704V136.371L229.841 136.568L229.888 138.323L232.693 137.422V135.714L235.902 134.532L240.754 137.722L245.905 131.116L245.605 126.95L243.822 125.617H247.256V123.909L249.208 124.698L251.019 134.766L253.262 135.62L254.604 138.172V141.71L256.922 140.856H256.931L256.856 134.729L258.367 132.486L259.896 132.505L260.647 128.629C262.459 126.4 263.17 123.541 266.08 121.939L266.999 114.61C266.47 109.438 268.042 104.972 268.792 100.225C269.541 99.917 270.397 100.486 271.006 99.0524L274.356 97.354C275.017 96.9138 275.241 95.8825 275.435 94.8204C274.981 93.8058 274.33 93.9891 273.727 93.8633C272.739 91.9638 271.098 91.7966 269.674 91.0576L267.684 79.0185L266.108 77.3483C266.51 73.0339 261.431 72.2688 258.939 69.6913Z" fill="#012681"/>
<path d="M166.781 333.548L174.842 349.768L174.947 353.476C174.54 354.368 173.872 354.395 173.125 354.25C172.822 354.676 172.538 355.226 173.202 355.641C174.201 357.414 174.923 359.571 176.196 361.09C177.241 362.339 178.792 362.992 180.022 364.069L183.222 364.325C183.881 363.862 183.282 363.231 185.67 362.999L190.358 362.969C191.838 362.387 190.173 360.923 195 361.282C195.793 361.382 196.136 362.252 197.38 361.58C199.621 361.219 201.761 362.073 203.944 362.402C204.591 361.885 204.35 361.005 207.986 361.708L208.357 360.294L212.618 360.361L237.875 336.889C241.881 335.227 242.766 330.376 243.889 325.767L240.718 325.555C240.685 325.171 237.673 327.325 237.291 327.368C235.663 327.549 234.723 327.023 234.957 324.17C235.132 322.044 237.409 320.35 238.012 319.957C238.815 319.432 239.616 321.41 240.416 320.888C240.416 320.888 240.133 311.843 239.795 304.276C238.094 303.242 236.874 301.464 233.845 302.483C232.254 301.294 230.664 301.416 229.074 301.045L211.601 314.903L210.959 317.798C208.974 318.848 206.989 318.705 205.004 318.916C203.5 317.773 201.88 317.097 200.117 316.99L197.203 319.541C196.93 320.946 196.113 321.081 195.487 321.662C194.496 322.237 193.977 322.969 193.762 323.803C190.825 324.53 188.764 324.05 186.851 323.368C187.22 321.651 188.324 320.535 187.403 317.763L183.34 313.218L182.811 332.735C181.582 333.267 180.353 334.075 179.125 335.255C177.076 335.079 175.374 334.795 172.533 335.308C172.072 333.153 170.103 329.59 166.781 333.548V333.548Z" fill="white"/>
<path d="M240.441 321.051L240.669 325.468C239.348 326.129 238.366 326.79 237.241 327.45C236.007 327.42 235.217 327.096 235.022 326.108C234.71 324.534 234.888 323.462 235.761 322.139C236.396 321.178 237.544 319.964 238.314 319.835C238.71 319.769 239.295 320.363 239.636 320.865L240.441 321.051V321.051Z" fill="#012681"/>
<path d="M254.607 190.904L252.786 193.617L238.967 193.852L241.232 198.506C237.664 202.106 239.933 202.787 240.781 204.179C239.217 207.093 238.013 210.652 234.883 210.771C234.096 210.969 233.52 210.772 233.373 211.739C233.028 214.002 234.02 218.691 234.93 221.399C235.863 223.49 237.511 224.904 238.406 226.655C239.23 227.87 239.432 229.084 239.822 230.299L241.738 232.461C242.547 232.22 243.448 232.438 244.723 234.531L250.475 236.429C251.715 237.579 253.674 237.888 255.6 238.238L258.615 248.187L264.25 248.331C265.224 247.718 266.197 247.771 267.172 249.037C269.269 248.706 271.144 248.153 273.902 248.483C274.774 247.547 275.859 246.849 277.666 246.965C279.831 248.69 286.005 245.182 288.664 243.464C288.016 242.294 286.833 241.658 285.735 240.937C285.824 239.607 285.287 238.152 284.807 236.708C284.248 235.826 283.816 234.975 284.186 234.325L282.879 231.469L283.699 231.201C283.486 229.024 283.5 226.968 284.799 225.604C283.907 223.76 280.873 222.297 281.047 220.109L283.639 212.812L276.761 208.256L275.622 204.198L254.607 190.904V190.904Z" fill="#012681"/>
<path d="M90.1777 157.98L93.7564 156.947L91.3818 138.332C91.0786 136.913 89.6691 136.284 88.5932 135.417L89.1634 132.374L84.9437 131.828C84.1536 133.407 84.5746 134.909 86.4889 136.319C88.0353 142.625 87.8431 148.683 88.3277 154.837L90.1777 157.98V157.98Z" fill="#012681"/>
<path d="M139.314 0.55313C138.408 0.584058 134.858 -1.26623 132.864 1.63471C132.864 1.63471 131.363 2.29982 131.279 3.83992C131.148 6.21238 130.922 13.5988 130.922 13.5988C130.672 13.1997 128.894 13.5012 128.613 14.7062C128.232 16.3439 126.386 15.9151 126.239 16.7424C125.945 18.408 127.399 19.9403 129.111 21.4341C129.55 21.8173 128.948 23.9366 129.383 24.3243C130.709 25.5071 133.061 26.3136 133.061 26.3136C133.607 31.7404 134.572 35.4908 134.572 35.4908C134.93 35.7146 138.721 34.4126 137.414 29.0812C137.263 28.4638 145.186 25.8974 143.764 20.9384C143.616 20.4228 142.326 21.0333 142.117 20.0976C141.647 17.9984 141.707 17.4813 140.909 17.1661C140.508 17.0078 138.85 18.5999 138.513 18.3966C137.761 17.9423 136.823 16.8847 137.229 16.361C137.929 15.4587 142.982 12.3266 143.032 10.5997C143.107 8.02964 142.159 7.78191 140.899 7.09759C140.183 6.70904 140.44 5.49143 140.672 4.79689C140.814 4.37111 143.542 3.44266 143.227 2.45596C143.014 1.78665 142.618 1.68396 142.473 1.16058C142.366 0.774431 140.304 2.92769 140.174 2.59499C139.831 1.71789 139.727 1.181 139.314 0.55313V0.55313Z" fill="#012681"/>
<path d="M204.424 89.9051L165.335 70.6549L160.157 72.2196C160.512 75.2779 160.251 77.6456 160.306 79.5175C160.387 82.262 162.296 84.1861 164.915 85.114L163.756 87.9347L162.09 103.038L153.932 112.016C153.673 112.525 153.529 113.035 153.559 113.544C153.301 114.128 152.969 114.383 152.615 114.536C152.046 114.889 152.327 115.487 152.261 115.931C151.786 119.114 158.439 123.827 158.439 123.827C158.782 125.264 159.288 126.541 159.542 128.059C159.816 129.695 159.015 131.67 159.246 133.088C159.581 135.146 161.865 135.352 161.552 138.494L156.314 138.012C154.794 141.047 155.858 143.025 159.591 143.911L162.057 151.272C166.018 150.368 168.808 150.849 173.983 148.51L178.691 148.044C179.56 146.563 181.398 145.774 180.767 143.223L187.282 142.512C187.792 142.037 188.036 141.298 188.863 141.142C190.14 141.102 190.514 140.272 190.856 139.414C191.451 138.004 192.951 137.498 194.079 136.62C194.282 131.968 197.798 133.3 199.941 132.42L199.685 130.805C198.458 129.468 197.401 127.951 197.017 123.696L194.731 124.125L194.68 122.058C195.38 121.307 195.883 119.526 195.704 118.26L196.768 117.761L196.506 115.072L199.653 111.05L199.555 109.079L204.98 108.794L204.424 89.9051V89.9051Z" fill="#012681"/>
<path d="M240.851 170.166L241.843 169.414C245.831 170.432 249.988 169.849 254.144 169.27L256.634 167.211C258.047 168.043 259.104 169.471 259.316 172.45L261.711 174.365V180.181L252.798 193.598L238.903 193.855L236.776 195.578L235.946 195.594L235.469 194.955L235.788 186.665L238.902 181.938L243.869 177.482L240.866 175.584L240.849 170.166H240.851Z" fill="#012681"/>
<path d="M25.5134 76.4319C26.1302 72.0188 23.3866 65.8167 31.9588 65.6398L33.7574 52.2995L49.0462 53.6484L50.2082 44.6426L29.7584 43.1322C27.8607 46.0452 26.759 48.5113 23.8941 49.6475C21.1904 50.7198 20.1328 54.0565 19.368 56.9463L11.3207 66.1545C11.031 68.2453 9.81575 69.6421 8.18977 70.7306C6.71963 72.6539 5.82151 75.0435 5.5957 77.1682L7.64627 75.3092L25.5134 76.4319V76.4319Z" fill="#012681"/>
<path d="M162.088 151.233L157.469 158.809L158.088 164.318C160.062 168.195 162.363 171.777 165.431 174.669C167.334 172.55 168.171 170.916 171.942 169.94L175.223 171.366L178.903 170.331C179.815 169.272 179.741 167.596 179.812 166.011C181.077 163.948 182.439 162.864 183.811 161.882C184.829 162.669 186.63 162.063 186.766 164.416C187.971 165.772 189.108 166.581 189.986 165.322C191.005 166.828 195.333 166.348 198.311 166.678C198.483 166.119 198.799 165.38 199.409 164.274C200.406 164.123 201.302 163.73 202.824 164.838L209.113 162.637L209.523 163.566L212.038 163.161L211.995 162.225L217.552 161.763L218.789 163.352L219.362 162.493L220.311 163.185L221.111 162.266L223.701 162.165C223.172 160.697 223.397 158.957 219.473 158.032L217.454 153.909C215.431 151.973 211.845 151.078 211.583 147.966L210.033 146.468C208.718 146.529 207.574 147.099 206.109 144.722C203.743 144.363 202.137 143.992 203.691 139.198C202.475 136.264 200.618 134.874 199.006 132.632C195.612 133.281 194.25 133.108 194.131 136.616C193.053 137.474 191.471 137.912 190.978 139.258C190.551 140.253 190.198 141.019 188.689 141.148C188.258 141.414 187.736 141.955 187.197 142.546L180.767 143.216C181.104 144.426 180.974 145.516 179.59 146.866C179.221 147.227 178.955 147.669 178.61 148.056L173.98 148.487C168.628 150.849 165.941 150.348 162.088 151.233V151.233Z" fill="#012681"/>
<path d="M224.166 342.028C223.804 342.062 223.171 342.168 222.717 342.35C222.383 342.483 222.081 342.624 221.832 342.873C221.63 343.075 221.575 343.375 221.51 343.638C221.441 343.912 220.885 344.267 220.665 344.322C220.356 344.399 219.94 344.322 219.618 344.322C218.974 344.322 218.668 344.181 218.29 343.678C217.829 343.063 217.251 342.59 216.841 341.907C216.551 341.424 216.286 341.128 216.117 340.619C215.989 340.237 216.036 339.812 216.036 339.411C216.036 338.897 216.273 338.428 216.72 338.204C216.774 338.177 216.827 338.15 216.881 338.123C217.407 337.86 217.538 337.265 217.927 336.876C218.357 336.447 218.913 336.066 219.377 335.668C219.671 335.415 220.092 335.19 220.423 335.024C220.931 334.77 221.416 334.635 221.953 334.501C222.355 334.4 222.824 334.263 223.16 334.179C223.226 334.162 223.294 334.152 223.361 334.139C223.428 334.125 223.495 334.112 223.562 334.098C224.037 334.004 224.635 334.24 224.891 334.581C225.241 335.049 225.68 335.499 226.018 335.95C226.195 336.186 226.184 336.765 226.34 337.077C226.562 337.522 226.827 337.854 226.984 338.325C227.145 338.807 226.913 339.312 226.702 339.733C226.451 340.236 226.112 340.525 225.736 340.901C225.429 341.208 225.101 341.458 224.77 341.706C224.596 341.837 224.36 341.912 224.166 342.028V342.028Z" fill="#012681"/>
</svg>
