<svg width="496" height="471" viewBox="0 0 496 471" fill="none" xmlns="http://www.w3.org/2000/svg">
<path d="M493.5 230.334C493.5 285.291 454.562 345.082 401.762 391.169C348.969 437.25 282.465 469.5 227.533 469.5C172.637 469.5 122.885 437.285 86.8356 391.237C50.7881 345.191 28.5001 285.381 28.5001 230.334C28.5001 175.182 34.4181 117.686 54.0661 73.9937C63.8872 52.1542 77.1293 33.7853 94.7574 20.8762C112.38 7.97103 134.416 0.5 161.869 0.5C216.836 0.5 299.774 30.4459 368.992 74.2112C403.592 96.0885 434.734 121.4 457.219 148.116C479.71 174.837 493.5 202.915 493.5 230.334Z" stroke="url(#paint0_linear)"/>
<mask id="mask0" mask-type="alpha" maskUnits="userSpaceOnUse" x="95" y="84" width="365" height="386">
<path d="M234.125 84.778C226.41 86.2134 222.822 86.5723 214.209 86.7966C199.407 87.2003 198.554 87.4246 182.317 93.7941L174.018 97.0238L166.348 97.3378C159.081 97.6069 158.588 97.6966 155.762 98.9975C151.904 100.792 143.65 106.354 141.228 108.776C137.909 112.095 135.935 116.895 134.276 125.283C133.603 128.872 132.078 130.442 126.157 133.761C115.077 139.906 113.014 142.284 104.715 158.477C101.306 165.16 99.7811 168.614 99.7811 169.646C99.7811 170.498 100.678 174.266 101.8 178.079C104.85 188.441 104.581 190.37 99.1082 199.117C97.5383 201.673 96.058 204.499 95.9234 205.352C95.6992 206.383 95.9234 207.998 96.5514 210.106C97.0897 211.856 97.5831 214.951 97.7177 217.014C97.9868 222.173 98.8391 223.384 105.298 227.6C111.758 231.817 114 233.88 116.647 237.872C120.46 243.704 123.241 246.754 130.956 253.572C139.927 261.511 143.247 264.023 145.355 264.607C147.374 265.19 147.957 264.921 150.738 262.409C154.237 259.269 155.044 259.134 170.878 258.82L184.784 258.551L191.288 255.366C198.779 251.688 201.291 250.746 204.745 250.432C208.378 250.118 210.71 251.464 213.088 255.232C214.12 256.846 215.555 259.044 216.228 260.166C219.143 264.696 222.373 265.279 228.518 262.409C233.139 260.256 234.888 260.121 237.31 261.915C241.437 264.921 241.616 266.042 238.88 271.47C237.445 274.296 236.862 276.179 236.368 279.454C235.965 281.787 235.292 285.465 234.798 287.573C233.587 292.866 233.811 293.449 239.194 298.966C241.616 301.434 244.218 304.259 244.981 305.246C246.954 307.893 253.234 318.03 253.997 319.825C254.356 320.677 254.804 323.862 255.028 326.867C255.387 332.429 255.926 334.403 258.796 341.311C260.501 345.348 260.187 346.379 256.15 350.686C252.068 355.082 250.633 357.459 249.825 361.361C247.807 370.826 249.915 379.483 257.271 392.088C264.269 404.065 265.39 407.384 266.153 417.88C266.422 421.065 266.826 424.34 267.05 425.147C267.678 427.255 269.472 430.216 272.747 434.701C278.713 442.775 280.955 447.71 282.301 455.918C283.557 463.275 285.396 466.415 289.702 468.613C292.708 470.138 295.489 470.138 300.064 468.613C304.998 466.998 307.869 466.549 316.706 466.056C321.281 465.832 325.273 465.338 326.754 464.89C331.957 463.32 337.026 460.09 342.498 454.797C346.176 451.298 361.607 434.926 362.997 433.131C363.85 432.01 363.984 431.292 363.984 427.3C363.984 421.379 364.343 420.796 369.86 417.746C374.75 415.054 376.903 413.036 377.441 410.614C377.934 408.46 377.8 407.518 375.781 400.252C374.167 394.376 374.167 394.376 374.929 392.357C376.903 387.154 382.689 381.816 389.104 379.214C394.442 377.061 398.209 373.383 400.991 367.596C403.009 363.29 403.413 361.003 403.861 350.237C404.355 338.305 404.31 338.171 401.08 333.865C398.748 330.725 397.806 327.988 396.729 321.484C395.114 311.661 395.608 309.239 400.228 304.349C401.663 302.869 404.848 299.146 407.27 296.051C415.748 285.465 423.239 278.333 429.743 274.744C436.427 271.021 439.522 267.881 442.707 261.556C443.604 259.717 445.937 255.86 447.865 252.944C449.794 250.073 452.396 245.991 453.607 243.838C456.164 239.397 459.528 229.798 459.842 225.985C460.066 223.563 460.021 223.339 458.676 221.993C457.285 220.603 457.151 220.603 454.235 220.827C450.871 221.096 442.707 223.563 434.857 226.658C431.583 227.959 428.308 228.901 425.886 229.26C419.785 230.157 418.26 229.17 417.139 223.563C415.973 218.091 414.223 215.354 407.001 207.863C400.542 201.18 400.452 201.045 397.043 194.407C395.159 190.728 392.288 185.615 390.629 183.013C389.014 180.411 386.681 176.285 385.515 173.818C384.349 171.351 380.581 163.366 377.172 156.099C373.763 148.833 369.86 141.117 368.56 138.919C367.259 136.766 364.567 132.012 362.594 128.423C358.422 120.842 357.166 119.093 355.282 118.106C353.533 117.209 349.765 117.209 346.087 118.151C342.094 119.183 341.332 119.093 339.448 117.299C337.519 115.46 337.519 115.46 326.754 114.877C319.173 114.518 317.962 114.338 313.072 112.813C303.742 109.987 300.602 110.57 293.964 116.402C289.657 120.17 287.729 121.112 284.32 121.112C280.731 121.112 278.309 120.349 271.087 116.895C267.768 115.325 262.923 113.307 260.277 112.454C251.889 109.673 244.667 105.457 244.667 103.393C244.667 103.079 245.384 101.958 246.237 100.926C247.493 99.4011 247.807 98.6835 247.807 97.0686C247.807 92.0447 243.5 85.9443 239.194 84.8677C236.907 84.2846 236.772 84.2846 234.125 84.778ZM365.42 284.702C366.676 285.824 366.451 288.336 364.926 290.758C361.203 296.589 357.839 295.961 358.243 289.502C358.422 286.81 358.557 286.362 359.857 285.24C361.517 283.715 364.074 283.491 365.42 284.702Z" fill="black"/>
</mask>
<g mask="url(#mask0)">
<circle cx="105.54" cy="97.2653" r="3.96438" fill="#CDCDCD"/>
<circle cx="105.54" cy="115.208" r="3.96438" fill="#CDCDCD"/>
<circle cx="105.54" cy="133.15" r="3.96438" fill="#CDCDCD"/>
<circle cx="105.54" cy="151.093" r="3.96438" fill="#CDCDCD"/>
<circle cx="105.54" cy="169.035" r="3.96438" fill="#CDCDCD"/>
<circle cx="105.54" cy="186.977" r="3.96438" fill="#CDCDCD"/>
<circle cx="105.54" cy="204.92" r="3.96438" fill="#CDCDCD"/>
<circle cx="105.54" cy="222.862" r="3.96438" fill="#CDCDCD"/>
<circle cx="105.54" cy="240.805" r="3.96438" fill="#CDCDCD"/>
<circle cx="105.54" cy="258.747" r="3.96438" fill="#CDCDCD"/>
<circle cx="105.54" cy="276.69" r="3.96438" fill="#CDCDCD"/>
<circle cx="105.54" cy="294.632" r="3.96438" fill="#CDCDCD"/>
<circle cx="105.54" cy="312.575" r="3.96438" fill="#CDCDCD"/>
<circle cx="105.54" cy="330.517" r="3.96438" fill="#CDCDCD"/>
<circle cx="105.54" cy="348.46" r="3.96438" fill="#CDCDCD"/>
<circle cx="105.54" cy="366.402" r="3.96438" fill="#CDCDCD"/>
<circle cx="105.54" cy="384.345" r="3.96438" fill="#CDCDCD"/>
<circle cx="105.54" cy="402.287" r="3.96438" fill="#CDCDCD"/>
<circle cx="105.54" cy="420.23" r="3.96438" fill="#CDCDCD"/>
<circle cx="105.54" cy="438.172" r="3.96438" fill="#CDCDCD"/>
<circle cx="105.54" cy="456.115" r="3.96438" fill="#CDCDCD"/>
<circle cx="123.483" cy="97.2653" r="3.96438" fill="#CDCDCD"/>
<circle cx="123.483" cy="115.208" r="3.96438" fill="#CDCDCD"/>
<circle cx="123.483" cy="133.15" r="3.96438" fill="#CDCDCD"/>
<circle cx="123.483" cy="151.093" r="3.96438" fill="#CDCDCD"/>
<circle cx="123.483" cy="169.035" r="3.96438" fill="#CDCDCD"/>
<circle cx="123.483" cy="186.977" r="3.96438" fill="#CDCDCD"/>
<circle cx="123.483" cy="204.92" r="3.96438" fill="#CDCDCD"/>
<circle cx="123.483" cy="222.862" r="3.96438" fill="#CDCDCD"/>
<circle cx="123.483" cy="240.805" r="3.96438" fill="#CDCDCD"/>
<circle cx="123.483" cy="258.747" r="3.96438" fill="#CDCDCD"/>
<circle cx="123.483" cy="276.69" r="3.96438" fill="#CDCDCD"/>
<circle cx="123.483" cy="294.632" r="3.96438" fill="#CDCDCD"/>
<circle cx="123.483" cy="312.575" r="3.96438" fill="#CDCDCD"/>
<circle cx="123.483" cy="330.517" r="3.96438" fill="#CDCDCD"/>
<circle cx="123.483" cy="348.46" r="3.96438" fill="#CDCDCD"/>
<circle cx="123.483" cy="366.402" r="3.96438" fill="#CDCDCD"/>
<circle cx="123.483" cy="384.345" r="3.96438" fill="#CDCDCD"/>
<circle cx="123.483" cy="402.287" r="3.96438" fill="#CDCDCD"/>
<circle cx="123.483" cy="420.23" r="3.96438" fill="#CDCDCD"/>
<circle cx="123.483" cy="438.172" r="3.96438" fill="#CDCDCD"/>
<circle cx="123.483" cy="456.115" r="3.96438" fill="#CDCDCD"/>
<circle cx="141.425" cy="97.2653" r="3.96438" fill="#CDCDCD"/>
<circle cx="141.425" cy="115.208" r="3.96438" fill="#CDCDCD"/>
<circle cx="141.425" cy="133.15" r="3.96438" fill="#CDCDCD"/>
<circle cx="141.425" cy="151.093" r="3.96438" fill="#CDCDCD"/>
<circle cx="141.425" cy="169.035" r="3.96438" fill="#CDCDCD"/>
<circle cx="141.425" cy="186.977" r="3.96438" fill="#CDCDCD"/>
<circle cx="141.425" cy="204.92" r="3.96438" fill="#CDCDCD"/>
<circle cx="141.425" cy="222.862" r="3.96438" fill="#CDCDCD"/>
<circle cx="141.425" cy="240.805" r="3.96438" fill="#CDCDCD"/>
<circle cx="141.425" cy="258.747" r="3.96438" fill="#CDCDCD"/>
<circle cx="141.425" cy="276.69" r="3.96438" fill="#CDCDCD"/>
<circle cx="141.425" cy="294.632" r="3.96438" fill="#CDCDCD"/>
<circle cx="141.425" cy="312.575" r="3.96438" fill="#CDCDCD"/>
<circle cx="141.425" cy="330.517" r="3.96438" fill="#CDCDCD"/>
<circle cx="141.425" cy="348.46" r="3.96438" fill="#CDCDCD"/>
<circle cx="141.425" cy="366.402" r="3.96438" fill="#CDCDCD"/>
<circle cx="141.425" cy="384.345" r="3.96438" fill="#CDCDCD"/>
<circle cx="141.425" cy="402.287" r="3.96438" fill="#CDCDCD"/>
<circle cx="141.425" cy="420.23" r="3.96438" fill="#CDCDCD"/>
<circle cx="141.425" cy="438.172" r="3.96438" fill="#CDCDCD"/>
<circle cx="141.425" cy="456.115" r="3.96438" fill="#CDCDCD"/>
<circle cx="159.368" cy="97.2653" r="3.96438" fill="#CDCDCD"/>
<circle cx="159.368" cy="115.208" r="3.96438" fill="#CDCDCD"/>
<circle cx="159.368" cy="133.15" r="3.96438" fill="#CDCDCD"/>
<circle cx="159.368" cy="151.093" r="3.96438" fill="#FC8965"/>
<circle cx="159.368" cy="169.035" r="3.96438" fill="#FC8965"/>
<circle cx="159.368" cy="186.977" r="3.96438" fill="#CDCDCD"/>
<circle cx="159.368" cy="204.92" r="3.96438" fill="#CDCDCD"/>
<circle cx="159.368" cy="222.862" r="3.96438" fill="#CDCDCD"/>
<circle cx="159.368" cy="240.805" r="3.96438" fill="#CDCDCD"/>
<circle cx="159.368" cy="258.747" r="3.96438" fill="#CDCDCD"/>
<circle cx="159.368" cy="276.69" r="3.96438" fill="#CDCDCD"/>
<circle cx="159.368" cy="294.632" r="3.96438" fill="#CDCDCD"/>
<circle cx="159.368" cy="312.575" r="3.96438" fill="#CDCDCD"/>
<circle cx="159.368" cy="330.517" r="3.96438" fill="#CDCDCD"/>
<circle cx="159.368" cy="348.46" r="3.96438" fill="#CDCDCD"/>
<circle cx="159.368" cy="366.402" r="3.96438" fill="#CDCDCD"/>
<circle cx="159.368" cy="384.345" r="3.96438" fill="#CDCDCD"/>
<circle cx="159.368" cy="402.287" r="3.96438" fill="#CDCDCD"/>
<circle cx="159.368" cy="420.23" r="3.96438" fill="#CDCDCD"/>
<circle cx="159.368" cy="438.172" r="3.96438" fill="#CDCDCD"/>
<circle cx="159.368" cy="456.115" r="3.96438" fill="#CDCDCD"/>
<circle cx="177.31" cy="97.2653" r="3.96438" fill="#CDCDCD"/>
<circle cx="177.31" cy="115.208" r="3.96438" fill="#CDCDCD"/>
<circle cx="177.31" cy="133.15" r="3.96438" fill="#CDCDCD"/>
<circle cx="177.31" cy="151.093" r="3.96438" fill="#FC8965"/>
<circle cx="177.31" cy="169.035" r="3.96438" fill="#FC8965"/>
<circle cx="177.31" cy="186.977" r="3.96438" fill="#FC8965"/>
<circle cx="177.31" cy="204.92" r="3.96438" fill="#CDCDCD"/>
<circle cx="177.31" cy="222.862" r="3.96438" fill="#CDCDCD"/>
<circle cx="177.31" cy="240.805" r="3.96438" fill="#CDCDCD"/>
<circle cx="177.31" cy="258.747" r="3.96438" fill="#CDCDCD"/>
<circle cx="177.31" cy="276.69" r="3.96438" fill="#CDCDCD"/>
<circle cx="177.31" cy="294.632" r="3.96438" fill="#CDCDCD"/>
<circle cx="177.31" cy="312.575" r="3.96438" fill="#CDCDCD"/>
<circle cx="177.31" cy="330.517" r="3.96438" fill="#CDCDCD"/>
<circle cx="177.31" cy="348.46" r="3.96438" fill="#CDCDCD"/>
<circle cx="177.31" cy="366.402" r="3.96438" fill="#CDCDCD"/>
<circle cx="177.31" cy="384.345" r="3.96438" fill="#CDCDCD"/>
<circle cx="177.31" cy="402.287" r="3.96438" fill="#CDCDCD"/>
<circle cx="177.31" cy="420.23" r="3.96438" fill="#CDCDCD"/>
<circle cx="177.31" cy="438.172" r="3.96438" fill="#CDCDCD"/>
<circle cx="177.31" cy="456.115" r="3.96438" fill="#CDCDCD"/>
<circle cx="195.252" cy="97.2653" r="3.96438" fill="#CDCDCD"/>
<circle cx="195.252" cy="115.208" r="3.96438" fill="#CDCDCD"/>
<circle cx="195.252" cy="133.15" r="3.96438" fill="#CDCDCD"/>
<circle cx="195.252" cy="151.093" r="3.96438" fill="#CDCDCD"/>
<circle cx="195.252" cy="169.035" r="3.96438" fill="#FC8965"/>
<circle cx="195.252" cy="186.977" r="3.96438" fill="#CDCDCD"/>
<circle cx="195.252" cy="204.92" r="3.96438" fill="#CDCDCD"/>
<circle cx="195.252" cy="222.862" r="3.96438" fill="#CDCDCD"/>
<circle cx="195.252" cy="240.805" r="3.96438" fill="#CDCDCD"/>
<circle cx="195.252" cy="258.747" r="3.96438" fill="#CDCDCD"/>
<circle cx="195.252" cy="276.69" r="3.96438" fill="#CDCDCD"/>
<circle cx="195.252" cy="294.632" r="3.96438" fill="#CDCDCD"/>
<circle cx="195.252" cy="312.575" r="3.96438" fill="#CDCDCD"/>
<circle cx="195.252" cy="330.517" r="3.96438" fill="#CDCDCD"/>
<circle cx="195.252" cy="348.46" r="3.96438" fill="#CDCDCD"/>
<circle cx="195.252" cy="366.402" r="3.96438" fill="#CDCDCD"/>
<circle cx="195.252" cy="384.345" r="3.96438" fill="#CDCDCD"/>
<circle cx="195.252" cy="402.287" r="3.96438" fill="#CDCDCD"/>
<circle cx="195.252" cy="420.23" r="3.96438" fill="#CDCDCD"/>
<circle cx="195.252" cy="438.172" r="3.96438" fill="#CDCDCD"/>
<circle cx="195.252" cy="456.115" r="3.96438" fill="#CDCDCD"/>
<circle cx="213.195" cy="97.2653" r="3.96438" fill="#CDCDCD"/>
<circle cx="213.195" cy="115.208" r="3.96438" fill="#CDCDCD"/>
<circle cx="213.195" cy="133.15" r="3.96438" fill="#CDCDCD"/>
<circle cx="213.195" cy="151.093" r="3.96438" fill="#CDCDCD"/>
<circle cx="213.195" cy="169.035" r="3.96438" fill="#CDCDCD"/>
<circle cx="213.195" cy="186.977" r="3.96438" fill="#CDCDCD"/>
<circle cx="213.195" cy="204.92" r="3.96438" fill="#CDCDCD"/>
<circle cx="213.195" cy="222.862" r="3.96438" fill="#CDCDCD"/>
<circle cx="213.195" cy="240.805" r="3.96438" fill="#CDCDCD"/>
<circle cx="213.195" cy="258.747" r="3.96438" fill="#CDCDCD"/>
<circle cx="213.195" cy="276.69" r="3.96438" fill="#CDCDCD"/>
<circle cx="213.195" cy="294.632" r="3.96438" fill="#CDCDCD"/>
<circle cx="213.195" cy="312.575" r="3.96438" fill="#CDCDCD"/>
<circle cx="213.195" cy="330.517" r="3.96438" fill="#CDCDCD"/>
<circle cx="213.195" cy="348.46" r="3.96438" fill="#CDCDCD"/>
<circle cx="213.195" cy="366.402" r="3.96438" fill="#CDCDCD"/>
<circle cx="213.195" cy="384.345" r="3.96438" fill="#CDCDCD"/>
<circle cx="213.195" cy="402.287" r="3.96438" fill="#CDCDCD"/>
<circle cx="213.195" cy="420.23" r="3.96438" fill="#CDCDCD"/>
<circle cx="213.195" cy="438.172" r="3.96438" fill="#CDCDCD"/>
<circle cx="213.195" cy="456.115" r="3.96438" fill="#CDCDCD"/>
<circle cx="231.138" cy="97.2653" r="3.96438" fill="#CDCDCD"/>
<circle cx="231.138" cy="115.208" r="3.96438" fill="#CDCDCD"/>
<circle cx="231.138" cy="133.15" r="3.96438" fill="#CDCDCD"/>
<circle cx="231.138" cy="151.093" r="3.96438" fill="#CDCDCD"/>
<circle cx="231.138" cy="169.035" r="3.96438" fill="#CDCDCD"/>
<circle cx="231.138" cy="186.977" r="3.96438" fill="#CDCDCD"/>
<circle cx="231.138" cy="204.92" r="3.96438" fill="#CDCDCD"/>
<circle cx="231.138" cy="222.862" r="3.96438" fill="#CDCDCD"/>
<circle cx="231.138" cy="240.805" r="3.96438" fill="#FC8965"/>
<circle cx="231.138" cy="258.747" r="3.96438" fill="#FC8965"/>
<circle cx="231.138" cy="276.69" r="3.96438" fill="#CDCDCD"/>
<circle cx="231.138" cy="294.632" r="3.96438" fill="#CDCDCD"/>
<circle cx="231.138" cy="312.575" r="3.96438" fill="#CDCDCD"/>
<circle cx="231.138" cy="330.517" r="3.96438" fill="#CDCDCD"/>
<circle cx="231.138" cy="348.46" r="3.96438" fill="#CDCDCD"/>
<circle cx="231.138" cy="366.402" r="3.96438" fill="#CDCDCD"/>
<circle cx="231.138" cy="384.345" r="3.96438" fill="#CDCDCD"/>
<circle cx="231.138" cy="402.287" r="3.96438" fill="#CDCDCD"/>
<circle cx="231.138" cy="420.23" r="3.96438" fill="#CDCDCD"/>
<circle cx="231.138" cy="438.172" r="3.96438" fill="#CDCDCD"/>
<circle cx="231.138" cy="456.115" r="3.96438" fill="#CDCDCD"/>
<circle cx="249.08" cy="97.2653" r="3.96438" fill="#CDCDCD"/>
<circle cx="249.08" cy="115.208" r="3.96438" fill="#CDCDCD"/>
<circle cx="249.08" cy="133.15" r="3.96438" fill="#CDCDCD"/>
<circle cx="249.08" cy="151.093" r="3.96438" fill="#CDCDCD"/>
<circle cx="249.08" cy="169.035" r="3.96438" fill="#CDCDCD"/>
<circle cx="249.08" cy="186.977" r="3.96438" fill="#CDCDCD"/>
<circle cx="249.08" cy="204.92" r="3.96438" fill="#CDCDCD"/>
<circle cx="249.08" cy="222.862" r="3.96438" fill="#CDCDCD"/>
<circle cx="249.08" cy="240.805" r="3.96438" fill="#FC8965"/>
<circle cx="249.08" cy="258.747" r="3.96438" fill="#CDCDCD"/>
<circle cx="249.08" cy="276.69" r="3.96438" fill="#CDCDCD"/>
<circle cx="249.08" cy="294.632" r="3.96438" fill="#CDCDCD"/>
<circle cx="249.08" cy="312.575" r="3.96438" fill="#CDCDCD"/>
<circle cx="249.08" cy="330.517" r="3.96438" fill="#CDCDCD"/>
<circle cx="249.08" cy="348.46" r="3.96438" fill="#CDCDCD"/>
<circle cx="249.08" cy="366.402" r="3.96438" fill="#CDCDCD"/>
<circle cx="249.08" cy="384.345" r="3.96438" fill="#CDCDCD"/>
<circle cx="249.08" cy="402.287" r="3.96438" fill="#CDCDCD"/>
<circle cx="249.08" cy="420.23" r="3.96438" fill="#CDCDCD"/>
<circle cx="249.08" cy="438.172" r="3.96438" fill="#CDCDCD"/>
<circle cx="249.08" cy="456.115" r="3.96438" fill="#CDCDCD"/>
<circle cx="267.022" cy="97.2653" r="3.96438" fill="#CDCDCD"/>
<circle cx="267.022" cy="115.208" r="3.96438" fill="#CDCDCD"/>
<circle cx="267.022" cy="133.15" r="3.96438" fill="#CDCDCD"/>
<circle cx="267.022" cy="151.093" r="3.96438" fill="#CDCDCD"/>
<circle cx="267.022" cy="169.035" r="3.96438" fill="#CDCDCD"/>
<circle cx="267.022" cy="186.977" r="3.96438" fill="#CDCDCD"/>
<circle cx="267.022" cy="204.92" r="3.96438" fill="#CDCDCD"/>
<circle cx="267.022" cy="222.862" r="3.96438" fill="#CDCDCD"/>
<circle cx="267.022" cy="240.805" r="3.96438" fill="#CDCDCD"/>
<circle cx="267.022" cy="258.747" r="3.96438" fill="#CDCDCD"/>
<circle cx="267.022" cy="276.69" r="3.96438" fill="#CDCDCD"/>
<circle cx="267.022" cy="294.632" r="3.96438" fill="#CDCDCD"/>
<circle cx="267.022" cy="312.575" r="3.96438" fill="#CDCDCD"/>
<circle cx="267.022" cy="330.517" r="3.96438" fill="#CDCDCD"/>
<circle cx="267.022" cy="348.46" r="3.96438" fill="#CDCDCD"/>
<circle cx="267.022" cy="366.402" r="3.96438" fill="#CDCDCD"/>
<circle cx="267.022" cy="384.345" r="3.96438" fill="#CDCDCD"/>
<circle cx="267.022" cy="402.287" r="3.96438" fill="#CDCDCD"/>
<circle cx="267.022" cy="420.23" r="3.96438" fill="#CDCDCD"/>
<circle cx="267.022" cy="438.172" r="3.96438" fill="#CDCDCD"/>
<circle cx="267.022" cy="456.115" r="3.96438" fill="#CDCDCD"/>
<circle cx="284.965" cy="97.2653" r="3.96438" fill="#CDCDCD"/>
<circle cx="284.965" cy="115.208" r="3.96438" fill="#CDCDCD"/>
<circle cx="284.965" cy="133.15" r="3.96438" fill="#CDCDCD"/>
<circle cx="284.965" cy="151.093" r="3.96438" fill="#CDCDCD"/>
<circle cx="284.965" cy="169.035" r="3.96438" fill="#CDCDCD"/>
<circle cx="284.965" cy="186.977" r="3.96438" fill="#CDCDCD"/>
<circle cx="284.965" cy="204.92" r="3.96438" fill="#CDCDCD"/>
<circle cx="284.965" cy="222.862" r="3.96438" fill="#CDCDCD"/>
<circle cx="284.965" cy="240.805" r="3.96438" fill="#CDCDCD"/>
<circle cx="284.965" cy="258.747" r="3.96438" fill="#CDCDCD"/>
<circle cx="284.965" cy="276.69" r="3.96438" fill="#CDCDCD"/>
<circle cx="284.965" cy="294.632" r="3.96438" fill="#CDCDCD"/>
<circle cx="284.965" cy="312.575" r="3.96438" fill="#CDCDCD"/>
<circle cx="284.965" cy="330.517" r="3.96438" fill="#CDCDCD"/>
<circle cx="284.965" cy="348.46" r="3.96438" fill="#CDCDCD"/>
<circle cx="284.965" cy="366.402" r="3.96438" fill="#CDCDCD"/>
<circle cx="284.965" cy="384.345" r="3.96438" fill="#CDCDCD"/>
<circle cx="284.965" cy="402.287" r="3.96438" fill="#CDCDCD"/>
<circle cx="284.965" cy="420.23" r="3.96438" fill="#CDCDCD"/>
<circle cx="284.965" cy="438.172" r="3.96438" fill="#115CCC"/>
<circle cx="284.965" cy="456.115" r="3.96438" fill="#115CCC"/>
<circle cx="302.908" cy="97.2653" r="3.96438" fill="#CDCDCD"/>
<circle cx="302.908" cy="115.208" r="3.96438" fill="#115CCC"/>
<circle cx="302.908" cy="133.15" r="3.96438" fill="#115CCC"/>
<circle cx="302.908" cy="151.093" r="3.96438" fill="#CDCDCD"/>
<circle cx="302.908" cy="169.035" r="3.96438" fill="#CDCDCD"/>
<circle cx="302.908" cy="186.977" r="3.96438" fill="#CDCDCD"/>
<circle cx="302.908" cy="204.92" r="3.96438" fill="#CDCDCD"/>
<circle cx="302.908" cy="222.862" r="3.96438" fill="#CDCDCD"/>
<circle cx="302.908" cy="240.805" r="3.96438" fill="#CDCDCD"/>
<circle cx="302.908" cy="258.747" r="3.96438" fill="#CDCDCD"/>
<circle cx="302.908" cy="276.69" r="3.96438" fill="#CDCDCD"/>
<circle cx="302.908" cy="294.632" r="3.96438" fill="#CDCDCD"/>
<circle cx="302.908" cy="312.575" r="3.96438" fill="#CDCDCD"/>
<circle cx="302.908" cy="330.517" r="3.96438" fill="#CDCDCD"/>
<circle cx="302.908" cy="348.46" r="3.96438" fill="#CDCDCD"/>
<circle cx="302.908" cy="366.402" r="3.96438" fill="#CDCDCD"/>
<circle cx="302.908" cy="384.345" r="3.96438" fill="#CDCDCD"/>
<circle cx="302.908" cy="402.287" r="3.96438" fill="#CDCDCD"/>
<circle cx="302.908" cy="420.23" r="3.96438" fill="#CDCDCD"/>
<circle cx="302.908" cy="438.172" r="3.96438" fill="#115CCC"/>
<circle cx="302.908" cy="456.115" r="3.96438" fill="#115CCC"/>
<circle cx="320.85" cy="97.2653" r="3.96438" fill="#CDCDCD"/>
<circle cx="320.85" cy="115.208" r="3.96438" fill="#115CCC"/>
<circle cx="320.85" cy="133.15" r="3.96438" fill="#115CCC"/>
<circle cx="320.85" cy="151.093" r="3.96438" fill="#CDCDCD"/>
<circle cx="320.85" cy="169.035" r="3.96438" fill="#CDCDCD"/>
<circle cx="320.85" cy="186.977" r="3.96438" fill="#CDCDCD"/>
<circle cx="320.85" cy="204.92" r="3.96438" fill="#CDCDCD"/>
<circle cx="320.85" cy="222.862" r="3.96438" fill="#CDCDCD"/>
<circle cx="320.85" cy="240.805" r="3.96438" fill="#CDCDCD"/>
<circle cx="320.85" cy="258.747" r="3.96438" fill="#CDCDCD"/>
<circle cx="320.85" cy="276.69" r="3.96438" fill="#FC8965"/>
<circle cx="320.85" cy="294.632" r="3.96438" fill="#CDCDCD"/>
<circle cx="320.85" cy="312.575" r="3.96438" fill="#CDCDCD"/>
<circle cx="320.85" cy="330.517" r="3.96438" fill="#CDCDCD"/>
<circle cx="320.85" cy="348.46" r="3.96438" fill="#CDCDCD"/>
<circle cx="320.85" cy="366.402" r="3.96438" fill="#CDCDCD"/>
<circle cx="320.85" cy="384.345" r="3.96438" fill="#CDCDCD"/>
<circle cx="320.85" cy="402.287" r="3.96438" fill="#CDCDCD"/>
<circle cx="320.85" cy="420.23" r="3.96438" fill="#CDCDCD"/>
<circle cx="320.85" cy="438.172" r="3.96438" fill="#115CCC"/>
<circle cx="320.85" cy="456.115" r="3.96438" fill="#115CCC"/>
<circle cx="338.792" cy="97.2653" r="3.96438" fill="#CDCDCD"/>
<circle cx="338.792" cy="115.208" r="3.96438" fill="#115CCC"/>
<circle cx="338.792" cy="133.15" r="3.96438" fill="#115CCC"/>
<circle cx="338.792" cy="151.093" r="3.96438" fill="#115CCC"/>
<circle cx="338.792" cy="169.035" r="3.96438" fill="#CDCDCD"/>
<circle cx="338.792" cy="186.977" r="3.96438" fill="#CDCDCD"/>
<circle cx="338.792" cy="204.92" r="3.96438" fill="#CDCDCD"/>
<circle cx="338.792" cy="222.862" r="3.96438" fill="#CDCDCD"/>
<circle cx="338.792" cy="240.805" r="3.96438" fill="#CDCDCD"/>
<circle cx="338.792" cy="258.747" r="3.96438" fill="#FC8965"/>
<circle cx="338.792" cy="276.69" r="3.96438" fill="#FC8965"/>
<circle cx="338.792" cy="294.632" r="3.96438" fill="#FC8965"/>
<circle cx="338.792" cy="312.575" r="3.96438" fill="#CDCDCD"/>
<circle cx="338.792" cy="330.517" r="3.96438" fill="#CDCDCD"/>
<circle cx="338.792" cy="348.46" r="3.96438" fill="#CDCDCD"/>
<circle cx="338.792" cy="366.402" r="3.96438" fill="#CDCDCD"/>
<circle cx="338.792" cy="384.345" r="3.96438" fill="#CDCDCD"/>
<circle cx="338.792" cy="402.287" r="3.96438" fill="#CDCDCD"/>
<circle cx="338.792" cy="420.23" r="3.96438" fill="#CDCDCD"/>
<circle cx="338.792" cy="438.172" r="3.96438" fill="#115CCC"/>
<circle cx="338.792" cy="456.115" r="3.96438" fill="#115CCC"/>
<circle cx="356.735" cy="97.2653" r="3.96438" fill="#CDCDCD"/>
<circle cx="356.735" cy="115.208" r="3.96438" fill="#CDCDCD"/>
<circle cx="356.735" cy="133.15" r="3.96438" fill="#115CCC"/>
<circle cx="356.735" cy="151.093" r="3.96438" fill="#115CCC"/>
<circle cx="356.735" cy="169.035" r="3.96438" fill="#CDCDCD"/>
<circle cx="356.735" cy="186.977" r="3.96438" fill="#CDCDCD"/>
<circle cx="356.735" cy="204.92" r="3.96438" fill="#CDCDCD"/>
<circle cx="356.735" cy="222.862" r="3.96438" fill="#CDCDCD"/>
<circle cx="356.735" cy="240.805" r="3.96438" fill="#CDCDCD"/>
<circle cx="356.735" cy="258.747" r="3.96438" fill="#CDCDCD"/>
<circle cx="356.735" cy="276.69" r="3.96438" fill="#CDCDCD"/>
<circle cx="356.735" cy="294.632" r="3.96438" fill="#CDCDCD"/>
<circle cx="356.735" cy="312.575" r="3.96438" fill="#CDCDCD"/>
<circle cx="356.735" cy="330.517" r="3.96438" fill="#CDCDCD"/>
<circle cx="356.735" cy="348.46" r="3.96438" fill="#CDCDCD"/>
<circle cx="356.735" cy="366.402" r="3.96438" fill="#CDCDCD"/>
<circle cx="356.735" cy="384.345" r="3.96438" fill="#CDCDCD"/>
<circle cx="356.735" cy="402.287" r="3.96438" fill="#CDCDCD"/>
<circle cx="356.735" cy="420.23" r="3.96438" fill="#CDCDCD"/>
<circle cx="356.735" cy="438.172" r="3.96438" fill="#115CCC"/>
<circle cx="356.735" cy="456.115" r="3.96438" fill="#CDCDCD"/>
<circle cx="374.678" cy="97.2653" r="3.96438" fill="#CDCDCD"/>
<circle cx="374.678" cy="115.208" r="3.96438" fill="#CDCDCD"/>
<circle cx="374.678" cy="133.15" r="3.96438" fill="#CDCDCD"/>
<circle cx="374.678" cy="151.093" r="3.96438" fill="#CDCDCD"/>
<circle cx="374.678" cy="169.035" r="3.96438" fill="#CDCDCD"/>
<circle cx="374.678" cy="186.977" r="3.96438" fill="#CDCDCD"/>
<circle cx="374.678" cy="204.92" r="3.96438" fill="#CDCDCD"/>
<circle cx="374.678" cy="222.862" r="3.96438" fill="#CDCDCD"/>
<circle cx="374.678" cy="240.805" r="3.96438" fill="#CDCDCD"/>
<circle cx="374.678" cy="258.747" r="3.96438" fill="#CDCDCD"/>
<circle cx="374.678" cy="276.69" r="3.96438" fill="#CDCDCD"/>
<circle cx="374.678" cy="294.632" r="3.96438" fill="#CDCDCD"/>
<circle cx="374.678" cy="312.575" r="3.96438" fill="#CDCDCD"/>
<circle cx="374.678" cy="330.517" r="3.96438" fill="#CDCDCD"/>
<circle cx="374.678" cy="348.46" r="3.96438" fill="#CDCDCD"/>
<circle cx="374.678" cy="366.402" r="3.96438" fill="#CDCDCD"/>
<circle cx="374.678" cy="384.345" r="3.96438" fill="#CDCDCD"/>
<circle cx="374.678" cy="402.287" r="3.96438" fill="#CDCDCD"/>
<circle cx="374.678" cy="420.23" r="3.96438" fill="#CDCDCD"/>
<circle cx="374.678" cy="438.172" r="3.96438" fill="#CDCDCD"/>
<circle cx="374.678" cy="456.115" r="3.96438" fill="#CDCDCD"/>
<circle cx="392.62" cy="97.2653" r="3.96438" fill="#CDCDCD"/>
<circle cx="392.62" cy="115.208" r="3.96438" fill="#CDCDCD"/>
<circle cx="392.62" cy="133.15" r="3.96438" fill="#CDCDCD"/>
<circle cx="392.62" cy="151.093" r="3.96438" fill="#CDCDCD"/>
<circle cx="392.62" cy="169.035" r="3.96438" fill="#CDCDCD"/>
<circle cx="392.62" cy="186.977" r="3.96438" fill="#CDCDCD"/>
<circle cx="392.62" cy="204.92" r="3.96438" fill="#CDCDCD"/>
<circle cx="392.62" cy="222.862" r="3.96438" fill="#CDCDCD"/>
<circle cx="392.62" cy="240.805" r="3.96438" fill="#CDCDCD"/>
<circle cx="392.62" cy="258.747" r="3.96438" fill="#CDCDCD"/>
<circle cx="392.62" cy="276.69" r="3.96438" fill="#CDCDCD"/>
<circle cx="392.62" cy="294.632" r="3.96438" fill="#CDCDCD"/>
<circle cx="392.62" cy="312.575" r="3.96438" fill="#CDCDCD"/>
<circle cx="392.62" cy="330.517" r="3.96438" fill="#CDCDCD"/>
<circle cx="392.62" cy="348.46" r="3.96438" fill="#CDCDCD"/>
<circle cx="392.62" cy="366.402" r="3.96438" fill="#CDCDCD"/>
<circle cx="392.62" cy="384.345" r="3.96438" fill="#CDCDCD"/>
<circle cx="392.62" cy="402.287" r="3.96438" fill="#CDCDCD"/>
<circle cx="392.62" cy="420.23" r="3.96438" fill="#CDCDCD"/>
<circle cx="392.62" cy="438.172" r="3.96438" fill="#CDCDCD"/>
<circle cx="392.62" cy="456.115" r="3.96438" fill="#CDCDCD"/>
<circle cx="410.562" cy="97.2653" r="3.96438" fill="#CDCDCD"/>
<circle cx="410.562" cy="115.208" r="3.96438" fill="#CDCDCD"/>
<circle cx="410.562" cy="133.15" r="3.96438" fill="#CDCDCD"/>
<circle cx="410.562" cy="151.093" r="3.96438" fill="#CDCDCD"/>
<circle cx="410.562" cy="169.035" r="3.96438" fill="#CDCDCD"/>
<circle cx="410.562" cy="186.977" r="3.96438" fill="#CDCDCD"/>
<circle cx="410.562" cy="204.92" r="3.96438" fill="#CDCDCD"/>
<circle cx="410.562" cy="222.862" r="3.96438" fill="#CDCDCD"/>
<circle cx="410.562" cy="240.805" r="3.96438" fill="#CDCDCD"/>
<circle cx="410.562" cy="258.747" r="3.96438" fill="#CDCDCD"/>
<circle cx="410.562" cy="276.69" r="3.96438" fill="#CDCDCD"/>
<circle cx="410.562" cy="294.632" r="3.96438" fill="#CDCDCD"/>
<circle cx="410.562" cy="312.575" r="3.96438" fill="#CDCDCD"/>
<circle cx="410.562" cy="330.517" r="3.96438" fill="#CDCDCD"/>
<circle cx="410.562" cy="348.46" r="3.96438" fill="#CDCDCD"/>
<circle cx="410.562" cy="366.402" r="3.96438" fill="#CDCDCD"/>
<circle cx="410.562" cy="384.345" r="3.96438" fill="#CDCDCD"/>
<circle cx="410.562" cy="402.287" r="3.96438" fill="#CDCDCD"/>
<circle cx="410.562" cy="420.23" r="3.96438" fill="#CDCDCD"/>
<circle cx="410.562" cy="438.172" r="3.96438" fill="#CDCDCD"/>
<circle cx="410.562" cy="456.115" r="3.96438" fill="#CDCDCD"/>
<circle cx="428.505" cy="97.2653" r="3.96438" fill="#CDCDCD"/>
<circle cx="428.505" cy="115.208" r="3.96438" fill="#CDCDCD"/>
<circle cx="428.505" cy="133.15" r="3.96438" fill="#CDCDCD"/>
<circle cx="428.505" cy="151.093" r="3.96438" fill="#CDCDCD"/>
<circle cx="428.505" cy="169.035" r="3.96438" fill="#CDCDCD"/>
<circle cx="428.505" cy="186.977" r="3.96438" fill="#CDCDCD"/>
<circle cx="428.505" cy="204.92" r="3.96438" fill="#CDCDCD"/>
<circle cx="428.505" cy="222.862" r="3.96438" fill="#CDCDCD"/>
<circle cx="428.505" cy="240.805" r="3.96438" fill="#CDCDCD"/>
<circle cx="428.505" cy="258.747" r="3.96438" fill="#CDCDCD"/>
<circle cx="428.505" cy="276.69" r="3.96438" fill="#CDCDCD"/>
<circle cx="428.505" cy="294.632" r="3.96438" fill="#CDCDCD"/>
<circle cx="428.505" cy="312.575" r="3.96438" fill="#CDCDCD"/>
<circle cx="428.505" cy="330.517" r="3.96438" fill="#CDCDCD"/>
<circle cx="428.505" cy="348.46" r="3.96438" fill="#CDCDCD"/>
<circle cx="428.505" cy="366.402" r="3.96438" fill="#CDCDCD"/>
<circle cx="428.505" cy="384.345" r="3.96438" fill="#CDCDCD"/>
<circle cx="428.505" cy="402.287" r="3.96438" fill="#CDCDCD"/>
<circle cx="428.505" cy="420.23" r="3.96438" fill="#CDCDCD"/>
<circle cx="428.505" cy="438.172" r="3.96438" fill="#CDCDCD"/>
<circle cx="428.505" cy="456.115" r="3.96438" fill="#CDCDCD"/>
<circle cx="446.448" cy="97.2653" r="3.96438" fill="#CDCDCD"/>
<circle cx="446.448" cy="115.208" r="3.96438" fill="#CDCDCD"/>
<circle cx="446.448" cy="133.15" r="3.96438" fill="#CDCDCD"/>
<circle cx="446.448" cy="151.093" r="3.96438" fill="#CDCDCD"/>
<circle cx="446.448" cy="169.035" r="3.96438" fill="#CDCDCD"/>
<circle cx="446.448" cy="186.977" r="3.96438" fill="#CDCDCD"/>
<circle cx="446.448" cy="204.92" r="3.96438" fill="#CDCDCD"/>
<circle cx="446.448" cy="222.862" r="3.96438" fill="#CDCDCD"/>
<circle cx="446.448" cy="240.805" r="3.96438" fill="#CDCDCD"/>
<circle cx="446.448" cy="258.747" r="3.96438" fill="#CDCDCD"/>
<circle cx="446.448" cy="276.69" r="3.96438" fill="#CDCDCD"/>
<circle cx="446.448" cy="294.632" r="3.96438" fill="#CDCDCD"/>
<circle cx="446.448" cy="312.575" r="3.96438" fill="#CDCDCD"/>
<circle cx="446.448" cy="330.517" r="3.96438" fill="#CDCDCD"/>
<circle cx="446.448" cy="348.46" r="3.96438" fill="#CDCDCD"/>
<circle cx="446.448" cy="366.402" r="3.96438" fill="#CDCDCD"/>
<circle cx="446.448" cy="384.345" r="3.96438" fill="#CDCDCD"/>
<circle cx="446.448" cy="402.287" r="3.96438" fill="#CDCDCD"/>
<circle cx="446.448" cy="420.23" r="3.96438" fill="#CDCDCD"/>
<circle cx="446.448" cy="438.172" r="3.96438" fill="#CDCDCD"/>
<circle cx="446.448" cy="456.115" r="3.96438" fill="#CDCDCD"/>
</g>
<circle cx="199.706" cy="296.117" r="30.9222" fill="#00FDC0" fill-opacity="0.1"/>
<circle cx="199.706" cy="296.116" r="27.7507" fill="#00FDC0" fill-opacity="0.1"/>
<circle cx="370.57" cy="274.312" r="19.4255" fill="#FCAD65" fill-opacity="0.3"/>
<circle cx="370.57" cy="274.312" r="15.4611" fill="#FCAD65" fill-opacity="0.5"/>
<circle cx="370.571" cy="274.312" r="10.7038" fill="#FC8965"/>
<circle cx="199.706" cy="296.116" r="23.7863" fill="#00FDC0" fill-opacity="0.5"/>
<path d="M27.8009 202.434L19.5004 206.977L19.3753 208.973L27.5176 206.952L27.1823 212.302L24.0839 213.777L23.99 215.274L28.5438 214.557L32.9724 215.837L33.0663 214.34L30.1764 212.488L30.5118 207.139L38.338 210.161L38.4632 208.165L30.795 202.622L31.1358 197.185C31.1607 196.788 31.0268 196.398 30.7637 196.099C30.5005 195.801 30.1296 195.619 29.7326 195.594C29.3356 195.57 28.9449 195.703 28.6465 195.967C28.3482 196.23 28.1666 196.601 28.1417 196.998L27.8009 202.434Z" fill="white" fill-opacity="0.8"/>
<path d="M10.9534 236.017L27.7628 233.038C29.5638 229.198 35.327 222.87 43.9718 228.272C48.0407 221.519 62.262 213.893 86.5956 237.407H23.9606" stroke="url(#paint1_linear)" stroke-width="2"/>
<path d="M86.3561 255H81.5405C80.3939 250.796 75.4866 243.305 65.0298 246.974C64.1126 241.088 59.8473 231.702 50.1244 241.241C47.0668 234.897 36.8241 224.914 20.3134 235.737C11.2937 235.126 -4.77359 239.544 3.11483 254.771H76.4955" stroke="url(#paint2_linear)" stroke-width="2"/>
<path d="M259 39L273 23C281.667 23 320 38.2 404 99C488 159.8 499 215.667 494 236C485.2 302.4 447 350.333 429 366C395 400.667 309.4 470 239 470C222.117 470 195.166 472.435 163.5 455C132.515 437.94 121.5 434.5 77.0001 378C32.553 325.896 37.6825 270.784 30.5001 261.5C38.409 269.247 40.6309 328.424 81.0001 375C100.815 397.862 127.082 438.56 166.5 450C235.5 470.026 221 460.5 239 460.5C319.225 460.5 391 374 422 348C453 322 471 264 475 236C479 208 439 157 391 114C352.6 79.6 287 49.6667 259 39Z" fill="url(#paint3_linear)"/>
<defs>
<linearGradient id="paint0_linear" x1="149" y1="121" x2="320.088" y2="374.401" gradientUnits="userSpaceOnUse">
<stop stop-color="#064FBB" stop-opacity="0"/>
<stop offset="1" stop-color="#2D7FF9"/>
</linearGradient>
<linearGradient id="paint1_linear" x1="48.7745" y1="221.482" x2="48.7745" y2="237.407" gradientUnits="userSpaceOnUse">
<stop stop-color="#EEEEEE"/>
<stop offset="0.79528" stop-color="#EEEEEE" stop-opacity="0"/>
</linearGradient>
<linearGradient id="paint2_linear" x1="43.6779" y1="230.938" x2="43.6779" y2="255" gradientUnits="userSpaceOnUse">
<stop stop-color="#EEEEEE"/>
<stop offset="0.79528" stop-color="#EEEEEE" stop-opacity="0"/>
</linearGradient>
<linearGradient id="paint3_linear" x1="307" y1="365" x2="75.0001" y2="421" gradientUnits="userSpaceOnUse">
<stop stop-color="white" stop-opacity="0"/>
<stop offset="0.868198" stop-color="white"/>
</linearGradient>
</defs>
</svg>
