<svg width="171" height="150" viewBox="0 0 171 150" fill="none" xmlns="http://www.w3.org/2000/svg">
<path d="M0 146.924H166.147V150H0V146.924Z" fill="#7980BE"/>
<mask id="mask0" mask-type="alpha" maskUnits="userSpaceOnUse" x="0" y="146" width="167" height="4">
<path d="M0 146.924H166.147V150H0V146.924Z" fill="#C4C4C4"/>
</mask>
<g mask="url(#mask0)">
<path fill-rule="evenodd" clip-rule="evenodd" d="M2.54318 150.266L8.64622 145.916L10.0303 146.902L3.92724 151.253L2.54318 150.266Z" fill="#8C95E8"/>
<path fill-rule="evenodd" clip-rule="evenodd" d="M3.56032 145.917L9.66335 150.267L8.2793 151.254L2.17626 146.903L3.56032 145.917Z" fill="#8C95E8"/>
<path fill-rule="evenodd" clip-rule="evenodd" d="M8.99435 150.266L15.0974 145.916L16.4814 146.902L10.3784 151.253L8.99435 150.266Z" fill="#8C95E8"/>
<path fill-rule="evenodd" clip-rule="evenodd" d="M10.0115 145.917L16.1145 150.267L14.7305 151.254L8.62743 146.903L10.0115 145.917Z" fill="#8C95E8"/>
<path fill-rule="evenodd" clip-rule="evenodd" d="M15.4465 150.266L21.5495 145.916L22.9336 146.902L16.8306 151.253L15.4465 150.266Z" fill="#8C95E8"/>
<path fill-rule="evenodd" clip-rule="evenodd" d="M16.4636 145.917L22.5667 150.267L21.1826 151.254L15.0796 146.903L16.4636 145.917Z" fill="#8C95E8"/>
<path fill-rule="evenodd" clip-rule="evenodd" d="M21.8986 150.266L28.0017 145.916L29.3857 146.902L23.2827 151.253L21.8986 150.266Z" fill="#8C95E8"/>
<path fill-rule="evenodd" clip-rule="evenodd" d="M22.9158 145.917L29.0188 150.267L27.6348 151.254L21.5317 146.903L22.9158 145.917Z" fill="#8C95E8"/>
<path fill-rule="evenodd" clip-rule="evenodd" d="M28.3508 150.266L34.4538 145.916L35.8379 146.902L29.7349 151.253L28.3508 150.266Z" fill="#8C95E8"/>
<path fill-rule="evenodd" clip-rule="evenodd" d="M29.3679 145.917L35.471 150.267L34.0869 151.254L27.9839 146.903L29.3679 145.917Z" fill="#8C95E8"/>
<path fill-rule="evenodd" clip-rule="evenodd" d="M34.8029 150.266L40.906 145.916L42.29 146.902L36.187 151.253L34.8029 150.266Z" fill="#8C95E8"/>
<path fill-rule="evenodd" clip-rule="evenodd" d="M35.8201 145.917L41.9231 150.267L40.5391 151.254L34.436 146.903L35.8201 145.917Z" fill="#8C95E8"/>
<path fill-rule="evenodd" clip-rule="evenodd" d="M41.2551 150.266L47.3581 145.916L48.7422 146.902L42.6391 151.253L41.2551 150.266Z" fill="#8C95E8"/>
<path fill-rule="evenodd" clip-rule="evenodd" d="M42.2722 145.917L48.3753 150.267L46.9912 151.254L40.8882 146.903L42.2722 145.917Z" fill="#8C95E8"/>
<path fill-rule="evenodd" clip-rule="evenodd" d="M47.7072 150.266L53.8103 145.916L55.1943 146.902L49.0913 151.253L47.7072 150.266Z" fill="#8C95E8"/>
<path fill-rule="evenodd" clip-rule="evenodd" d="M48.7244 145.917L54.8274 150.267L53.4434 151.254L47.3403 146.903L48.7244 145.917Z" fill="#8C95E8"/>
<path fill-rule="evenodd" clip-rule="evenodd" d="M54.1584 150.266L60.2615 145.916L61.6455 146.902L55.5425 151.253L54.1584 150.266Z" fill="#8C95E8"/>
<path fill-rule="evenodd" clip-rule="evenodd" d="M55.1756 145.917L61.2786 150.267L59.8945 151.254L53.7915 146.903L55.1756 145.917Z" fill="#8C95E8"/>
<path fill-rule="evenodd" clip-rule="evenodd" d="M60.6115 150.266L66.7146 145.916L68.0986 146.902L61.9956 151.253L60.6115 150.266Z" fill="#8C95E8"/>
<path fill-rule="evenodd" clip-rule="evenodd" d="M61.6287 145.917L67.7317 150.267L66.3477 151.254L60.2446 146.903L61.6287 145.917Z" fill="#8C95E8"/>
<path fill-rule="evenodd" clip-rule="evenodd" d="M67.0627 150.266L73.1657 145.916L74.5498 146.902L68.4468 151.253L67.0627 150.266Z" fill="#8C95E8"/>
<path fill-rule="evenodd" clip-rule="evenodd" d="M68.0798 145.917L74.1829 150.267L72.7988 151.254L66.6958 146.903L68.0798 145.917Z" fill="#8C95E8"/>
<path fill-rule="evenodd" clip-rule="evenodd" d="M73.5158 150.266L79.6189 145.916L81.0029 146.902L74.8999 151.253L73.5158 150.266Z" fill="#8C95E8"/>
<path fill-rule="evenodd" clip-rule="evenodd" d="M74.533 145.917L80.636 150.267L79.252 151.254L73.1489 146.903L74.533 145.917Z" fill="#8C95E8"/>
<path fill-rule="evenodd" clip-rule="evenodd" d="M79.967 150.266L86.07 145.916L87.4541 146.902L81.3511 151.253L79.967 150.266Z" fill="#8C95E8"/>
<path fill-rule="evenodd" clip-rule="evenodd" d="M80.9841 145.917L87.0872 150.267L85.7031 151.254L79.6001 146.903L80.9841 145.917Z" fill="#8C95E8"/>
<path fill-rule="evenodd" clip-rule="evenodd" d="M86.4192 150.266L92.5222 145.916L93.9062 146.902L87.8032 151.253L86.4192 150.266Z" fill="#8C95E8"/>
<path fill-rule="evenodd" clip-rule="evenodd" d="M87.4363 145.917L93.5393 150.267L92.1553 151.254L86.0522 146.903L87.4363 145.917Z" fill="#8C95E8"/>
<path fill-rule="evenodd" clip-rule="evenodd" d="M92.8713 150.266L98.9743 145.916L100.358 146.902L94.2554 151.253L92.8713 150.266Z" fill="#8C95E8"/>
<path fill-rule="evenodd" clip-rule="evenodd" d="M93.8884 145.917L99.9915 150.267L98.6074 151.254L92.5044 146.903L93.8884 145.917Z" fill="#8C95E8"/>
<path fill-rule="evenodd" clip-rule="evenodd" d="M99.3235 150.266L105.426 145.916L106.811 146.902L100.708 151.253L99.3235 150.266Z" fill="#8C95E8"/>
<path fill-rule="evenodd" clip-rule="evenodd" d="M100.341 145.917L106.444 150.267L105.06 151.254L98.9565 146.903L100.341 145.917Z" fill="#8C95E8"/>
<path fill-rule="evenodd" clip-rule="evenodd" d="M105.776 150.266L111.879 145.916L113.263 146.902L107.16 151.253L105.776 150.266Z" fill="#8C95E8"/>
<path fill-rule="evenodd" clip-rule="evenodd" d="M106.793 145.917L112.896 150.267L111.512 151.254L105.409 146.903L106.793 145.917Z" fill="#8C95E8"/>
<path fill-rule="evenodd" clip-rule="evenodd" d="M112.228 150.266L118.331 145.916L119.715 146.902L113.612 151.253L112.228 150.266Z" fill="#8C95E8"/>
<path fill-rule="evenodd" clip-rule="evenodd" d="M113.245 145.917L119.348 150.267L117.964 151.254L111.861 146.903L113.245 145.917Z" fill="#8C95E8"/>
<path fill-rule="evenodd" clip-rule="evenodd" d="M118.68 150.266L124.783 145.916L126.167 146.902L120.064 151.253L118.68 150.266Z" fill="#8C95E8"/>
<path fill-rule="evenodd" clip-rule="evenodd" d="M119.697 145.917L125.8 150.267L124.416 151.254L118.313 146.903L119.697 145.917Z" fill="#8C95E8"/>
<path fill-rule="evenodd" clip-rule="evenodd" d="M125.132 150.266L131.235 145.916L132.619 146.902L126.516 151.253L125.132 150.266Z" fill="#8C95E8"/>
<path fill-rule="evenodd" clip-rule="evenodd" d="M126.149 145.917L132.252 150.267L130.868 151.254L124.765 146.903L126.149 145.917Z" fill="#8C95E8"/>
<path fill-rule="evenodd" clip-rule="evenodd" d="M131.584 150.266L137.687 145.916L139.071 146.902L132.968 151.253L131.584 150.266Z" fill="#8C95E8"/>
<path fill-rule="evenodd" clip-rule="evenodd" d="M132.601 145.917L138.704 150.267L137.32 151.254L131.217 146.903L132.601 145.917Z" fill="#8C95E8"/>
<path fill-rule="evenodd" clip-rule="evenodd" d="M138.036 150.266L144.139 145.916L145.523 146.902L139.42 151.253L138.036 150.266Z" fill="#8C95E8"/>
<path fill-rule="evenodd" clip-rule="evenodd" d="M139.053 145.917L145.157 150.267L143.772 151.254L137.669 146.903L139.053 145.917Z" fill="#8C95E8"/>
<path fill-rule="evenodd" clip-rule="evenodd" d="M144.488 150.266L150.591 145.916L151.975 146.902L145.872 151.253L144.488 150.266Z" fill="#8C95E8"/>
<path fill-rule="evenodd" clip-rule="evenodd" d="M145.505 145.917L151.608 150.267L150.224 151.254L144.121 146.903L145.505 145.917Z" fill="#8C95E8"/>
<path fill-rule="evenodd" clip-rule="evenodd" d="M150.941 150.266L157.044 145.916L158.428 146.902L152.325 151.253L150.941 150.266Z" fill="#8C95E8"/>
<path fill-rule="evenodd" clip-rule="evenodd" d="M151.958 145.917L158.061 150.267L156.677 151.254L150.574 146.903L151.958 145.917Z" fill="#8C95E8"/>
<path fill-rule="evenodd" clip-rule="evenodd" d="M157.392 150.266L163.495 145.916L164.879 146.902L158.776 151.253L157.392 150.266Z" fill="#8C95E8"/>
<path fill-rule="evenodd" clip-rule="evenodd" d="M158.409 145.917L164.512 150.267L163.128 151.254L157.025 146.903L158.409 145.917Z" fill="#8C95E8"/>
<path fill-rule="evenodd" clip-rule="evenodd" d="M163.844 150.266L169.947 145.916L171.331 146.902L165.228 151.253L163.844 150.266Z" fill="#8C95E8"/>
<path fill-rule="evenodd" clip-rule="evenodd" d="M164.861 145.917L170.964 150.267L169.58 151.254L163.477 146.903L164.861 145.917Z" fill="#8C95E8"/>
</g>
<path fill-rule="evenodd" clip-rule="evenodd" d="M99.1788 10.8613L154.567 41.7264L154.464 41.9109L99.1802 11.1039L45.3745 41.9103L45.2695 41.727L99.1788 10.8613Z" fill="black"/>
<path d="M14.0635 147L14.0635 86.6164L125.158 86.6164L125.158 147L14.0635 147Z" fill="#182AD2" fill-opacity="0.12"/>
<path d="M14.0635 86.5938L14.0635 63.7835L125.158 63.7835L125.158 86.5937L14.0635 86.5938Z" fill="#182AD2" fill-opacity="0.2"/>
<path d="M14.0635 63.7832L14.0635 56.8134L125.158 56.8134L125.158 63.7832L14.0635 63.7832Z" fill="#182AD2" fill-opacity="0.1"/>
<path d="M18.499 93.1426H23.9904V140.453H18.499V93.1426Z" fill="#1729D2" fill-opacity="0.2"/>
<path d="M29.2705 93.1426H34.7619V140.453H29.2705V93.1426Z" fill="#1729D2" fill-opacity="0.2"/>
<path d="M40.042 93.1426H45.5333V140.453H40.042V93.1426Z" fill="#1729D2" fill-opacity="0.2"/>
<path d="M50.8135 93.1426H56.3048V140.453H50.8135V93.1426Z" fill="#1729D2" fill-opacity="0.2"/>
<path d="M61.585 93.1426H67.0763V140.453H61.585V93.1426Z" fill="#1729D2" fill-opacity="0.2"/>
<path d="M72.3564 93.1426H77.8478V140.453H72.3564V93.1426Z" fill="#1729D2" fill-opacity="0.2"/>
<path d="M83.1279 93.1426H88.6193V140.453H83.1279V93.1426Z" fill="#1729D2" fill-opacity="0.2"/>
<path d="M93.8994 93.1426H99.3908V140.453H93.8994V93.1426Z" fill="#1729D2" fill-opacity="0.2"/>
<path d="M104.671 93.1426H110.162V140.453H104.671V93.1426Z" fill="#1729D2" fill-opacity="0.2"/>
<path d="M115.442 93.1426H120.934V140.453H115.442V93.1426Z" fill="#1729D2" fill-opacity="0.2"/>
<path d="M18.499 67.5859H23.9904V81.5255H18.499V67.5859Z" fill="#A8ADDF"/>
<path d="M29.2705 67.5859H34.7619V81.5255H29.2705V67.5859Z" fill="#A8ADDF"/>
<path d="M40.042 67.5859H45.5333V81.5255H40.042V67.5859Z" fill="#A8ADDF"/>
<path d="M50.8135 67.5859H56.3048V81.5255H50.8135V67.5859Z" fill="#A8ADDF"/>
<path d="M61.585 67.5859H67.0763V81.5255H61.585V67.5859Z" fill="#A8ADDF"/>
<path d="M72.3564 67.5859H77.8478V81.5255H72.3564V67.5859Z" fill="#A8ADDF"/>
<path d="M83.1279 67.5859H88.6193V81.5255H83.1279V67.5859Z" fill="#A8ADDF"/>
<path d="M93.8994 67.5859H99.3908V81.5255H93.8994V67.5859Z" fill="#A8ADDF"/>
<path d="M104.671 67.5859H110.162V81.5255H104.671V67.5859Z" fill="#A8ADDF"/>
<path d="M115.442 67.5859H120.934V81.5255H115.442V67.5859Z" fill="#A8ADDF"/>
<path d="M44.4775 38.2285H155.572V47.5216H44.4775V38.2285Z" fill="#6973CA"/>
<path d="M48.0664 40.5508H51.2345V45.4085H48.0664V40.5508Z" fill="#5B65BD"/>
<path d="M55.248 40.5508H58.4161V45.4085H55.248V40.5508Z" fill="#5B65BD"/>
<path d="M62.4297 40.5508H65.5978V45.4085H62.4297V40.5508Z" fill="#5B65BD"/>
<path d="M69.6104 40.5508H72.7784V45.4085H69.6104V40.5508Z" fill="#5B65BD"/>
<path d="M76.791 40.5508H79.9591V45.4085H76.791V40.5508Z" fill="#5B65BD"/>
<path d="M83.9727 40.5508H87.1407V45.4085H83.9727V40.5508Z" fill="#5B65BD"/>
<path d="M91.1533 40.5508H94.3214V45.4085H91.1533V40.5508Z" fill="#5B65BD"/>
<path d="M98.335 40.5508H101.503V45.4085H98.335V40.5508Z" fill="#5B65BD"/>
<path d="M105.516 40.5508H108.684V45.4085H105.516V40.5508Z" fill="#5B65BD"/>
<path d="M112.696 40.5508H115.864V45.4085H112.696V40.5508Z" fill="#5B65BD"/>
<path d="M119.877 40.5508H123.045V45.4085H119.877V40.5508Z" fill="#5B65BD"/>
<path d="M127.059 40.5508H130.227V45.4085H127.059V40.5508Z" fill="#5B65BD"/>
<path d="M134.239 40.5508H137.407V45.4085H134.239V40.5508Z" fill="#5B65BD"/>
<path d="M141.42 40.5508H144.588V45.4085H141.42V40.5508Z" fill="#5B65BD"/>
<path d="M148.602 40.5508H151.77V45.4085H148.602V40.5508Z" fill="#5B65BD"/>
<path d="M18.2871 58.293H23.7785V62.5171H18.2871V58.293Z" fill="#ACB0E0"/>
<path d="M29.0586 58.293H34.5499V62.5171H29.0586V58.293Z" fill="#ACB0E0"/>
<path d="M39.8301 58.293H45.3214V62.5171H39.8301V58.293Z" fill="#ACB0E0"/>
<path d="M50.6016 58.293H56.0929V62.5171H50.6016V58.293Z" fill="#ACB0E0"/>
<path d="M61.373 58.293H66.8644V62.5171H61.373V58.293Z" fill="#ACB0E0"/>
<path d="M72.1445 58.293H77.6359V62.5171H72.1445V58.293Z" fill="#ACB0E0"/>
<path d="M82.916 58.293H88.4074V62.5171H82.916V58.293Z" fill="#ACB0E0"/>
<path d="M93.6875 58.293H99.1789V62.5171H93.6875V58.293Z" fill="#ACB0E0"/>
<path d="M104.459 58.293H109.95V62.5171H104.459V58.293Z" fill="#ACB0E0"/>
<path d="M115.23 58.293H120.722V62.5171H115.23V58.293Z" fill="#ACB0E0"/>
<path d="M15.1191 88.4961H17.8648V91.2418H15.1191V88.4961Z" fill="#7980BE"/>
<path d="M120.934 88.4961H123.679V91.2418H120.934V88.4961Z" fill="#7980BE"/>
<path d="M15.1191 142.354H17.8648V145.099H15.1191V142.354Z" fill="#7980BE"/>
<path d="M120.934 142.354H123.679V145.099H120.934V142.354Z" fill="#7980BE"/>
<path d="M15.1191 64.8398H17.8648V67.5855H15.1191V64.8398Z" fill="#7980BE"/>
<path d="M120.934 64.8398H123.679V67.5855H120.934V64.8398Z" fill="#7980BE"/>
<path d="M15.1191 82.793H17.8648V85.5386H15.1191V82.793Z" fill="#7980BE"/>
<path d="M120.934 82.793H123.679V85.5386H120.934V82.793Z" fill="#7980BE"/>
<path d="M14.9072 57.4473H16.3857V58.9257H14.9072V57.4473Z" fill="#7980BE"/>
<path d="M122.833 57.4473H124.311V58.9257H122.833V57.4473Z" fill="#7980BE"/>
<path d="M14.9072 61.6719H16.3857V63.1503H14.9072V61.6719Z" fill="#7980BE"/>
<path d="M122.833 61.6719H124.311V63.1503H122.833V61.6719Z" fill="#7980BE"/>
<path fill-rule="evenodd" clip-rule="evenodd" d="M99.1623 0C99.2969 0 99.406 0.109108 99.406 0.243699V10.1135C99.406 10.2132 99.3453 10.3028 99.2528 10.3398C99.1688 10.3734 99.0136 10.4514 98.8839 10.5685C98.7542 10.6857 98.6749 10.8181 98.6749 10.9665C98.6749 11.15 98.7398 11.2643 98.8207 11.3355C98.9065 11.411 99.0291 11.4539 99.1623 11.4539C99.3684 11.4539 99.4783 11.4025 99.5383 11.3425C99.5983 11.2824 99.6497 11.1726 99.6497 10.9665C99.6497 10.8319 99.7588 10.7228 99.8934 10.7228C100.028 10.7228 100.137 10.8319 100.137 10.9665C100.137 11.2477 100.067 11.5034 99.8829 11.6871C99.6993 11.8708 99.4436 11.9413 99.1623 11.9413C98.93 11.9413 98.687 11.8671 98.4987 11.7013C98.3053 11.5312 98.1875 11.28 98.1875 10.9665C98.1875 10.6275 98.3722 10.3739 98.5573 10.2068C98.6777 10.098 98.8089 10.0157 98.9186 9.95828V0.243699C98.9186 0.109108 99.0277 0 99.1623 0Z" fill="#1629D3"/>
<path d="M97.7002 6.33594H100.868V9.26033H97.7002V6.33594Z" fill="#1629D3"/>
<rect x="96.1914" y="79.7148" width="15.6138" height="65.2104" transform="rotate(-43.1229 96.1914 79.7148)" fill="#9CA5E0"/>
<rect x="142.639" y="70.1914" width="15.6138" height="65.2104" transform="rotate(46.8771 142.639 70.1914)" fill="#9CA5E0"/>
</svg>
