<svg width="24" height="20" viewBox="0 0 24 20" fill="none" xmlns="http://www.w3.org/2000/svg">
<path d="M7.00042 19.981C5.63447 19.8761 4.33658 19.3423 3.29208 18.4559C2.24757 17.5694 1.50986 16.3756 1.18428 15.0449C0.858697 13.7141 0.961891 12.3146 1.47913 11.046C1.99636 9.77741 2.9012 8.7047 4.06442 7.98101C4.31193 6.0511 5.25422 4.27751 6.71494 2.99217C8.17566 1.70682 10.0547 0.997803 12.0004 0.997803C13.9461 0.997803 15.8252 1.70682 17.2859 2.99217C18.7466 4.27751 19.6889 6.0511 19.9364 7.98101C21.0996 8.7047 22.0045 9.77741 22.5217 11.046C23.039 12.3146 23.1421 13.7141 22.8166 15.0449C22.491 16.3756 21.7533 17.5694 20.7088 18.4559C19.6643 19.3423 18.3664 19.8761 17.0004 19.981V20H7.00042V19.981ZM13.0004 11V7.00001H11.0004V11H8.00042L12.0004 16L16.0004 11H13.0004Z" fill="#1627B6"/>
</svg>
