<svg width="23" height="28" viewBox="0 0 23 28" fill="none" xmlns="http://www.w3.org/2000/svg">
<path d="M11.5 3.64434L5.175 10.0232C3.92419 11.2848 3.07241 12.8922 2.72736 14.642C2.38231 16.3918 2.55949 18.2055 3.2365 19.8537C3.91351 21.502 5.05994 22.9108 6.53083 23.9019C8.00172 24.8931 9.731 25.4221 11.5 25.4221C13.269 25.4221 14.9983 24.8931 16.4692 23.9019C17.9401 22.9108 19.0865 21.502 19.7635 19.8537C20.4405 18.2055 20.6177 16.3918 20.2726 14.642C19.9276 12.8922 19.0758 11.2848 17.825 10.0232L11.5 3.64434ZM11.5 0L19.6318 8.20106C21.2401 9.82307 22.3353 11.8896 22.779 14.1394C23.2228 16.3892 22.995 18.7212 22.1246 20.8404C21.2542 22.9597 19.7802 24.771 17.889 26.0454C15.9979 27.3198 13.7745 28 11.5 28C9.22552 28 7.00212 27.3198 5.11096 26.0454C3.2198 24.771 1.74582 22.9597 0.875404 20.8404C0.00499208 18.7212 -0.222754 16.3892 0.220964 14.1394C0.664683 11.8896 1.75994 9.82307 3.36823 8.20106L11.5 0ZM5.11111 16.4021H17.8889C17.8889 18.111 17.2158 19.7499 16.0176 20.9582C14.8195 22.1666 13.1944 22.8454 11.5 22.8454C9.80556 22.8454 8.18052 22.1666 6.98238 20.9582C5.78423 19.7499 5.11111 18.111 5.11111 16.4021Z" fill="#2B77B5"/>
</svg>
