<svg width="1440" height="855" viewBox="0 0 1440 855" fill="none" xmlns="http://www.w3.org/2000/svg">
<mask id="mask0" mask-type="alpha" maskUnits="userSpaceOnUse" x="0" y="0" width="1440" height="855">
<rect width="1440" height="855" fill="#C4C4C4"/>
</mask>
<g mask="url(#mask0)">
<rect x="-31" width="1471" height="855" fill="url(#paint0_linear)"/>
<path d="M-259 334C-215 287.333 -80.6 182 105 134C290.6 86 339.667 -79.3333 341 -156" stroke="url(#paint1_linear)" stroke-width="10"/>
<path d="M-88 450C-44 403.333 90.4 298 276 250C461.6 202 510.667 36.6667 512 -40" stroke="url(#paint2_linear)" stroke-width="20"/>
<path d="M0 738C75.46 658 305.956 477.429 624.26 395.143C942.564 312.857 1026.71 29.4286 1029 -102" stroke="url(#paint3_linear)" stroke-width="20"/>
<path d="M386.064 906.248C459.636 814.703 689.762 602.982 1021.69 488.456C1353.62 373.929 1419.23 65.0993 1410.55 -75" stroke="url(#paint4_linear)" stroke-width="30"/>
<path d="M637.174 1190.83C703.145 1102.9 911.787 897.72 1218.59 780.401C1525.39 663.082 1577.25 372.032 1564.83 241.172" stroke="url(#paint5_linear)" stroke-width="40"/>
<path d="M-259 334C-215 287.333 -80.6 182 105 134C290.6 86 339.667 -79.3333 341 -156" stroke="url(#paint6_linear)" stroke-width="10"/>
<path d="M-88 450C-44 403.333 90.4 298 276 250C461.6 202 510.667 36.6667 512 -40" stroke="url(#paint7_linear)" stroke-width="20"/>
<path d="M0 738C75.46 658 305.956 477.429 624.26 395.143C942.564 312.857 1026.71 29.4286 1029 -102" stroke="url(#paint8_linear)" stroke-width="20"/>
<path d="M386.064 906.248C459.636 814.703 689.762 602.982 1021.69 488.456C1353.62 373.929 1419.23 65.0993 1410.55 -75" stroke="url(#paint9_linear)" stroke-width="30"/>
<path d="M637.174 1190.83C703.145 1102.9 911.787 897.72 1218.59 780.401C1525.39 663.082 1577.25 372.032 1564.83 241.172" stroke="url(#paint10_linear)" stroke-width="40"/>
</g>
<defs>
<linearGradient id="paint0_linear" x1="1189" y1="100" x2="209" y2="772" gradientUnits="userSpaceOnUse">
<stop stop-color="#192BD1"/>
<stop offset="1" stop-color="#1427D2"/>
</linearGradient>
<linearGradient id="paint1_linear" x1="41" y1="-156" x2="41" y2="334" gradientUnits="userSpaceOnUse">
<stop stop-color="#1627B5"/>
<stop offset="1" stop-color="#1627B5" stop-opacity="0"/>
</linearGradient>
<linearGradient id="paint2_linear" x1="212" y1="-40" x2="212" y2="450" gradientUnits="userSpaceOnUse">
<stop offset="0.399436" stop-color="#1627B5"/>
<stop offset="1" stop-color="#1627B5" stop-opacity="0"/>
</linearGradient>
<linearGradient id="paint3_linear" x1="514.5" y1="-102" x2="514.5" y2="738" gradientUnits="userSpaceOnUse">
<stop offset="0.399436" stop-color="#1627B5"/>
<stop offset="1" stop-color="#1627B5" stop-opacity="0"/>
</linearGradient>
<linearGradient id="paint4_linear" x1="862.773" y1="-31.466" x2="933.837" y2="862.715" gradientUnits="userSpaceOnUse">
<stop offset="0.399436" stop-color="#1627B5"/>
<stop offset="1" stop-color="#1627B5" stop-opacity="0"/>
</linearGradient>
<linearGradient id="paint5_linear" x1="1079" y1="486" x2="1011" y2="886" gradientUnits="userSpaceOnUse">
<stop stop-color="#1627B5"/>
<stop offset="1" stop-color="#1627B5" stop-opacity="0"/>
</linearGradient>
<linearGradient id="paint6_linear" x1="41" y1="-156" x2="41" y2="334" gradientUnits="userSpaceOnUse">
<stop stop-color="#1627B5"/>
<stop offset="1" stop-color="#1627B5" stop-opacity="0"/>
</linearGradient>
<linearGradient id="paint7_linear" x1="212" y1="-40" x2="212" y2="450" gradientUnits="userSpaceOnUse">
<stop offset="0.399436" stop-color="#1627B5"/>
<stop offset="1" stop-color="#1627B5" stop-opacity="0"/>
</linearGradient>
<linearGradient id="paint8_linear" x1="514.5" y1="-102" x2="514.5" y2="738" gradientUnits="userSpaceOnUse">
<stop offset="0.399436" stop-color="#1627B5"/>
<stop offset="1" stop-color="#1627B5" stop-opacity="0"/>
</linearGradient>
<linearGradient id="paint9_linear" x1="862.773" y1="-31.466" x2="933.837" y2="862.715" gradientUnits="userSpaceOnUse">
<stop offset="0.399436" stop-color="#1627B5"/>
<stop offset="1" stop-color="#1627B5" stop-opacity="0"/>
</linearGradient>
<linearGradient id="paint10_linear" x1="1079" y1="486" x2="1011" y2="886" gradientUnits="userSpaceOnUse">
<stop stop-color="#1627B5"/>
<stop offset="1" stop-color="#1627B5" stop-opacity="0"/>
</linearGradient>
</defs>
</svg>
