<svg width="21" height="21" viewBox="0 0 21 21" fill="none" xmlns="http://www.w3.org/2000/svg">
<path d="M10.4997 20.9166C4.74655 20.9166 0.0830078 16.2531 0.0830078 10.5C0.0830078 4.74686 4.74655 0.083313 10.4997 0.083313C16.2528 0.083313 20.9163 4.74686 20.9163 10.5C20.9163 16.2531 16.2528 20.9166 10.4997 20.9166ZM10.4997 18.8333C12.7098 18.8333 14.8294 17.9553 16.3922 16.3925C17.955 14.8297 18.833 12.7101 18.833 10.5C18.833 8.28984 17.955 6.17023 16.3922 4.60742C14.8294 3.04462 12.7098 2.16665 10.4997 2.16665C8.28954 2.16665 6.16992 3.04462 4.60712 4.60742C3.04432 6.17023 2.16634 8.28984 2.16634 10.5C2.16634 12.7101 3.04432 14.8297 4.60712 16.3925C6.16992 17.9553 8.28954 18.8333 10.4997 18.8333ZM9.45801 13.625H11.5413V15.7083H9.45801V13.625ZM11.5413 11.9114V12.5833H9.45801V11.0208C9.45801 10.7445 9.56776 10.4796 9.76311 10.2842C9.95846 10.0889 10.2234 9.97915 10.4997 9.97915C10.7956 9.97913 11.0854 9.89508 11.3354 9.73678C11.5854 9.57848 11.7854 9.35244 11.9119 9.08496C12.0385 8.81748 12.0865 8.51956 12.0504 8.22586C12.0143 7.93216 11.8955 7.65476 11.7078 7.42593C11.5202 7.1971 11.2715 7.02626 10.9905 6.93328C10.7096 6.8403 10.408 6.82901 10.121 6.90071C9.83386 6.97242 9.57302 7.12418 9.36881 7.33833C9.16459 7.55248 9.02538 7.82022 8.96738 8.1104L6.92363 7.70102C7.05033 7.06778 7.34291 6.47953 7.77147 5.99642C8.20002 5.51332 8.74917 5.15267 9.36279 4.95135C9.97641 4.75004 10.6325 4.71528 11.2639 4.85062C11.8954 4.98596 12.4796 5.28656 12.9568 5.72167C13.434 6.15679 13.7871 6.71082 13.98 7.32713C14.1729 7.94344 14.1987 8.59992 14.0547 9.22947C13.9108 9.85901 13.6022 10.439 13.1606 10.9103C12.719 11.3815 12.1602 11.727 11.5413 11.9114Z" fill="#827F98"/>
</svg>
