<svg width="205" height="226" viewBox="0 0 205 226" fill="none" xmlns="http://www.w3.org/2000/svg">
<path d="M0 221.57H201.579V226H0V221.57Z" fill="#7980BE"/>
<mask id="mask0" mask-type="alpha" maskUnits="userSpaceOnUse" x="0" y="221" width="202" height="5">
<path d="M0 221.57H201.579V226H0V221.57Z" fill="#C4C4C4"/>
</mask>
<g mask="url(#mask0)">
<path fill-rule="evenodd" clip-rule="evenodd" d="M3.0871 226.384L10.4917 220.119L12.1709 221.54L4.76632 227.804L3.0871 226.384Z" fill="#8C95E8"/>
<path fill-rule="evenodd" clip-rule="evenodd" d="M4.32249 220.119L11.7271 226.383L10.0479 227.804L2.64327 221.54L4.32249 220.119Z" fill="#8C95E8"/>
<path fill-rule="evenodd" clip-rule="evenodd" d="M10.9113 226.384L18.3159 220.119L19.9951 221.54L12.5905 227.804L10.9113 226.384Z" fill="#8C95E8"/>
<path fill-rule="evenodd" clip-rule="evenodd" d="M12.1467 220.119L19.5513 226.383L17.8721 227.804L10.4675 221.54L12.1467 220.119Z" fill="#8C95E8"/>
<path fill-rule="evenodd" clip-rule="evenodd" d="M18.7385 226.384L26.143 220.119L27.8223 221.54L20.4177 227.804L18.7385 226.384Z" fill="#8C95E8"/>
<path fill-rule="evenodd" clip-rule="evenodd" d="M19.9739 220.119L27.3784 226.383L25.6992 227.804L18.2946 221.54L19.9739 220.119Z" fill="#8C95E8"/>
<path fill-rule="evenodd" clip-rule="evenodd" d="M26.5685 226.384L33.9731 220.119L35.6523 221.54L28.2478 227.804L26.5685 226.384Z" fill="#8C95E8"/>
<path fill-rule="evenodd" clip-rule="evenodd" d="M27.8039 220.119L35.2085 226.383L33.5293 227.804L26.1247 221.54L27.8039 220.119Z" fill="#8C95E8"/>
<path fill-rule="evenodd" clip-rule="evenodd" d="M34.3996 226.384L41.8042 220.119L43.4834 221.54L36.0788 227.804L34.3996 226.384Z" fill="#8C95E8"/>
<path fill-rule="evenodd" clip-rule="evenodd" d="M35.635 220.119L43.0396 226.383L41.3604 227.804L33.9558 221.54L35.635 220.119Z" fill="#8C95E8"/>
<path fill-rule="evenodd" clip-rule="evenodd" d="M42.2219 226.384L49.6264 220.119L51.3057 221.54L43.9011 227.804L42.2219 226.384Z" fill="#8C95E8"/>
<path fill-rule="evenodd" clip-rule="evenodd" d="M43.4573 220.119L50.8618 226.383L49.1826 227.804L41.778 221.54L43.4573 220.119Z" fill="#8C95E8"/>
<path fill-rule="evenodd" clip-rule="evenodd" d="M50.051 226.384L57.4555 220.119L59.1348 221.54L51.7302 227.804L50.051 226.384Z" fill="#8C95E8"/>
<path fill-rule="evenodd" clip-rule="evenodd" d="M51.2864 220.119L58.6909 226.383L57.0117 227.804L49.6071 221.54L51.2864 220.119Z" fill="#8C95E8"/>
<path fill-rule="evenodd" clip-rule="evenodd" d="M57.882 226.384L65.2866 220.119L66.9658 221.54L59.5612 227.804L57.882 226.384Z" fill="#8C95E8"/>
<path fill-rule="evenodd" clip-rule="evenodd" d="M59.1174 220.119L66.522 226.383L64.8428 227.804L57.4382 221.54L59.1174 220.119Z" fill="#8C95E8"/>
<path fill-rule="evenodd" clip-rule="evenodd" d="M65.7101 226.384L73.1147 220.119L74.7939 221.54L67.3894 227.804L65.7101 226.384Z" fill="#8C95E8"/>
<path fill-rule="evenodd" clip-rule="evenodd" d="M66.9455 220.119L74.3501 226.383L72.6709 227.804L65.2663 221.54L66.9455 220.119Z" fill="#8C95E8"/>
<path fill-rule="evenodd" clip-rule="evenodd" d="M73.5422 226.384L80.9468 220.119L82.626 221.54L75.2214 227.804L73.5422 226.384Z" fill="#8C95E8"/>
<path fill-rule="evenodd" clip-rule="evenodd" d="M74.7776 220.119L82.1822 226.383L80.5029 227.804L73.0983 221.54L74.7776 220.119Z" fill="#8C95E8"/>
<path fill-rule="evenodd" clip-rule="evenodd" d="M81.3644 226.383L88.769 220.118L90.4482 221.539L83.0437 227.803L81.3644 226.383Z" fill="#8C95E8"/>
<path fill-rule="evenodd" clip-rule="evenodd" d="M82.5969 220.119L90.0015 226.383L88.3223 227.804L80.9177 221.54L82.5969 220.119Z" fill="#8C95E8"/>
<path fill-rule="evenodd" clip-rule="evenodd" d="M89.1935 226.384L96.5981 220.119L98.2773 221.54L90.8728 227.804L89.1935 226.384Z" fill="#8C95E8"/>
<path fill-rule="evenodd" clip-rule="evenodd" d="M90.4289 220.119L97.8335 226.383L96.1543 227.804L88.7497 221.54L90.4289 220.119Z" fill="#8C95E8"/>
<path fill-rule="evenodd" clip-rule="evenodd" d="M97.0226 226.384L104.427 220.119L106.106 221.54L98.7019 227.804L97.0226 226.384Z" fill="#8C95E8"/>
<path fill-rule="evenodd" clip-rule="evenodd" d="M98.258 220.119L105.663 226.383L103.983 227.804L96.5788 221.54L98.258 220.119Z" fill="#8C95E8"/>
<path fill-rule="evenodd" clip-rule="evenodd" d="M104.855 226.384L112.259 220.119L113.938 221.54L106.534 227.804L104.855 226.384Z" fill="#8C95E8"/>
<path fill-rule="evenodd" clip-rule="evenodd" d="M106.09 220.119L113.495 226.383L111.815 227.804L104.411 221.54L106.09 220.119Z" fill="#8C95E8"/>
<path fill-rule="evenodd" clip-rule="evenodd" d="M112.675 226.384L120.08 220.119L121.759 221.54L114.354 227.804L112.675 226.384Z" fill="#8C95E8"/>
<path fill-rule="evenodd" clip-rule="evenodd" d="M113.91 220.119L121.315 226.383L119.636 227.804L112.231 221.54L113.91 220.119Z" fill="#8C95E8"/>
<path fill-rule="evenodd" clip-rule="evenodd" d="M120.506 226.384L127.911 220.119L129.59 221.54L122.185 227.804L120.506 226.384Z" fill="#8C95E8"/>
<path fill-rule="evenodd" clip-rule="evenodd" d="M121.741 220.119L129.146 226.383L127.467 227.804L120.062 221.54L121.741 220.119Z" fill="#8C95E8"/>
<path fill-rule="evenodd" clip-rule="evenodd" d="M128.336 226.384L135.741 220.119L137.42 221.54L130.015 227.804L128.336 226.384Z" fill="#8C95E8"/>
<path fill-rule="evenodd" clip-rule="evenodd" d="M129.572 220.119L136.976 226.383L135.297 227.804L127.892 221.54L129.572 220.119Z" fill="#8C95E8"/>
<path fill-rule="evenodd" clip-rule="evenodd" d="M136.165 226.384L143.57 220.119L145.249 221.54L137.844 227.804L136.165 226.384Z" fill="#8C95E8"/>
<path fill-rule="evenodd" clip-rule="evenodd" d="M137.401 220.119L144.805 226.383L143.126 227.804L135.721 221.54L137.401 220.119Z" fill="#8C95E8"/>
<path fill-rule="evenodd" clip-rule="evenodd" d="M143.987 226.384L151.392 220.119L153.071 221.54L145.667 227.804L143.987 226.384Z" fill="#8C95E8"/>
<path fill-rule="evenodd" clip-rule="evenodd" d="M145.223 220.119L152.627 226.383L150.948 227.804L143.544 221.54L145.223 220.119Z" fill="#8C95E8"/>
<path fill-rule="evenodd" clip-rule="evenodd" d="M151.817 226.384L159.221 220.119L160.9 221.54L153.496 227.804L151.817 226.384Z" fill="#8C95E8"/>
<path fill-rule="evenodd" clip-rule="evenodd" d="M153.052 220.119L160.457 226.383L158.777 227.804L151.373 221.54L153.052 220.119Z" fill="#8C95E8"/>
<path fill-rule="evenodd" clip-rule="evenodd" d="M159.645 226.384L167.049 220.119L168.729 221.54L161.324 227.804L159.645 226.384Z" fill="#8C95E8"/>
<path fill-rule="evenodd" clip-rule="evenodd" d="M160.88 220.119L168.285 226.383L166.605 227.804L159.201 221.54L160.88 220.119Z" fill="#8C95E8"/>
<path fill-rule="evenodd" clip-rule="evenodd" d="M167.477 226.384L174.881 220.119L176.561 221.54L169.156 227.804L167.477 226.384Z" fill="#8C95E8"/>
<path fill-rule="evenodd" clip-rule="evenodd" d="M168.712 220.119L176.117 226.383L174.438 227.804L167.033 221.54L168.712 220.119Z" fill="#8C95E8"/>
<path fill-rule="evenodd" clip-rule="evenodd" d="M175.297 226.384L182.702 220.119L184.381 221.54L176.976 227.804L175.297 226.384Z" fill="#8C95E8"/>
<path fill-rule="evenodd" clip-rule="evenodd" d="M176.532 220.119L183.937 226.383L182.258 227.804L174.853 221.54L176.532 220.119Z" fill="#8C95E8"/>
<path fill-rule="evenodd" clip-rule="evenodd" d="M183.128 226.384L190.533 220.119L192.212 221.54L184.807 227.804L183.128 226.384Z" fill="#8C95E8"/>
<path fill-rule="evenodd" clip-rule="evenodd" d="M184.364 220.119L191.768 226.383L190.089 227.804L182.684 221.54L184.364 220.119Z" fill="#8C95E8"/>
<path fill-rule="evenodd" clip-rule="evenodd" d="M190.957 226.384L198.362 220.119L200.041 221.54L192.636 227.804L190.957 226.384Z" fill="#8C95E8"/>
<path fill-rule="evenodd" clip-rule="evenodd" d="M192.193 220.119L199.597 226.383L197.918 227.804L190.513 221.54L192.193 220.119Z" fill="#8C95E8"/>
<path fill-rule="evenodd" clip-rule="evenodd" d="M198.789 226.384L206.194 220.119L207.873 221.54L200.468 227.804L198.789 226.384Z" fill="#8C95E8"/>
<path fill-rule="evenodd" clip-rule="evenodd" d="M200.025 220.119L207.429 226.383L205.75 227.804L198.345 221.54L200.025 220.119Z" fill="#8C95E8"/>
</g>
<path fill-rule="evenodd" clip-rule="evenodd" d="M121.634 15.7472L203.601 55.9537L203.467 56.2267L121.654 16.0959L46.6098 64.4464L46.4451 64.1907L121.634 15.7472Z" fill="black"/>
<path d="M20.25 221.678L20.25 134.734L180.21 134.734L180.21 221.678L20.25 221.678Z" fill="#182AD2" fill-opacity="0.12"/>
<path d="M20.25 134.703L20.25 101.86L180.21 101.86L180.21 134.703L20.25 134.703Z" fill="#182AD2" fill-opacity="0.2"/>
<path d="M20.25 101.86L20.25 91.8249L180.21 91.8249L180.21 101.86L20.25 101.86Z" fill="#182AD2" fill-opacity="0.1"/>
<path d="M26.6367 144.132H34.5435V212.251H26.6367V144.132Z" fill="#1729D2" fill-opacity="0.2"/>
<path d="M42.1465 144.132H50.0532V212.251H42.1465V144.132Z" fill="#1729D2" fill-opacity="0.2"/>
<path d="M57.6553 144.132H65.562V212.251H57.6553V144.132Z" fill="#1729D2" fill-opacity="0.2"/>
<path d="M73.165 144.132H81.0718V212.251H73.165V144.132Z" fill="#1729D2" fill-opacity="0.2"/>
<path d="M88.6738 144.132H96.5806V212.251H88.6738V144.132Z" fill="#1729D2" fill-opacity="0.2"/>
<path d="M104.184 144.132H112.09V212.251H104.184V144.132Z" fill="#1729D2" fill-opacity="0.2"/>
<path d="M119.693 144.132H127.6V212.251H119.693V144.132Z" fill="#1729D2" fill-opacity="0.2"/>
<path d="M135.202 144.132H143.109V212.251H135.202V144.132Z" fill="#1729D2" fill-opacity="0.2"/>
<path d="M150.712 144.132H158.619V212.251H150.712V144.132Z" fill="#1729D2" fill-opacity="0.2"/>
<path d="M166.221 144.132H174.127V212.251H166.221V144.132Z" fill="#1729D2" fill-opacity="0.2"/>
<path d="M26.6367 107.337H34.5435V127.408H26.6367V107.337Z" fill="#A8ADDF"/>
<path d="M42.1465 107.335H50.0532V127.406H42.1465V107.335Z" fill="#A8ADDF"/>
<path d="M57.6553 107.335H65.562V127.406H57.6553V107.335Z" fill="#A8ADDF"/>
<path d="M73.165 107.335H81.0718V127.406H73.165V107.335Z" fill="#A8ADDF"/>
<path d="M88.6738 107.335H96.5806V127.406H88.6738V107.335Z" fill="#A8ADDF"/>
<path d="M104.184 107.335H112.09V127.406H104.184V107.335Z" fill="#A8ADDF"/>
<path d="M119.693 107.335H127.6V127.406H119.693V107.335Z" fill="#A8ADDF"/>
<path d="M135.202 107.335H143.109V127.406H135.202V107.335Z" fill="#A8ADDF"/>
<path d="M150.712 107.335H158.619V127.406H150.712V107.335Z" fill="#A8ADDF"/>
<path d="M166.221 107.335H174.127V127.406H166.221V107.335Z" fill="#A8ADDF"/>
<path d="M43.8018 59.2588L203.542 50.8872L204.242 64.2495L44.502 72.6211L43.8018 59.2588Z" fill="#6973CA"/>
<path d="M49.1367 62.3271L53.692 62.0884L54.0581 69.0733L49.5028 69.312L49.1367 62.3271Z" fill="#5B65BD"/>
<path d="M59.4629 61.7861L64.0182 61.5474L64.3843 68.5322L59.829 68.771L59.4629 61.7861Z" fill="#5B65BD"/>
<path d="M69.7891 61.2451L74.3444 61.0064L74.7105 67.9912L70.1551 68.23L69.7891 61.2451Z" fill="#5B65BD"/>
<path d="M80.1143 60.7041L84.6696 60.4654L85.0356 67.4502L80.4803 67.6889L80.1143 60.7041Z" fill="#5B65BD"/>
<path d="M90.4385 60.1631L94.9938 59.9244L95.3599 66.9092L90.8045 67.1479L90.4385 60.1631Z" fill="#5B65BD"/>
<path d="M100.766 59.6211L105.321 59.3824L105.687 66.3672L101.132 66.6059L100.766 59.6211Z" fill="#5B65BD"/>
<path d="M111.09 59.0801L115.645 58.8413L116.011 65.8262L111.456 66.0649L111.09 59.0801Z" fill="#5B65BD"/>
<path d="M121.416 58.5391L125.971 58.3003L126.337 65.2852L121.782 65.5239L121.416 58.5391Z" fill="#5B65BD"/>
<path d="M131.741 57.998L136.297 57.7593L136.663 64.7442L132.107 64.9829L131.741 57.998Z" fill="#5B65BD"/>
<path d="M142.066 57.457L146.622 57.2183L146.988 64.2031L142.432 64.4419L142.066 57.457Z" fill="#5B65BD"/>
<path d="M152.392 56.916L156.947 56.6773L157.313 63.6621L152.758 63.9009L152.392 56.916Z" fill="#5B65BD"/>
<path d="M162.718 56.375L167.273 56.1363L167.639 63.1211L163.084 63.3598L162.718 56.375Z" fill="#5B65BD"/>
<path d="M173.042 55.834L177.597 55.5952L177.963 62.5801L173.408 62.8188L173.042 55.834Z" fill="#5B65BD"/>
<path d="M183.367 55.292L187.923 55.0533L188.289 62.0381L183.733 62.2768L183.367 55.292Z" fill="#5B65BD"/>
<path d="M193.693 54.751L198.249 54.5122L198.615 61.4971L194.059 61.7358L193.693 54.751Z" fill="#5B65BD"/>
<path d="M26.3311 93.9541H34.2378V100.036H26.3311V93.9541Z" fill="#ACB0E0"/>
<path d="M41.8398 93.9541H49.7466V100.036H41.8398V93.9541Z" fill="#ACB0E0"/>
<path d="M57.3496 93.9541H65.2564V100.036H57.3496V93.9541Z" fill="#ACB0E0"/>
<path d="M72.8584 93.9541H80.7651V100.036H72.8584V93.9541Z" fill="#ACB0E0"/>
<path d="M88.3682 93.9541H96.2749V100.036H88.3682V93.9541Z" fill="#ACB0E0"/>
<path d="M103.878 93.9541H111.785V100.036H103.878V93.9541Z" fill="#ACB0E0"/>
<path d="M119.387 93.9541H127.293V100.036H119.387V93.9541Z" fill="#ACB0E0"/>
<path d="M134.896 93.9541H142.803V100.036H134.896V93.9541Z" fill="#ACB0E0"/>
<path d="M150.405 93.9541H158.312V100.036H150.405V93.9541Z" fill="#ACB0E0"/>
<path d="M165.915 93.9541H173.822V100.036H165.915V93.9541Z" fill="#ACB0E0"/>
<path d="M21.7695 137.442H25.7229V141.396H21.7695V137.442Z" fill="#7980BE"/>
<path d="M174.127 137.442H178.08V141.396H174.127V137.442Z" fill="#7980BE"/>
<path d="M21.7695 214.99H25.7229V218.944H21.7695V214.99Z" fill="#7980BE"/>
<path d="M174.127 214.99H178.08V218.944H174.127V214.99Z" fill="#7980BE"/>
<path d="M21.7695 103.381H25.7229V107.334H21.7695V103.381Z" fill="#7980BE"/>
<path d="M174.127 103.381H178.08V107.334H174.127V103.381Z" fill="#7980BE"/>
<path d="M21.7695 129.229H25.7229V133.183H21.7695V129.229Z" fill="#7980BE"/>
<path d="M174.127 129.229H178.08V133.183H174.127V129.229Z" fill="#7980BE"/>
<path d="M21.4648 92.7383H23.5936V94.867H21.4648V92.7383Z" fill="#7980BE"/>
<path d="M176.862 92.7373H178.991V94.866H176.862V92.7373Z" fill="#7980BE"/>
<path d="M21.4648 98.8203H23.5936V100.949H21.4648V98.8203Z" fill="#7980BE"/>
<path d="M176.862 98.8203H178.991V100.949H176.862V98.8203Z" fill="#7980BE"/>
<path fill-rule="evenodd" clip-rule="evenodd" d="M120.78 0.0205078C120.973 0.0205078 121.13 0.177607 121.13 0.371399V14.5825C121.13 14.726 121.043 14.855 120.91 14.9083C120.789 14.9567 120.565 15.069 120.379 15.2376C120.192 15.4064 120.078 15.5969 120.078 15.8106C120.078 16.0749 120.171 16.2395 120.288 16.3419C120.411 16.4506 120.588 16.5124 120.78 16.5124C121.076 16.5124 121.234 16.4384 121.321 16.352C121.407 16.2656 121.481 16.1074 121.481 15.8106C121.481 15.6168 121.638 15.4597 121.832 15.4597C122.026 15.4597 122.183 15.6168 122.183 15.8106C122.183 16.2156 122.082 16.5838 121.817 16.8482C121.553 17.1127 121.185 17.2142 120.78 17.2142C120.445 17.2142 120.095 17.1074 119.824 16.8687C119.546 16.6237 119.376 16.262 119.376 15.8106C119.376 15.3225 119.642 14.9575 119.908 14.7168C120.082 14.5602 120.271 14.4416 120.429 14.359V0.371399C120.429 0.177607 120.586 0.0205078 120.78 0.0205078Z" fill="#1629D3"/>
<path d="M118.675 9.14355H123.236V13.3542H118.675V9.14355Z" fill="#1629D3"/>
</svg>
