<svg width="322" height="302" viewBox="0 0 322 302" fill="none" xmlns="http://www.w3.org/2000/svg">
<mask id="mask0" mask-type="alpha" maskUnits="userSpaceOnUse" x="19" y="112" width="256" height="190">
<path d="M98.0684 168.224L19 302H275L212.134 199.891L207.597 211.524L149.268 112L105.846 180.503L98.0684 168.224Z" fill="url(#paint0_linear)"/>
</mask>
<g mask="url(#mask0)">
<rect x="-51" y="177" width="341" height="2" fill="#1729D2" fill-opacity="0.2"/>
<rect x="-51" y="261" width="341" height="2" fill="#1729D2" fill-opacity="0.2"/>
<rect x="-51" y="181" width="341" height="2" fill="#1729D2" fill-opacity="0.2"/>
<rect x="-51" y="265" width="341" height="2" fill="#1729D2" fill-opacity="0.2"/>
<rect x="-51" y="185" width="341" height="2" fill="#1729D2" fill-opacity="0.2"/>
<rect x="-51" y="269" width="341" height="2" fill="#1729D2" fill-opacity="0.2"/>
<rect x="-51" y="189" width="341" height="2" fill="#1729D2" fill-opacity="0.2"/>
<rect x="-51" y="273" width="341" height="2" fill="#1729D2" fill-opacity="0.2"/>
<rect x="-51" y="193" width="341" height="2" fill="#1729D2" fill-opacity="0.2"/>
<rect x="-51" y="277" width="341" height="2" fill="#1729D2" fill-opacity="0.2"/>
<rect x="-51" y="113" width="341" height="2" fill="#1729D2" fill-opacity="0.2"/>
<rect x="-51" y="197" width="341" height="2" fill="#1729D2" fill-opacity="0.2"/>
<rect x="-51" y="281" width="341" height="2" fill="#1729D2" fill-opacity="0.2"/>
<rect x="-51" y="117" width="341" height="2" fill="#1729D2" fill-opacity="0.2"/>
<rect x="-51" y="201" width="341" height="2" fill="#1729D2" fill-opacity="0.2"/>
<rect x="-51" y="285" width="341" height="2" fill="#1729D2" fill-opacity="0.2"/>
<rect x="-51" y="121" width="341" height="2" fill="#1729D2" fill-opacity="0.2"/>
<rect x="-51" y="205" width="341" height="2" fill="#1729D2" fill-opacity="0.2"/>
<rect x="-51" y="289" width="341" height="2" fill="#1729D2" fill-opacity="0.2"/>
<rect x="-51" y="125" width="341" height="2" fill="#1729D2" fill-opacity="0.2"/>
<rect x="-51" y="209" width="341" height="2" fill="#1729D2" fill-opacity="0.2"/>
<rect x="-51" y="293" width="341" height="2" fill="#1729D2" fill-opacity="0.2"/>
<rect x="-51" y="129" width="341" height="2" fill="#1729D2" fill-opacity="0.2"/>
<rect x="-51" y="213" width="341" height="2" fill="#1729D2" fill-opacity="0.2"/>
<rect x="-51" y="297" width="341" height="2" fill="#1729D2" fill-opacity="0.2"/>
<rect x="-51" y="133" width="341" height="2" fill="#1729D2" fill-opacity="0.2"/>
<rect x="-51" y="217" width="341" height="2" fill="#1729D2" fill-opacity="0.2"/>
<rect x="-51" y="301" width="341" height="2" fill="#1729D2" fill-opacity="0.2"/>
<rect x="-51" y="137" width="341" height="2" fill="#1729D2" fill-opacity="0.2"/>
<rect x="-51" y="221" width="341" height="2" fill="#1729D2" fill-opacity="0.2"/>
<rect x="-51" y="141" width="341" height="2" fill="#1729D2" fill-opacity="0.2"/>
<rect x="-51" y="225" width="341" height="2" fill="#1729D2" fill-opacity="0.2"/>
<rect x="-51" y="145" width="341" height="2" fill="#1729D2" fill-opacity="0.2"/>
<rect x="-51" y="229" width="341" height="2" fill="#1729D2" fill-opacity="0.2"/>
<rect x="-51" y="149" width="341" height="2" fill="#1729D2" fill-opacity="0.2"/>
<rect x="-51" y="233" width="341" height="2" fill="#1729D2" fill-opacity="0.2"/>
<rect x="-51" y="153" width="341" height="2" fill="#1729D2" fill-opacity="0.2"/>
<rect x="-51" y="237" width="341" height="2" fill="#1729D2" fill-opacity="0.2"/>
<rect x="-51" y="157" width="341" height="2" fill="#1729D2" fill-opacity="0.2"/>
<rect x="-51" y="241" width="341" height="2" fill="#1729D2" fill-opacity="0.2"/>
<rect x="-51" y="161" width="341" height="2" fill="#1729D2" fill-opacity="0.2"/>
<rect x="-51" y="245" width="341" height="2" fill="#1729D2" fill-opacity="0.2"/>
<rect x="-51" y="165" width="341" height="2" fill="#1729D2" fill-opacity="0.2"/>
<rect x="-51" y="249" width="341" height="2" fill="#1729D2" fill-opacity="0.2"/>
<rect x="-51" y="169" width="341" height="2" fill="#1729D2" fill-opacity="0.2"/>
<rect x="-51" y="253" width="341" height="2" fill="#1729D2" fill-opacity="0.2"/>
<rect x="-51" y="173" width="341" height="2" fill="#1729D2" fill-opacity="0.2"/>
<rect x="-51" y="257" width="341" height="2" fill="#1729D2" fill-opacity="0.2"/>
<rect x="-125" y="285.471" width="191" height="291.517" transform="rotate(-31.3853 -125 285.471)" fill="#182AD2" fill-opacity="0.15"/>
<rect x="41" y="191.333" width="85.1256" height="291.517" transform="rotate(-31.3853 41 191.333)" fill="#182AD2" fill-opacity="0.1"/>
</g>
<path d="M154 201C154 205.971 150.194 210 145.5 210C140.806 210 137 205.971 137 201C137 196.029 140.806 192 145.5 192C150.194 192 154 196.029 154 201Z" fill="#8C95E8"/>
<path d="M137.665 226.547H121V232.295L140.895 234.662L147.697 227.392L150.758 232.295L138.855 242.1L140.895 245.819L153.479 238.888L156.03 243.791L142.256 247.679L130.012 276.418L138.855 280.307L149.568 255.286L157.73 253.089L156.88 294H166.232L167.253 249.708C172.422 247.273 172.354 242.72 171.674 240.748L159.431 215.39C155.622 211.062 150.475 213.586 148.378 215.39L137.665 226.547Z" fill="#7980BE"/>
<mask id="mask1" mask-type="alpha" maskUnits="userSpaceOnUse" x="0" y="130" width="93" height="137">
<path d="M92.5 178.5L39.5 267L0 200L66.5 130.5L92.5 178.5Z" fill="#C4C4C4"/>
</mask>
<g mask="url(#mask1)">
<path d="M55 171C55 175.971 58.8056 180 63.5 180C68.1944 180 72 175.971 72 171C72 166.029 68.1944 162 63.5 162C58.8056 162 55 166.029 55 171Z" fill="#8C95E8"/>
<path d="M71.3354 196.547H88V202.295L68.1045 204.662L61.3027 197.392L58.2418 202.295L70.1451 212.1L68.1045 215.819L55.5211 208.888L52.9704 213.791L66.7442 217.679L78.9875 246.418L70.1451 250.307L59.4322 225.286L51.2699 223.089L52.1202 264H42.7676L41.7473 219.708C36.5779 217.273 36.6459 212.72 37.3261 210.748L49.5695 185.39C53.3785 181.062 58.5252 183.586 60.6225 185.39L71.3354 196.547Z" fill="#7980BE"/>
</g>
<circle cx="137.975" cy="59.7201" r="7.72013" fill="#8C95E8"/>
<path d="M125.74 84.4828L129.964 94.6792L126.905 96.8641L117 82.4435L128.944 74.5777C136.227 69.7709 138.121 69.7709 140.16 69.7709C141.792 69.7709 151.911 76.18 156.766 79.3846L169.584 65.5466L172.498 68.3142L158.368 88.5614L147.589 81.2782V99.6317L153.707 109.1L154.727 137.358L145.696 134.154V112.159L139.286 107.061L137.393 147H128.944L130.692 101.088V81.2782L125.74 84.4828Z" fill="#7980BE"/>
<path d="M211.005 59.9874C190.411 46.3542 173.61 47.8593 167.179 51.1669L173.794 2.65453C194.742 -5.06336 212.108 5.87031 218.172 12.3019C234.931 18.6967 248.125 14.9664 252.627 12.3019L245.184 59.9874C250.697 56.4041 230.576 72.9425 211.005 59.9874Z" fill="url(#paint1_linear)"/>
<rect x="173.764" y="2.65454" width="2.75639" height="129.442" transform="rotate(8.78254 173.764 2.65454)" fill="url(#paint2_linear)"/>
<circle cx="216.709" cy="146.732" r="7.73163" fill="#8C95E8"/>
<path d="M205.182 165.99L191.827 161.914L190 165.99L205.182 173.019L212.773 168.24L213.617 173.019L201.527 178.22L203.073 182.157L214.601 179.204L215.444 185.811L205.182 189.607L197.45 214.77L205.182 218.284L211.649 195.652L218.115 193.403L220.927 227L229.22 226.157L226.128 189.607C228.602 187.92 228.564 185.062 228.236 183.843L224.863 161.914C222.951 156.853 218.256 157.65 216.147 158.68L205.182 165.99Z" fill="#7980BE"/>
<circle cx="272.741" cy="227.543" r="7.54344" fill="#8C95E8"/>
<path d="M268.69 249.894L255 251.431V255.203L271.624 256.46L276.932 249.056L285.453 262.886L273.3 299.486L281.402 302L291.6 269.451L294.394 280.487L318.281 291.523L321.634 283.98L301.099 274.76L296.908 257.438L288.387 243.608H294.394L304.032 253.806L307.106 251.431L297.886 237.043C294.114 236.996 285.537 236.931 281.402 237.043C277.267 237.154 275.395 239.79 274.976 241.094L268.69 249.894Z" fill="#7980BE"/>
<defs>
<linearGradient id="paint0_linear" x1="231.318" y1="134.222" x2="36.6984" y2="238.735" gradientUnits="userSpaceOnUse">
<stop stop-color="#192BD1"/>
<stop offset="1" stop-color="#1427D2"/>
</linearGradient>
<linearGradient id="paint1_linear" x1="238.046" y1="7.60552" x2="172.368" y2="42.0032" gradientUnits="userSpaceOnUse">
<stop stop-color="#192BD1"/>
<stop offset="1" stop-color="#1427D2"/>
</linearGradient>
<linearGradient id="paint2_linear" x1="176.05" y1="17.794" x2="173.35" y2="17.8169" gradientUnits="userSpaceOnUse">
<stop stop-color="#192BD1"/>
<stop offset="1" stop-color="#1427D2"/>
</linearGradient>
</defs>
</svg>
