<svg width="478" height="353" viewBox="0 0 478 353" fill="none" xmlns="http://www.w3.org/2000/svg">
<circle cx="321.709" cy="265.732" r="7.73163" fill="#8C95E8"/>
<path d="M310.182 284.991L296.827 280.914L295 284.991L310.182 292.019L317.773 287.24L318.617 292.019L306.527 297.221L308.073 301.157L319.601 298.205L320.444 304.812L312.712 312.403V349H320.444V320L323.115 312.403L325.927 346L334.22 345.157L331.128 308.607C333.602 306.92 333.564 304.062 333.236 302.844L329.863 280.914C327.951 275.853 323.256 276.65 321.147 277.681L310.182 284.991Z" fill="#7980BE"/>
<circle r="7.72013" transform="matrix(-1 0 0 1 413.522 265.72)" fill="#8C95E8"/>
<path d="M425.758 290.483L421.534 300.679L424.592 302.864L434.498 288.444L422.553 280.578C415.27 275.771 413.376 275.771 411.337 275.771C409.706 275.771 399.587 282.18 394.732 285.385L381.913 271.547L379 274.314L393.129 294.562L403.908 287.278V305.632L397.791 315.1L396.771 350.359L405.802 347.154V318.159L412.211 313.061L414.105 350H422.553L420.805 307.089V287.278L425.758 290.483Z" fill="#7980BE"/>
<rect y="345.761" width="477.807" height="7.23949" fill="#7980BE"/>
<mask id="mask0" mask-type="alpha" maskUnits="userSpaceOnUse" x="0" y="345" width="478" height="9">
<rect y="345.761" width="477.807" height="7.23949" fill="#C4C4C4"/>
</mask>
<g mask="url(#mask0)">
<line y1="-2" x2="20.3191" y2="-2" transform="matrix(-0.863779 0.503871 -0.863779 -0.503871 24.8647 343.39)" stroke="#8C95E8" stroke-width="4"/>
<line y1="-2" x2="20.3191" y2="-2" transform="matrix(-0.863779 -0.503871 0.863779 -0.503871 27.7896 353.628)" stroke="#8C95E8" stroke-width="4"/>
<line y1="-2" x2="20.3191" y2="-2" transform="matrix(-0.863779 0.503871 -0.863779 -0.503871 43.4194 343.39)" stroke="#8C95E8" stroke-width="4"/>
<line y1="-2" x2="20.3191" y2="-2" transform="matrix(-0.863779 -0.503871 0.863779 -0.503871 46.3442 353.628)" stroke="#8C95E8" stroke-width="4"/>
<line y1="-2" x2="20.3191" y2="-2" transform="matrix(-0.863779 0.503871 -0.863779 -0.503871 61.9746 343.39)" stroke="#8C95E8" stroke-width="4"/>
<line y1="-2" x2="20.3191" y2="-2" transform="matrix(-0.863779 -0.503871 0.863779 -0.503871 64.8994 353.628)" stroke="#8C95E8" stroke-width="4"/>
<line y1="-2" x2="20.3191" y2="-2" transform="matrix(-0.863779 0.503871 -0.863779 -0.503871 80.5293 343.39)" stroke="#8C95E8" stroke-width="4"/>
<line y1="-2" x2="20.3191" y2="-2" transform="matrix(-0.863779 -0.503871 0.863779 -0.503871 83.4541 353.628)" stroke="#8C95E8" stroke-width="4"/>
<line y1="-2" x2="20.3191" y2="-2" transform="matrix(-0.863779 0.503871 -0.863779 -0.503871 99.0845 343.39)" stroke="#8C95E8" stroke-width="4"/>
<line y1="-2" x2="20.3191" y2="-2" transform="matrix(-0.863779 -0.503871 0.863779 -0.503871 102.009 353.628)" stroke="#8C95E8" stroke-width="4"/>
<line y1="-2" x2="20.3191" y2="-2" transform="matrix(-0.863779 0.503871 -0.863779 -0.503871 117.639 343.39)" stroke="#8C95E8" stroke-width="4"/>
<line y1="-2" x2="20.3191" y2="-2" transform="matrix(-0.863779 -0.503871 0.863779 -0.503871 120.564 353.628)" stroke="#8C95E8" stroke-width="4"/>
<line y1="-2" x2="20.3191" y2="-2" transform="matrix(-0.863779 0.503871 -0.863779 -0.503871 136.195 343.39)" stroke="#8C95E8" stroke-width="4"/>
<line y1="-2" x2="20.3191" y2="-2" transform="matrix(-0.863779 -0.503871 0.863779 -0.503871 139.12 353.628)" stroke="#8C95E8" stroke-width="4"/>
<line y1="-2" x2="20.3191" y2="-2" transform="matrix(-0.863779 0.503871 -0.863779 -0.503871 154.75 343.39)" stroke="#8C95E8" stroke-width="4"/>
<line y1="-2" x2="20.3191" y2="-2" transform="matrix(-0.863779 -0.503871 0.863779 -0.503871 157.674 353.628)" stroke="#8C95E8" stroke-width="4"/>
<line y1="-2" x2="20.3191" y2="-2" transform="matrix(-0.863779 0.503871 -0.863779 -0.503871 173.304 343.39)" stroke="#8C95E8" stroke-width="4"/>
<line y1="-2" x2="20.3191" y2="-2" transform="matrix(-0.863779 -0.503871 0.863779 -0.503871 176.229 353.628)" stroke="#8C95E8" stroke-width="4"/>
<line y1="-2" x2="20.3191" y2="-2" transform="matrix(-0.863779 0.503871 -0.863779 -0.503871 191.859 343.39)" stroke="#8C95E8" stroke-width="4"/>
<line y1="-2" x2="20.3191" y2="-2" transform="matrix(-0.863779 -0.503871 0.863779 -0.503871 194.784 353.628)" stroke="#8C95E8" stroke-width="4"/>
<line y1="-2" x2="20.3191" y2="-2" transform="matrix(-0.863779 0.503871 -0.863779 -0.503871 210.414 343.39)" stroke="#8C95E8" stroke-width="4"/>
<line y1="-2" x2="20.3191" y2="-2" transform="matrix(-0.863779 -0.503871 0.863779 -0.503871 213.339 353.628)" stroke="#8C95E8" stroke-width="4"/>
<line y1="-2" x2="20.3191" y2="-2" transform="matrix(-0.863779 0.503871 -0.863779 -0.503871 228.969 343.39)" stroke="#8C95E8" stroke-width="4"/>
<line y1="-2" x2="20.3191" y2="-2" transform="matrix(-0.863779 -0.503871 0.863779 -0.503871 231.894 353.628)" stroke="#8C95E8" stroke-width="4"/>
<line y1="-2" x2="20.3191" y2="-2" transform="matrix(-0.863779 0.503871 -0.863779 -0.503871 247.524 343.39)" stroke="#8C95E8" stroke-width="4"/>
<line y1="-2" x2="20.3191" y2="-2" transform="matrix(-0.863779 -0.503871 0.863779 -0.503871 250.449 353.628)" stroke="#8C95E8" stroke-width="4"/>
<line y1="-2" x2="20.3191" y2="-2" transform="matrix(-0.863779 0.503871 -0.863779 -0.503871 266.079 343.39)" stroke="#8C95E8" stroke-width="4"/>
<line y1="-2" x2="20.3191" y2="-2" transform="matrix(-0.863779 -0.503871 0.863779 -0.503871 269.003 353.628)" stroke="#8C95E8" stroke-width="4"/>
<line y1="-2" x2="20.3191" y2="-2" transform="matrix(-0.863779 0.503871 -0.863779 -0.503871 284.634 343.39)" stroke="#8C95E8" stroke-width="4"/>
<line y1="-2" x2="20.3191" y2="-2" transform="matrix(-0.863779 -0.503871 0.863779 -0.503871 287.559 353.628)" stroke="#8C95E8" stroke-width="4"/>
<line y1="-2" x2="20.3191" y2="-2" transform="matrix(-0.863779 0.503871 -0.863779 -0.503871 303.188 343.39)" stroke="#8C95E8" stroke-width="4"/>
<line y1="-2" x2="20.3191" y2="-2" transform="matrix(-0.863779 -0.503871 0.863779 -0.503871 306.113 353.628)" stroke="#8C95E8" stroke-width="4"/>
<line y1="-2" x2="20.3191" y2="-2" transform="matrix(-0.863779 0.503871 -0.863779 -0.503871 321.744 343.39)" stroke="#8C95E8" stroke-width="4"/>
<line y1="-2" x2="20.3191" y2="-2" transform="matrix(-0.863779 -0.503871 0.863779 -0.503871 324.669 353.628)" stroke="#8C95E8" stroke-width="4"/>
<line y1="-2" x2="20.3191" y2="-2" transform="matrix(-0.863779 0.503871 -0.863779 -0.503871 340.299 343.39)" stroke="#8C95E8" stroke-width="4"/>
<line y1="-2" x2="20.3191" y2="-2" transform="matrix(-0.863779 -0.503871 0.863779 -0.503871 343.224 353.628)" stroke="#8C95E8" stroke-width="4"/>
<line y1="-2" x2="20.3191" y2="-2" transform="matrix(-0.863779 0.503871 -0.863779 -0.503871 358.854 343.39)" stroke="#8C95E8" stroke-width="4"/>
<line y1="-2" x2="20.3191" y2="-2" transform="matrix(-0.863779 -0.503871 0.863779 -0.503871 361.779 353.628)" stroke="#8C95E8" stroke-width="4"/>
<line y1="-2" x2="20.3191" y2="-2" transform="matrix(-0.863779 0.503871 -0.863779 -0.503871 377.409 343.39)" stroke="#8C95E8" stroke-width="4"/>
<line y1="-2" x2="20.3191" y2="-2" transform="matrix(-0.863779 -0.503871 0.863779 -0.503871 380.333 353.628)" stroke="#8C95E8" stroke-width="4"/>
<line y1="-2" x2="20.3191" y2="-2" transform="matrix(-0.863779 0.503871 -0.863779 -0.503871 395.963 343.39)" stroke="#8C95E8" stroke-width="4"/>
<line y1="-2" x2="20.3191" y2="-2" transform="matrix(-0.863779 -0.503871 0.863779 -0.503871 398.888 353.628)" stroke="#8C95E8" stroke-width="4"/>
<line y1="-2" x2="20.3191" y2="-2" transform="matrix(-0.863779 0.503871 -0.863779 -0.503871 414.519 343.39)" stroke="#8C95E8" stroke-width="4"/>
<line y1="-2" x2="20.3191" y2="-2" transform="matrix(-0.863779 -0.503871 0.863779 -0.503871 417.443 353.628)" stroke="#8C95E8" stroke-width="4"/>
<line y1="-2" x2="20.3191" y2="-2" transform="matrix(-0.863779 0.503871 -0.863779 -0.503871 433.073 343.39)" stroke="#8C95E8" stroke-width="4"/>
<line y1="-2" x2="20.3191" y2="-2" transform="matrix(-0.863779 -0.503871 0.863779 -0.503871 435.998 353.628)" stroke="#8C95E8" stroke-width="4"/>
<line y1="-2" x2="20.3191" y2="-2" transform="matrix(-0.863779 0.503871 -0.863779 -0.503871 451.628 343.39)" stroke="#8C95E8" stroke-width="4"/>
<line y1="-2" x2="20.3191" y2="-2" transform="matrix(-0.863779 -0.503871 0.863779 -0.503871 454.553 353.628)" stroke="#8C95E8" stroke-width="4"/>
<line y1="-2" x2="20.3191" y2="-2" transform="matrix(-0.863779 0.503871 -0.863779 -0.503871 470.183 343.39)" stroke="#8C95E8" stroke-width="4"/>
<line y1="-2" x2="20.3191" y2="-2" transform="matrix(-0.863779 -0.503871 0.863779 -0.503871 473.108 353.628)" stroke="#8C95E8" stroke-width="4"/>
<line y1="-2" x2="20.3191" y2="-2" transform="matrix(-0.863779 0.503871 -0.863779 -0.503871 488.738 343.39)" stroke="#8C95E8" stroke-width="4"/>
<line y1="-2" x2="20.3191" y2="-2" transform="matrix(-0.863779 -0.503871 0.863779 -0.503871 491.663 353.628)" stroke="#8C95E8" stroke-width="4"/>
</g>
<path fill-rule="evenodd" clip-rule="evenodd" d="M233.4 25.5615L363.747 98.1977L363.505 98.6319L233.403 26.1324L106.78 98.6304L106.533 98.1991L233.4 25.5615Z" fill="black"/>
<path d="M33.0947 345.939L33.0947 203.836L294.538 203.836L294.538 345.939L33.0947 345.939Z" fill="#182AD2" fill-opacity="0.12"/>
<path d="M33.0947 203.786L33.0947 150.106L294.538 150.106L294.538 203.786L33.0947 203.786Z" fill="#182AD2" fill-opacity="0.2"/>
<path d="M33.0947 150.106L33.0947 133.704L294.538 133.704L294.538 150.106L33.0947 150.106Z" fill="#182AD2" fill-opacity="0.1"/>
<path d="M43.5327 219.196H56.4557V330.533H43.5327V219.196Z" fill="#1729D2" fill-opacity="0.2"/>
<path d="M68.8818 219.195H81.8049V330.532H68.8818V219.195Z" fill="#1729D2" fill-opacity="0.2"/>
<path d="M94.231 219.195H107.154V330.532H94.231V219.195Z" fill="#1729D2" fill-opacity="0.2"/>
<path d="M119.58 219.195H132.503V330.532H119.58V219.195Z" fill="#1729D2" fill-opacity="0.2"/>
<path d="M144.929 219.195H157.852V330.532H144.929V219.195Z" fill="#1729D2" fill-opacity="0.2"/>
<path d="M170.278 219.195H183.201V330.532H170.278V219.195Z" fill="#1729D2" fill-opacity="0.2"/>
<path d="M195.627 219.195H208.55V330.532H195.627V219.195Z" fill="#1729D2" fill-opacity="0.2"/>
<path d="M220.976 219.195H233.899V330.532H220.976V219.195Z" fill="#1729D2" fill-opacity="0.2"/>
<path d="M246.325 219.195H259.248V330.532H246.325V219.195Z" fill="#1729D2" fill-opacity="0.2"/>
<path d="M271.674 219.195H284.597V330.532H271.674V219.195Z" fill="#1729D2" fill-opacity="0.2"/>
<path d="M43.5327 159.054H56.4557V191.858H43.5327V159.054Z" fill="#A8ADDF"/>
<path d="M68.8818 159.053H81.8049V191.857H68.8818V159.053Z" fill="#A8ADDF"/>
<path d="M94.231 159.053H107.154V191.857H94.231V159.053Z" fill="#A8ADDF"/>
<path d="M119.58 159.053H132.503V191.857H119.58V159.053Z" fill="#A8ADDF"/>
<path d="M144.929 159.053H157.852V191.857H144.929V159.053Z" fill="#A8ADDF"/>
<path d="M170.278 159.053H183.201V191.857H170.278V159.053Z" fill="#A8ADDF"/>
<path d="M195.627 159.053H208.55V191.857H195.627V159.053Z" fill="#A8ADDF"/>
<path d="M220.976 159.053H233.899V191.857H220.976V159.053Z" fill="#A8ADDF"/>
<path d="M246.325 159.053H259.248V191.857H246.325V159.053Z" fill="#A8ADDF"/>
<path d="M271.674 159.053H284.597V191.857H271.674V159.053Z" fill="#A8ADDF"/>
<path d="M104.668 89.9639H366.111V111.834H104.668V89.9639Z" fill="#6973CA"/>
<path d="M113.118 95.4297H120.574V106.862H113.118V95.4297Z" fill="#5B65BD"/>
<path d="M130.018 95.4297H137.473V106.862H130.018V95.4297Z" fill="#5B65BD"/>
<path d="M146.917 95.4297H154.373V106.862H146.917V95.4297Z" fill="#5B65BD"/>
<path d="M163.816 95.4297H171.272V106.862H163.816V95.4297Z" fill="#5B65BD"/>
<path d="M180.716 95.4297H188.171V106.862H180.716V95.4297Z" fill="#5B65BD"/>
<path d="M197.615 95.4297H205.07V106.862H197.615V95.4297Z" fill="#5B65BD"/>
<path d="M214.514 95.4297H221.97V106.862H214.514V95.4297Z" fill="#5B65BD"/>
<path d="M231.414 95.4297H238.869V106.862H231.414V95.4297Z" fill="#5B65BD"/>
<path d="M248.313 95.4297H255.769V106.862H248.313V95.4297Z" fill="#5B65BD"/>
<path d="M265.212 95.4297H272.668V106.862H265.212V95.4297Z" fill="#5B65BD"/>
<path d="M282.112 95.4297H289.567V106.862H282.112V95.4297Z" fill="#5B65BD"/>
<path d="M299.011 95.4297H306.467V106.862H299.011V95.4297Z" fill="#5B65BD"/>
<path d="M315.91 95.4297H323.366V106.862H315.91V95.4297Z" fill="#5B65BD"/>
<path d="M332.81 95.4297H340.265V106.862H332.81V95.4297Z" fill="#5B65BD"/>
<path d="M349.709 95.4297H357.165V106.862H349.709V95.4297Z" fill="#5B65BD"/>
<path d="M43.0356 137.183H55.9587V147.123H43.0356V137.183Z" fill="#ACB0E0"/>
<path d="M68.3848 137.183H81.3078V147.123H68.3848V137.183Z" fill="#ACB0E0"/>
<path d="M93.7334 137.183H106.656V147.123H93.7334V137.183Z" fill="#ACB0E0"/>
<path d="M119.083 137.183H132.006V147.123H119.083V137.183Z" fill="#ACB0E0"/>
<path d="M144.432 137.183H157.355V147.123H144.432V137.183Z" fill="#ACB0E0"/>
<path d="M169.781 137.183H182.704V147.123H169.781V137.183Z" fill="#ACB0E0"/>
<path d="M195.13 137.183H208.053V147.123H195.13V137.183Z" fill="#ACB0E0"/>
<path d="M220.479 137.183H233.402V147.123H220.479V137.183Z" fill="#ACB0E0"/>
<path d="M245.828 137.183H258.751V147.123H245.828V137.183Z" fill="#ACB0E0"/>
<path d="M271.177 137.183H284.1V147.123H271.177V137.183Z" fill="#ACB0E0"/>
<path d="M35.5801 208.262H42.0416V214.723H35.5801V208.262Z" fill="#7980BE"/>
<path d="M284.597 208.261H291.058V214.722H284.597V208.261Z" fill="#7980BE"/>
<path d="M35.5801 335.006H42.0416V341.467H35.5801V335.006Z" fill="#7980BE"/>
<path d="M284.597 335.006H291.058V341.467H284.597V335.006Z" fill="#7980BE"/>
<path d="M35.5801 152.591H42.0416V159.052H35.5801V152.591Z" fill="#7980BE"/>
<path d="M284.597 152.591H291.058V159.052H284.597V152.591Z" fill="#7980BE"/>
<path d="M35.5801 194.839H42.0416V201.3H35.5801V194.839Z" fill="#7980BE"/>
<path d="M284.597 194.839H291.058V201.3H284.597V194.839Z" fill="#7980BE"/>
<path d="M35.083 135.195H38.5623V138.675H35.083V135.195Z" fill="#7980BE"/>
<path d="M289.07 135.195H292.55V138.675H289.07V135.195Z" fill="#7980BE"/>
<path d="M35.083 145.137H38.5623V148.616H35.083V145.137Z" fill="#7980BE"/>
<path d="M289.07 145.137H292.55V148.616H289.07V145.137Z" fill="#7980BE"/>
<path fill-rule="evenodd" clip-rule="evenodd" d="M233.363 0C233.68 0 233.937 0.256768 233.937 0.573507V23.8006C233.937 24.0351 233.794 24.246 233.576 24.333C233.379 24.4121 233.013 24.5957 232.708 24.8714C232.403 25.1472 232.216 25.4586 232.216 25.8078C232.216 26.2398 232.369 26.5088 232.559 26.6762C232.761 26.8539 233.05 26.9549 233.363 26.9549C233.848 26.9549 234.107 26.834 234.248 26.6927C234.389 26.5514 234.51 26.2929 234.51 25.8078C234.51 25.4911 234.767 25.2343 235.084 25.2343C235.401 25.2343 235.657 25.4911 235.657 25.8078C235.657 26.4697 235.492 27.0715 235.059 27.5038C234.627 27.936 234.025 28.1019 233.363 28.1019C232.817 28.1019 232.245 27.9274 231.802 27.5373C231.347 27.1369 231.069 26.5456 231.069 25.8078C231.069 25.0101 231.504 24.4134 231.939 24.0201C232.223 23.7641 232.532 23.5703 232.79 23.4352V0.573507C232.79 0.256768 233.047 0 233.363 0Z" fill="#1629D3"/>
<path d="M229.922 14.9111H237.378V21.7932H229.922V14.9111Z" fill="#1629D3"/>
</svg>
