<svg width="151" height="33" viewBox="0 0 151 33" fill="none" xmlns="http://www.w3.org/2000/svg">
<path d="M6.27158 31.256C6.83158 30.688 7.11158 30.008 7.11158 29.2C7.11158 28.392 6.83158 27.712 6.27158 27.152C5.71158 26.584 5.02358 26.304 4.21558 26.304C3.40758 26.304 2.71958 26.584 2.15958 27.152C1.59958 27.712 1.31958 28.392 1.31958 29.2C1.31958 30.008 1.59958 30.688 2.15958 31.256C2.71958 31.816 3.40758 32.096 4.21558 32.096C5.02358 32.096 5.71158 31.816 6.27158 31.256ZM2.55158 30.872C2.10358 30.416 1.87958 29.856 1.87958 29.2C1.87958 28.544 2.10358 27.992 2.55158 27.536C2.99958 27.08 3.55158 26.848 4.21558 26.848C4.87958 26.848 5.43158 27.08 5.87958 27.536C6.32758 27.992 6.55158 28.544 6.55158 29.2C6.55158 29.856 6.32758 30.416 5.87958 30.872C5.43158 31.328 4.87958 31.552 4.21558 31.552C3.55158 31.552 2.99958 31.328 2.55158 30.872Z" fill="#161616"/>
<path d="M12.6293 26.4V32H13.1893V29.92H14.6293C15.1333 29.92 15.5493 29.752 15.8853 29.416C16.2213 29.08 16.3893 28.664 16.3893 28.16C16.3893 27.656 16.2213 27.24 15.8853 26.904C15.5493 26.568 15.1333 26.4 14.6293 26.4H12.6293ZM13.1893 29.392V26.928H14.6293C14.9733 26.928 15.2613 27.048 15.4853 27.28C15.7173 27.512 15.8293 27.8 15.8293 28.16C15.8293 28.52 15.7173 28.816 15.4853 29.048C15.2613 29.28 14.9733 29.392 14.6293 29.392H13.1893Z" fill="#161616"/>
<path d="M21.908 26.4V32H22.468V29.92H23.908C24.412 29.92 24.828 29.752 25.164 29.416C25.5 29.08 25.668 28.664 25.668 28.16C25.668 27.656 25.5 27.24 25.164 26.904C24.828 26.568 24.412 26.4 23.908 26.4H21.908ZM22.468 29.392V26.928H23.908C24.252 26.928 24.54 27.048 24.764 27.28C24.996 27.512 25.108 27.8 25.108 28.16C25.108 28.52 24.996 28.816 24.764 29.048C24.54 29.28 24.252 29.392 23.908 29.392H22.468Z" fill="#161616"/>
<path d="M35.7797 31.256C36.3397 30.688 36.6197 30.008 36.6197 29.2C36.6197 28.392 36.3397 27.712 35.7797 27.152C35.2197 26.584 34.5317 26.304 33.7237 26.304C32.9157 26.304 32.2277 26.584 31.6677 27.152C31.1077 27.712 30.8277 28.392 30.8277 29.2C30.8277 30.008 31.1077 30.688 31.6677 31.256C32.2277 31.816 32.9157 32.096 33.7237 32.096C34.5317 32.096 35.2197 31.816 35.7797 31.256ZM32.0597 30.872C31.6117 30.416 31.3877 29.856 31.3877 29.2C31.3877 28.544 31.6117 27.992 32.0597 27.536C32.5077 27.08 33.0597 26.848 33.7237 26.848C34.3877 26.848 34.9397 27.08 35.3877 27.536C35.8357 27.992 36.0597 28.544 36.0597 29.2C36.0597 29.856 35.8357 30.416 35.3877 30.872C34.9397 31.328 34.3877 31.552 33.7237 31.552C33.0597 31.552 32.5077 31.328 32.0597 30.872Z" fill="#161616"/>
<path d="M46.2174 32L44.8494 29.688C45.2014 29.584 45.4894 29.392 45.7134 29.096C45.9454 28.8 46.0574 28.456 46.0574 28.08C46.0574 27.616 45.8894 27.224 45.5614 26.896C45.2334 26.568 44.8414 26.4 44.3774 26.4H42.1374V32H42.6974V29.76H44.2654L45.5774 32H46.2174ZM44.3774 26.928C44.6894 26.928 44.9534 27.04 45.1694 27.264C45.3854 27.488 45.4974 27.76 45.4974 28.08C45.4974 28.392 45.3854 28.664 45.1694 28.896C44.9534 29.12 44.6894 29.232 44.3774 29.232H42.6974V26.928H44.3774Z" fill="#161616"/>
<path d="M50.983 26.4V26.928H52.703V32H53.263V26.928H54.983V26.4H50.983Z" fill="#161616"/>
<path d="M60.2633 30.096C60.2633 30.704 60.4553 31.192 60.8393 31.552C61.2233 31.912 61.7273 32.096 62.3433 32.096C62.9593 32.096 63.4633 31.912 63.8473 31.552C64.2313 31.192 64.4233 30.704 64.4233 30.096V26.4H63.8633V30.096C63.8633 30.992 63.3033 31.552 62.3433 31.552C61.3833 31.552 60.8233 30.992 60.8233 30.096V26.4H60.2633V30.096Z" fill="#161616"/>
<path d="M73.7846 30.96L70.6646 26.4H70.1846V32H70.7446V27.44L73.8646 32H74.3446V26.4H73.7846V30.96Z" fill="#161616"/>
<path d="M80.1821 32H80.7421V26.4H80.1821V32Z" fill="#161616"/>
<path d="M86.1058 26.4V26.928H87.8258V32H88.3858V26.928H90.1058V26.4H86.1058Z" fill="#161616"/>
<path d="M98.8741 26.4L97.2101 29.144L95.5381 26.4H94.9061L96.9221 29.688V32H97.4821V29.704L99.5061 26.4H98.8741Z" fill="#161616"/>
<path d="M111.344 32H111.904V26.4H111.344V32Z" fill="#161616"/>
<path d="M121.348 30.96L118.228 26.4H117.748V32H118.308V27.44L121.428 32H121.908V26.4H121.348V30.96Z" fill="#161616"/>
<path d="M127.745 26.4V32H129.905C130.665 32 131.297 31.728 131.793 31.192C132.297 30.648 132.545 29.984 132.545 29.2C132.545 28.416 132.297 27.752 131.793 27.216C131.297 26.672 130.665 26.4 129.905 26.4H127.745ZM128.305 31.472V26.928H129.905C130.521 26.928 131.017 27.144 131.409 27.584C131.801 28.024 132.001 28.56 132.001 29.2C132.001 29.84 131.801 30.376 131.409 30.816C131.017 31.256 130.521 31.472 129.905 31.472H128.305Z" fill="#161616"/>
<path d="M138.623 29.44H141.103V28.912H138.623V26.928H141.303V26.4H138.063V32H141.343V31.472H138.623V29.44Z" fill="#161616"/>
<path d="M148.865 29.112L150.585 26.4H149.953L148.545 28.608L147.137 26.4H146.505L148.225 29.112L146.385 32H147.025L148.545 29.608L150.065 32H150.705L148.865 29.112Z" fill="#161616"/>
<path d="M6.46101 20.0378C8.22537 20.0378 9.64182 19.593 10.7104 18.7281C11.7789 17.8385 12.3256 16.6524 12.3256 15.1944C12.3256 14.3048 12.0274 13.4893 11.7044 12.9704C11.4062 12.402 10.5364 11.809 10.0394 11.5124C9.79092 11.3395 9.39332 11.1665 8.87147 10.9688C8.34962 10.7464 7.95202 10.5981 7.67867 10.524L6.33676 10.0545C4.97001 9.60967 3.97601 9.16487 3.37961 8.74477C2.78321 8.32468 2.48501 7.68219 2.48501 6.81729C2.48501 4.93923 3.92631 3.82722 6.08826 3.82722C8.15082 3.82722 9.56727 4.79096 10.3625 6.69373L11.8286 5.87826C10.8595 3.70366 8.79692 2.14685 6.08826 2.14685C4.57241 2.14685 3.30506 2.56694 2.2862 3.43184C1.26735 4.27202 0.745502 5.43345 0.745502 6.89142C0.745502 8.39881 1.41645 9.53554 2.73351 10.3263C3.30506 10.697 4.49786 11.1665 6.31191 11.7596C7.82777 12.2538 8.92117 12.7233 9.59212 13.1928C10.2631 13.6623 10.5861 14.3295 10.5861 15.2439C10.5861 17.1219 9.07027 18.3575 6.48587 18.3575C3.82691 18.3575 2.11225 17.0972 1.491 14.9473L0 15.8122C0.894602 18.4563 3.28021 20.0378 6.46101 20.0378Z" fill="#161616"/>
<path d="M23.3165 20.0378C26.5222 20.0378 29.4297 18.3575 30.8461 15.7628L29.3054 14.8979C28.212 16.9984 25.9009 18.3575 23.3165 18.3575C21.1546 18.3575 19.3654 17.6656 17.9986 16.257C16.6319 14.8485 15.9361 13.1434 15.9361 11.0923C15.9361 9.04131 16.6319 7.33623 17.9986 5.92768C19.3654 4.51914 21.1546 3.82722 23.3165 3.82722C25.9009 3.82722 28.212 5.18634 29.3054 7.2868L30.8461 6.3972C29.3799 3.80251 26.5222 2.14685 23.3165 2.14685C20.6824 2.14685 18.4956 3.01175 16.781 4.74154C15.0663 6.47133 14.1966 8.5965 14.1966 11.0923C14.1966 13.5882 15.0663 15.7134 16.781 17.4432C18.4956 19.173 20.6824 20.0378 23.3165 20.0378Z" fill="#161616"/>
<path d="M33.7068 19.7413H35.4463V2.44339H33.7068V19.7413Z" fill="#161616"/>
<path d="M74.9695 2.44339V7.23738H79.0698V19.7413H84.0398V7.23738H88.14V2.44339H74.9695Z" fill="#161616"/>
<path d="M103.915 19.7166L100.486 13.2669C102.175 12.2538 103.169 10.5487 103.169 8.49766C103.169 6.66902 102.548 5.21105 101.306 4.09904C100.063 2.98703 98.4977 2.41867 96.5842 2.41867H89.6262V19.7166H94.5962V14.2801H95.8387L98.5971 19.7166H103.915ZM96.4848 6.96556C97.5534 6.96556 98.1995 7.58334 98.1995 8.5965C98.1995 9.60967 97.5534 10.2027 96.4848 10.178H94.5962V6.96556H96.4848Z" fill="#161616"/>
<path d="M121.05 19.7413L115.508 2.44339H109.693L104.152 19.7413H109.495L110.091 17.5173H115.111L115.707 19.7413H121.05ZM112.601 8.25055L114.042 13.5635H111.16L112.601 8.25055Z" fill="#161616"/>
<path d="M122.048 2.44339V19.7413H129.254C131.665 19.7413 133.653 18.9258 135.268 17.2702C136.883 15.6145 137.703 13.5388 137.703 11.0923C137.703 8.64593 136.883 6.59489 135.268 4.93923C133.653 3.28357 131.665 2.44339 129.254 2.44339H122.048ZM127.266 14.9473V7.23738H129.254C131.267 7.23738 132.733 8.81891 132.733 11.0923C132.733 13.3658 131.267 14.9473 129.254 14.9473H127.266Z" fill="#161616"/>
<path d="M144.539 13.2669H150.255V8.81891H144.539V6.94085H150.876V2.44339H139.569V19.7413H151V15.1944H144.539V13.2669Z" fill="#161616"/>
<path d="M66.0894 3.90344L62.1859 -5.80576e-05L51.4512 10.7346L55.3547 14.6381L66.0894 3.90344Z" fill="#C0830B"/>
<path d="M62.1855 21.4691L66.089 17.5656L55.3544 6.83099L51.4509 10.7345L62.1855 21.4691Z" fill="#C0830B"/>
<path d="M70.8489 12.8815L70.8489 8.58763L55.8204 8.58763L55.8204 12.8815L70.8489 12.8815Z" fill="#C0830B"/>
<path fill-rule="evenodd" clip-rule="evenodd" d="M46.8577 3.9035L50.7612 0L61.4958 10.7346L57.5923 14.6381L57.5917 14.6375L50.76 21.4692L46.8565 17.5657L51.5407 12.8815L41.5073 12.8815V8.58769L51.5419 8.58769L46.8577 3.9035Z" fill="#F4B206"/>
</svg>
