<svg width="151" height="36" viewBox="0 0 151 36" fill="none" xmlns="http://www.w3.org/2000/svg">
<path d="M6.272 31.256C6.832 30.688 7.112 30.008 7.112 29.2C7.112 28.392 6.832 27.712 6.272 27.152C5.712 26.584 5.024 26.304 4.216 26.304C3.408 26.304 2.72 26.584 2.16 27.152C1.6 27.712 1.32 28.392 1.32 29.2C1.32 30.008 1.6 30.688 2.16 31.256C2.72 31.816 3.408 32.096 4.216 32.096C5.024 32.096 5.712 31.816 6.272 31.256ZM2.552 30.872C2.104 30.416 1.88 29.856 1.88 29.2C1.88 28.544 2.104 27.992 2.552 27.536C3 27.08 3.552 26.848 4.216 26.848C4.88 26.848 5.432 27.08 5.88 27.536C6.328 27.992 6.552 28.544 6.552 29.2C6.552 29.856 6.328 30.416 5.88 30.872C5.432 31.328 4.88 31.552 4.216 31.552C3.552 31.552 3 31.328 2.552 30.872ZM12.6297 26.4V32H13.1897V29.92H14.6297C15.1337 29.92 15.5497 29.752 15.8857 29.416C16.2217 29.08 16.3897 28.664 16.3897 28.16C16.3897 27.656 16.2217 27.24 15.8857 26.904C15.5497 26.568 15.1337 26.4 14.6297 26.4H12.6297ZM13.1897 29.392V26.928H14.6297C14.9737 26.928 15.2617 27.048 15.4857 27.28C15.7177 27.512 15.8297 27.8 15.8297 28.16C15.8297 28.52 15.7177 28.816 15.4857 29.048C15.2617 29.28 14.9737 29.392 14.6297 29.392H13.1897ZM21.9084 26.4V32H22.4684V29.92H23.9084C24.4124 29.92 24.8284 29.752 25.1644 29.416C25.5004 29.08 25.6684 28.664 25.6684 28.16C25.6684 27.656 25.5004 27.24 25.1644 26.904C24.8284 26.568 24.4124 26.4 23.9084 26.4H21.9084ZM22.4684 29.392V26.928H23.9084C24.2524 26.928 24.5404 27.048 24.7644 27.28C24.9964 27.512 25.1084 27.8 25.1084 28.16C25.1084 28.52 24.9964 28.816 24.7644 29.048C24.5404 29.28 24.2524 29.392 23.9084 29.392H22.4684ZM35.7801 31.256C36.3401 30.688 36.6201 30.008 36.6201 29.2C36.6201 28.392 36.3401 27.712 35.7801 27.152C35.2201 26.584 34.5321 26.304 33.7241 26.304C32.9161 26.304 32.2281 26.584 31.6681 27.152C31.1081 27.712 30.8281 28.392 30.8281 29.2C30.8281 30.008 31.1081 30.688 31.6681 31.256C32.2281 31.816 32.9161 32.096 33.7241 32.096C34.5321 32.096 35.2201 31.816 35.7801 31.256ZM32.0601 30.872C31.6121 30.416 31.3881 29.856 31.3881 29.2C31.3881 28.544 31.6121 27.992 32.0601 27.536C32.5081 27.08 33.0601 26.848 33.7241 26.848C34.3881 26.848 34.9401 27.08 35.3881 27.536C35.8361 27.992 36.0601 28.544 36.0601 29.2C36.0601 29.856 35.8361 30.416 35.3881 30.872C34.9401 31.328 34.3881 31.552 33.7241 31.552C33.0601 31.552 32.5081 31.328 32.0601 30.872ZM46.2178 32L44.8498 29.688C45.2018 29.584 45.4898 29.392 45.7138 29.096C45.9458 28.8 46.0578 28.456 46.0578 28.08C46.0578 27.616 45.8898 27.224 45.5618 26.896C45.2338 26.568 44.8418 26.4 44.3778 26.4H42.1378V32H42.6978V29.76H44.2658L45.5778 32H46.2178ZM44.3778 26.928C44.6898 26.928 44.9538 27.04 45.1698 27.264C45.3858 27.488 45.4978 27.76 45.4978 28.08C45.4978 28.392 45.3858 28.664 45.1698 28.896C44.9538 29.12 44.6898 29.232 44.3778 29.232H42.6978V26.928H44.3778ZM50.9834 26.4V26.928H52.7034V32H53.2634V26.928H54.9834V26.4H50.9834ZM60.2638 30.096C60.2638 30.704 60.4558 31.192 60.8398 31.552C61.2238 31.912 61.7278 32.096 62.3438 32.096C62.9598 32.096 63.4638 31.912 63.8478 31.552C64.2318 31.192 64.4238 30.704 64.4238 30.096V26.4H63.8638V30.096C63.8638 30.992 63.3038 31.552 62.3438 31.552C61.3838 31.552 60.8238 30.992 60.8238 30.096V26.4H60.2638V30.096ZM73.785 30.96L70.665 26.4H70.185V32H70.745V27.44L73.865 32H74.345V26.4H73.785V30.96ZM80.1825 32H80.7425V26.4H80.1825V32ZM86.1063 26.4V26.928H87.8263V32H88.3863V26.928H90.1063V26.4H86.1063ZM98.8746 26.4L97.2106 29.144L95.5386 26.4H94.9066L96.9226 29.688V32H97.4826V29.704L99.5066 26.4H98.8746ZM111.344 32H111.904V26.4H111.344V32ZM121.348 30.96L118.228 26.4H117.748V32H118.308V27.44L121.428 32H121.908V26.4H121.348V30.96ZM127.746 26.4V32H129.906C130.666 32 131.298 31.728 131.794 31.192C132.298 30.648 132.546 29.984 132.546 29.2C132.546 28.416 132.298 27.752 131.794 27.216C131.298 26.672 130.666 26.4 129.906 26.4H127.746ZM128.306 31.472V26.928H129.906C130.522 26.928 131.018 27.144 131.41 27.584C131.802 28.024 132.002 28.56 132.002 29.2C132.002 29.84 131.802 30.376 131.41 30.816C131.018 31.256 130.522 31.472 129.906 31.472H128.306ZM138.623 29.44H141.103V28.912H138.623V26.928H141.303V26.4H138.063V32H141.343V31.472H138.623V29.44ZM148.866 29.112L150.586 26.4H149.954L148.546 28.608L147.138 26.4H146.506L148.226 29.112L146.386 32H147.026L148.546 29.608L150.066 32H150.706L148.866 29.112Z" fill="white"/>
<path d="M6.46101 20.038C8.22537 20.038 9.64182 19.5932 10.7104 18.7283C11.7789 17.8387 12.3256 16.6525 12.3256 15.1945C12.3256 14.3049 12.0274 13.4895 11.7044 12.9705C11.4062 12.4022 10.5364 11.8091 10.0394 11.5126C9.79092 11.3396 9.39332 11.1666 8.87147 10.9689C8.34962 10.7465 7.95202 10.5982 7.67867 10.5241L6.33676 10.0546C4.97001 9.60979 3.97601 9.16499 3.37961 8.74489C2.78321 8.3248 2.48501 7.68231 2.48501 6.81741C2.48501 4.93935 3.92631 3.82734 6.08826 3.82734C8.15082 3.82734 9.56727 4.79108 10.3625 6.69386L11.8286 5.87838C10.8595 3.70378 8.79692 2.14697 6.08826 2.14697C4.57241 2.14697 3.30506 2.56706 2.2862 3.43196C1.26735 4.27214 0.745502 5.43358 0.745502 6.89155C0.745502 8.39894 1.41645 9.53566 2.73351 10.3264C3.30506 10.6971 4.49786 11.1666 6.31191 11.7597C7.82777 12.2539 8.92117 12.7234 9.59212 13.1929C10.2631 13.6624 10.5861 14.3297 10.5861 15.244C10.5861 17.122 9.07027 18.3576 6.48587 18.3576C3.82691 18.3576 2.11225 17.0973 1.491 14.9474L0 15.8123C0.894602 18.4564 3.28021 20.038 6.46101 20.038Z" fill="white"/>
<path d="M23.3165 20.038C26.5222 20.038 29.4297 18.3576 30.8461 15.7629L29.3054 14.898C28.212 16.9985 25.9009 18.3576 23.3165 18.3576C21.1546 18.3576 19.3654 17.6657 17.9986 16.2571C16.6319 14.8486 15.9361 13.1435 15.9361 11.0925C15.9361 9.04143 16.6319 7.33635 17.9986 5.9278C19.3654 4.51926 21.1546 3.82734 23.3165 3.82734C25.9009 3.82734 28.212 5.18646 29.3054 7.28693L30.8461 6.39732C29.3799 3.80263 26.5222 2.14697 23.3165 2.14697C20.6824 2.14697 18.4956 3.01187 16.781 4.74166C15.0663 6.47145 14.1966 8.59663 14.1966 11.0925C14.1966 13.5883 15.0663 15.7135 16.781 17.4433C18.4956 19.1731 20.6824 20.038 23.3165 20.038Z" fill="white"/>
<path d="M33.7068 19.7414H35.4463V2.44351H33.7068V19.7414Z" fill="white"/>
<path d="M74.9695 2.44351V7.2375H79.0698V19.7414H84.0398V7.2375H88.14V2.44351H74.9695Z" fill="white"/>
<path d="M103.915 19.7167L100.486 13.2671C102.175 12.2539 103.169 10.5488 103.169 8.49778C103.169 6.66914 102.548 5.21118 101.306 4.09917C100.063 2.98716 98.4977 2.4188 96.5842 2.4188H89.6262V19.7167H94.5962V14.2802H95.8387L98.5971 19.7167H103.915ZM96.4848 6.96568C97.5534 6.96568 98.1995 7.58346 98.1995 8.59663C98.1995 9.60979 97.5534 10.2029 96.4848 10.1782H94.5962V6.96568H96.4848Z" fill="white"/>
<path d="M121.05 19.7414L115.508 2.44351H109.693L104.152 19.7414H109.495L110.091 17.5174H115.111L115.707 19.7414H121.05ZM112.601 8.25067L114.042 13.5636H111.16L112.601 8.25067Z" fill="white"/>
<path d="M122.048 2.44351V19.7414H129.254C131.665 19.7414 133.653 18.926 135.268 17.2703C136.883 15.6146 137.703 13.5389 137.703 11.0925C137.703 8.64605 136.883 6.59501 135.268 4.93935C133.653 3.28369 131.665 2.44351 129.254 2.44351H122.048ZM127.266 14.9474V7.2375H129.254C131.267 7.2375 132.733 8.81903 132.733 11.0925C132.733 13.3659 131.267 14.9474 129.254 14.9474H127.266Z" fill="white"/>
<path d="M144.539 13.2671H150.255V8.81903H144.539V6.94097H150.876V2.44351H139.569V19.7414H151V15.1945H144.539V13.2671Z" fill="white"/>
<path d="M66.0883 3.90344L62.1848 -5.80576e-05L51.4501 10.7346L55.3536 14.6381L66.0883 3.90344Z" fill="#C0830B"/>
<path d="M62.1847 21.4691L66.0882 17.5656L55.3536 6.83099L51.4501 10.7345L62.1847 21.4691Z" fill="#C0830B"/>
<path d="M70.848 12.8816L70.848 8.58775L55.8196 8.58775L55.8196 12.8816L70.848 12.8816Z" fill="#C0830B"/>
<path fill-rule="evenodd" clip-rule="evenodd" d="M46.8566 3.9035L50.7601 0L57.5913 6.83115L57.5914 6.83105L61.4949 10.7345L61.4948 10.7346L57.5913 14.6381L50.7603 21.4692L46.8568 17.5657L51.5409 12.8816L41.5071 12.8816V8.58773L51.5409 8.58773L46.8566 3.9035Z" fill="#F4B206"/>
</svg>
