<svg width="319" height="252" viewBox="0 0 319 252" fill="none" xmlns="http://www.w3.org/2000/svg">
<circle cx="120.5" cy="131.5" r="120.5" fill="#1627B6" fill-opacity="0.4"/>
<rect x="18" width="196" height="137" rx="8" fill="white"/>
<mask id="mask0" mask-type="alpha" maskUnits="userSpaceOnUse" x="0" y="11" width="241" height="241">
<circle cx="120.5" cy="131.5" r="120.5" fill="#E4E8F9"/>
</mask>
<g mask="url(#mask0)">
<rect x="18" y="-17" width="196" height="275" rx="8" fill="white"/>
</g>
<mask id="mask1" mask-type="alpha" maskUnits="userSpaceOnUse" x="18" y="0" width="196" height="137">
<rect x="18" width="196" height="137" rx="8" fill="white"/>
</mask>
<g mask="url(#mask1)">
<g opacity="0.2">
<path d="M-71 61.8474C-61.2259 51.481 -31.3707 28.0825 9.85807 17.4199C51.0868 6.75728 61.9863 -29.9695 62.2825 -47" stroke="url(#paint0_linear)" stroke-width="10"/>
<path d="M-33.0145 87.6156C-23.2404 77.2492 6.61487 53.8507 47.8436 43.1881C89.0723 32.5255 99.9719 -4.20124 100.268 -21.2318" stroke="url(#paint1_linear)" stroke-width="20"/>
<path d="M-13.4664 151.591C3.29613 133.82 54.4979 93.7083 125.205 75.4295C195.913 57.1508 214.605 -5.80938 215.113 -35.0046" stroke="url(#paint2_linear)" stroke-width="20"/>
<path d="M72.293 188.965C88.6361 168.63 139.756 121.598 213.489 96.1578C287.223 70.7172 301.798 2.11448 299.869 -29.0068" stroke="url(#paint3_linear)" stroke-width="30"/>
<path d="M128.074 252.181C142.729 232.649 189.076 187.071 257.228 161.01C325.381 134.949 336.9 70.2955 334.14 41.2266" stroke="url(#paint4_linear)" stroke-width="40"/>
</g>
</g>
<g filter="url(#filter0_d)">
<rect x="42.5" y="43.5" width="199" height="63" fill="white" stroke="#9CA5E0"/>
<path d="M61.96 64H62.8V55.6H61.96V64ZM73.3536 62.98L71.7816 58H70.9896L69.4176 62.98L67.9416 58H67.1256L68.9736 64H69.8376L71.3856 59.164L72.9336 64H73.7976L75.6456 58H74.8296L73.3536 62.98ZM81.7656 59.176C81.2136 58.3 80.4096 57.856 79.3416 57.856C78.4896 57.856 77.7576 58.156 77.1456 58.768C76.5456 59.38 76.2456 60.124 76.2456 61C76.2456 61.876 76.5456 62.62 77.1456 63.232C77.7576 63.844 78.4896 64.144 79.3416 64.144C80.4096 64.144 81.2136 63.7 81.7656 62.824V64H82.5576V58H81.7656V59.176ZM77.7216 62.692C77.2656 62.224 77.0376 61.66 77.0376 61C77.0376 60.34 77.2656 59.776 77.7216 59.32C78.1776 58.852 78.7416 58.624 79.4016 58.624C80.0616 58.624 80.6256 58.852 81.0816 59.32C81.5376 59.776 81.7656 60.34 81.7656 61C81.7656 61.66 81.5376 62.224 81.0816 62.692C80.6256 63.148 80.0616 63.376 79.4016 63.376C78.7416 63.376 78.1776 63.148 77.7216 62.692ZM87.0425 57.856C86.1425 57.856 85.4705 58.216 85.0265 58.936V58H84.2345V64H85.0265V60.856C85.0265 59.332 85.8185 58.624 86.9705 58.624C88.0145 58.624 88.6025 59.248 88.6025 60.316V64H89.3945V60.316C89.3945 58.816 88.4945 57.856 87.0425 57.856ZM94.1059 58H92.3779V56.32L91.5859 56.56V58H90.3259V58.768H91.5859V62.404C91.5859 63.796 92.4259 64.252 94.1059 64V63.304C92.9539 63.352 92.3779 63.436 92.3779 62.404V58.768H94.1059V58ZM101.606 58H99.8779V56.32L99.0859 56.56V58H97.8259V58.768H99.0859V62.404C99.0859 63.796 99.9259 64.252 101.606 64V63.304C100.454 63.352 99.8779 63.436 99.8779 62.404V58.768H101.606V58ZM107.591 63.244C108.203 62.632 108.515 61.888 108.515 61C108.515 60.112 108.203 59.368 107.591 58.768C106.979 58.156 106.235 57.856 105.359 57.856C104.483 57.856 103.727 58.156 103.115 58.768C102.503 59.368 102.203 60.112 102.203 61C102.203 61.888 102.503 62.632 103.115 63.244C103.727 63.844 104.483 64.144 105.359 64.144C106.235 64.144 106.979 63.844 107.591 63.244ZM103.679 62.692C103.223 62.224 102.995 61.66 102.995 61C102.995 60.34 103.223 59.776 103.679 59.32C104.135 58.852 104.699 58.624 105.359 58.624C106.019 58.624 106.583 58.852 107.039 59.32C107.495 59.776 107.723 60.34 107.723 61C107.723 61.66 107.495 62.224 107.039 62.692C106.583 63.148 106.019 63.376 105.359 63.376C104.699 63.376 104.135 63.148 103.679 62.692ZM115.612 57.856C114.688 57.856 113.944 58.156 113.356 58.756C112.768 59.356 112.48 60.1 112.48 61C112.48 61.912 112.78 62.668 113.368 63.256C113.956 63.844 114.724 64.144 115.672 64.144C116.836 64.144 117.784 63.616 118.312 62.764L117.616 62.356C117.28 62.968 116.596 63.376 115.684 63.376C114.4 63.376 113.452 62.608 113.296 61.396H118.564C118.576 61.24 118.588 61.108 118.588 61.024C118.588 60.172 118.312 59.428 117.76 58.804C117.22 58.168 116.5 57.856 115.612 57.856ZM115.612 58.624C116.152 58.624 116.632 58.804 117.04 59.152C117.448 59.5 117.688 59.992 117.772 60.628H113.296C113.452 59.44 114.364 58.624 115.612 58.624ZM122.313 60.892L124.497 58H123.549L121.833 60.268L120.117 58H119.169L121.365 60.892L119.013 64H119.961L121.833 61.528L123.705 64H124.653L122.313 60.892ZM128.947 57.856C127.879 57.856 127.075 58.3 126.523 59.176V58H125.731V66.4H126.523V62.824C127.075 63.7 127.879 64.144 128.947 64.144C129.799 64.144 130.531 63.844 131.131 63.232C131.743 62.62 132.043 61.876 132.043 61C132.043 60.124 131.743 59.38 131.131 58.768C130.531 58.156 129.799 57.856 128.947 57.856ZM127.207 62.692C126.751 62.224 126.523 61.66 126.523 61C126.523 60.34 126.751 59.776 127.207 59.32C127.663 58.852 128.227 58.624 128.887 58.624C129.547 58.624 130.111 58.852 130.567 59.32C131.023 59.776 131.251 60.34 131.251 61C131.251 61.66 131.023 62.224 130.567 62.692C130.111 63.148 129.547 63.376 128.887 63.376C128.227 63.376 127.663 63.148 127.207 62.692ZM138.388 63.244C139 62.632 139.312 61.888 139.312 61C139.312 60.112 139 59.368 138.388 58.768C137.776 58.156 137.032 57.856 136.156 57.856C135.28 57.856 134.524 58.156 133.912 58.768C133.3 59.368 133 60.112 133 61C133 61.888 133.3 62.632 133.912 63.244C134.524 63.844 135.28 64.144 136.156 64.144C137.032 64.144 137.776 63.844 138.388 63.244ZM134.476 62.692C134.02 62.224 133.792 61.66 133.792 61C133.792 60.34 134.02 59.776 134.476 59.32C134.932 58.852 135.496 58.624 136.156 58.624C136.816 58.624 137.38 58.852 137.836 59.32C138.292 59.776 138.52 60.34 138.52 61C138.52 61.66 138.292 62.224 137.836 62.692C137.38 63.148 136.816 63.376 136.156 63.376C135.496 63.376 134.932 63.148 134.476 62.692ZM141.429 58H140.637V64H141.429V60.664C141.429 59.284 142.233 58.672 143.325 58.672V57.904C142.425 57.904 141.801 58.264 141.429 58.996V58ZM147.708 58H145.98V56.32L145.188 56.56V58H143.928V58.768H145.188V62.404C145.188 63.796 146.028 64.252 147.708 64V63.304C146.556 63.352 145.98 63.436 145.98 62.404V58.768H147.708V58ZM155.028 55.456C153.408 55.348 152.508 56.188 152.508 57.76V58H151.488V58.768H152.508V64H153.3V58.768H155.028V58H153.3V57.76C153.3 56.608 153.864 56.128 155.028 56.224V55.456ZM156.663 58H155.871V64H156.663V60.664C156.663 59.284 157.467 58.672 158.559 58.672V57.904C157.659 57.904 157.035 58.264 156.663 58.996V58ZM164.309 63.244C164.921 62.632 165.233 61.888 165.233 61C165.233 60.112 164.921 59.368 164.309 58.768C163.697 58.156 162.953 57.856 162.077 57.856C161.201 57.856 160.445 58.156 159.833 58.768C159.221 59.368 158.921 60.112 158.921 61C158.921 61.888 159.221 62.632 159.833 63.244C160.445 63.844 161.201 64.144 162.077 64.144C162.953 64.144 163.697 63.844 164.309 63.244ZM160.397 62.692C159.941 62.224 159.713 61.66 159.713 61C159.713 60.34 159.941 59.776 160.397 59.32C160.853 58.852 161.417 58.624 162.077 58.624C162.737 58.624 163.301 58.852 163.757 59.32C164.213 59.776 164.441 60.34 164.441 61C164.441 61.66 164.213 62.224 163.757 62.692C163.301 63.148 162.737 63.376 162.077 63.376C161.417 63.376 160.853 63.148 160.397 62.692ZM172.955 57.856C172.091 57.856 171.443 58.216 171.011 58.948C170.663 58.216 170.051 57.856 169.187 57.856C168.395 57.856 167.783 58.192 167.351 58.876V58H166.559V64H167.351V60.676C167.351 59.284 168.119 58.624 169.079 58.624C169.943 58.624 170.483 59.2 170.483 60.256V64H171.275V60.676C171.275 59.272 171.947 58.624 172.943 58.624C173.819 58.624 174.407 59.212 174.407 60.256V64H175.199V60.256C175.199 58.78 174.299 57.856 172.955 57.856Z" fill="#8C95CD"/>
<rect x="68" y="124" width="217" height="64" fill="#1627B8"/>
<path d="M92.04 148.8V160H96.488C98.024 160 99.304 159.456 100.328 158.384C101.368 157.312 101.88 155.984 101.88 154.4C101.88 152.816 101.368 151.488 100.328 150.416C99.304 149.344 98.024 148.8 96.488 148.8H92.04ZM94.248 157.888V150.912H96.488C97.464 150.912 98.248 151.232 98.856 151.888C99.464 152.528 99.768 153.36 99.768 154.4C99.768 155.44 99.464 156.272 98.856 156.928C98.248 157.568 97.464 157.888 96.488 157.888H94.248ZM104.374 151.04C105.078 151.04 105.654 150.464 105.654 149.776C105.654 149.088 105.078 148.496 104.374 148.496C103.686 148.496 103.11 149.088 103.11 149.776C103.11 150.464 103.686 151.04 104.374 151.04ZM105.414 160V152H103.35V160H105.414ZM109.145 154.272C109.145 153.872 109.545 153.616 110.073 153.616C110.665 153.616 111.097 153.888 111.353 154.432L113.113 153.472C112.489 152.384 111.369 151.776 110.073 151.776C109.209 151.776 108.489 152 107.897 152.464C107.321 152.912 107.033 153.536 107.033 154.32C107.033 155.984 108.521 156.48 109.705 156.784C110.521 156.992 111.161 157.232 111.161 157.664C111.161 158.128 110.793 158.352 110.057 158.352C109.241 158.352 108.729 158 108.489 157.312L106.697 158.32C107.289 159.584 108.409 160.224 110.057 160.224C110.969 160.224 111.737 160 112.345 159.568C112.969 159.12 113.273 158.48 113.273 157.664C113.289 155.952 111.769 155.392 110.601 155.152C109.785 154.944 109.145 154.704 109.145 154.272ZM118.299 160.224C119.851 160.224 121.211 159.408 121.915 158.144L120.123 157.12C119.803 157.776 119.115 158.176 118.283 158.176C117.659 158.176 117.147 157.968 116.747 157.568C116.347 157.152 116.139 156.624 116.139 156C116.139 154.72 117.051 153.808 118.283 153.808C119.099 153.808 119.787 154.224 120.107 154.88L121.883 153.84C121.227 152.576 119.851 151.776 118.299 151.776C117.099 151.776 116.091 152.176 115.275 152.992C114.475 153.808 114.075 154.8 114.075 156C114.075 157.2 114.475 158.192 115.275 159.008C116.091 159.824 117.099 160.224 118.299 160.224ZM129.698 159.008C130.514 158.192 130.93 157.184 130.93 156C130.93 154.816 130.514 153.824 129.698 153.008C128.882 152.192 127.874 151.776 126.69 151.776C125.506 151.776 124.498 152.192 123.682 153.008C122.866 153.824 122.465 154.816 122.465 156C122.465 157.184 122.866 158.192 123.682 159.008C124.498 159.824 125.506 160.224 126.69 160.224C127.874 160.224 128.882 159.824 129.698 159.008ZM125.138 157.584C124.738 157.168 124.53 156.64 124.53 156C124.53 155.36 124.738 154.832 125.138 154.416C125.554 154 126.066 153.792 126.69 153.792C127.314 153.792 127.826 154 128.242 154.416C128.658 154.832 128.866 155.36 128.866 156C128.866 156.64 128.658 157.168 128.242 157.584C127.826 158 127.314 158.208 126.69 158.208C126.066 158.208 125.554 158 125.138 157.584ZM135.381 157.6L133.445 152H131.173L134.213 160H136.565L139.605 152H137.333L135.381 157.6ZM148.064 156.848C148.112 156.544 148.144 156.272 148.144 156C148.144 154.8 147.76 153.808 146.992 152.992C146.24 152.176 145.264 151.776 144.096 151.776C142.864 151.776 141.84 152.176 141.056 152.992C140.272 153.792 139.872 154.8 139.872 156C139.872 157.216 140.272 158.224 141.072 159.024C141.872 159.824 142.928 160.224 144.256 160.224C145.792 160.224 146.96 159.648 147.744 158.512L146.08 157.552C145.68 158.08 145.072 158.352 144.288 158.352C143.056 158.352 142.304 157.856 142.032 156.848H148.064ZM142 155.248C142.24 154.224 142.992 153.632 144.096 153.632C145.04 153.632 145.84 154.16 146.08 155.248H142ZM151.649 152H149.585V160H151.649V156.176C151.649 155.408 151.889 154.864 152.385 154.528C152.881 154.192 153.457 154.064 154.081 154.144V151.84C152.993 151.84 152.033 152.352 151.649 153.376V152ZM168.808 158.544C169.944 157.408 170.504 156.032 170.504 154.4C170.504 152.768 169.944 151.392 168.808 150.272C167.672 149.136 166.296 148.576 164.68 148.576C163.064 148.576 161.688 149.136 160.552 150.272C159.432 151.392 158.872 152.768 158.872 154.4C158.872 156.032 159.432 157.408 160.552 158.544C161.688 159.664 163.064 160.224 164.68 160.224C166.296 160.224 167.672 159.664 168.808 158.544ZM162.104 157.04C161.416 156.352 161.064 155.472 161.064 154.4C161.064 153.328 161.416 152.448 162.104 151.76C162.792 151.072 163.656 150.72 164.68 150.72C165.704 150.72 166.568 151.072 167.256 151.76C167.944 152.448 168.296 153.328 168.296 154.4C168.296 155.472 167.944 156.352 167.256 157.04C166.568 157.728 165.704 158.064 164.68 158.064C163.656 158.064 162.792 157.728 162.104 157.04ZM176.616 151.776C175.496 151.776 174.632 152.16 174.024 152.944V152H171.96V163.2H174.024V159.056C174.632 159.84 175.496 160.224 176.616 160.224C177.688 160.224 178.616 159.824 179.368 159.008C180.136 158.192 180.52 157.184 180.52 156C180.52 154.816 180.136 153.824 179.368 153.008C178.616 152.192 177.688 151.776 176.616 151.776ZM174.648 157.632C174.232 157.2 174.024 156.656 174.024 156C174.024 155.344 174.232 154.8 174.648 154.384C175.064 153.952 175.592 153.744 176.232 153.744C176.872 153.744 177.4 153.952 177.816 154.384C178.248 154.8 178.456 155.344 178.456 156C178.456 156.656 178.248 157.2 177.816 157.632C177.4 158.048 176.872 158.256 176.232 158.256C175.592 158.256 175.064 158.048 174.648 157.632ZM186.631 151.776C185.511 151.776 184.647 152.16 184.039 152.944V152H181.975V163.2H184.039V159.056C184.647 159.84 185.511 160.224 186.631 160.224C187.703 160.224 188.631 159.824 189.383 159.008C190.151 158.192 190.535 157.184 190.535 156C190.535 154.816 190.151 153.824 189.383 153.008C188.631 152.192 187.703 151.776 186.631 151.776ZM184.663 157.632C184.247 157.2 184.039 156.656 184.039 156C184.039 155.344 184.247 154.8 184.663 154.384C185.079 153.952 185.607 153.744 186.247 153.744C186.887 153.744 187.415 153.952 187.831 154.384C188.263 154.8 188.471 155.344 188.471 156C188.471 156.656 188.263 157.2 187.831 157.632C187.415 158.048 186.887 158.256 186.247 158.256C185.607 158.256 185.079 158.048 184.663 157.632ZM198.807 159.008C199.623 158.192 200.039 157.184 200.039 156C200.039 154.816 199.623 153.824 198.807 153.008C197.991 152.192 196.983 151.776 195.799 151.776C194.615 151.776 193.607 152.192 192.791 153.008C191.975 153.824 191.575 154.816 191.575 156C191.575 157.184 191.975 158.192 192.791 159.008C193.607 159.824 194.615 160.224 195.799 160.224C196.983 160.224 197.991 159.824 198.807 159.008ZM194.247 157.584C193.847 157.168 193.639 156.64 193.639 156C193.639 155.36 193.847 154.832 194.247 154.416C194.663 154 195.175 153.792 195.799 153.792C196.423 153.792 196.935 154 197.351 154.416C197.767 154.832 197.975 155.36 197.975 156C197.975 156.64 197.767 157.168 197.351 157.584C196.935 158 196.423 158.208 195.799 158.208C195.175 158.208 194.663 158 194.247 157.584ZM203.555 152H201.491V160H203.555V156.176C203.555 155.408 203.795 154.864 204.291 154.528C204.787 154.192 205.363 154.064 205.987 154.144V151.84C204.899 151.84 203.939 152.352 203.555 153.376V152ZM211.989 152H210.181V149.76L208.117 150.384V152H206.725V153.984H208.117V157.312C208.117 159.504 209.157 160.32 211.989 160V158.128C210.805 158.192 210.181 158.176 210.181 157.312V153.984H211.989V152ZM218.849 156.32C218.849 157.648 218.161 158.304 217.089 158.304C216.129 158.304 215.505 157.728 215.505 156.656V152H213.441V156.912C213.441 157.952 213.729 158.752 214.289 159.344C214.865 159.936 215.585 160.224 216.465 160.224C217.553 160.224 218.353 159.856 218.849 159.104V160H220.913V152H218.849V156.32ZM227.251 151.776C226.163 151.776 225.363 152.144 224.867 152.896V152H222.803V160H224.867V155.68C224.867 154.352 225.555 153.696 226.627 153.696C227.587 153.696 228.211 154.272 228.211 155.344V160H230.275V155.088C230.275 154.048 229.987 153.248 229.411 152.656C228.851 152.064 228.131 151.776 227.251 151.776ZM233.062 151.04C233.766 151.04 234.342 150.464 234.342 149.776C234.342 149.088 233.766 148.496 233.062 148.496C232.374 148.496 231.798 149.088 231.798 149.776C231.798 150.464 232.374 151.04 233.062 151.04ZM234.102 160V152H232.038V160H234.102ZM240.567 152H238.759V149.76L236.695 150.384V152H235.303V153.984H236.695V157.312C236.695 159.504 237.735 160.32 240.567 160V158.128C239.383 158.192 238.759 158.176 238.759 157.312V153.984H240.567V152ZM243.046 151.04C243.75 151.04 244.326 150.464 244.326 149.776C244.326 149.088 243.75 148.496 243.046 148.496C242.358 148.496 241.782 149.088 241.782 149.776C241.782 150.464 242.358 151.04 243.046 151.04ZM244.086 160V152H242.022V160H244.086ZM253.751 156.848C253.799 156.544 253.831 156.272 253.831 156C253.831 154.8 253.447 153.808 252.679 152.992C251.927 152.176 250.951 151.776 249.783 151.776C248.551 151.776 247.527 152.176 246.743 152.992C245.959 153.792 245.559 154.8 245.559 156C245.559 157.216 245.959 158.224 246.759 159.024C247.559 159.824 248.615 160.224 249.943 160.224C251.479 160.224 252.647 159.648 253.431 158.512L251.767 157.552C251.367 158.08 250.759 158.352 249.975 158.352C248.743 158.352 247.991 157.856 247.719 156.848H253.751ZM247.687 155.248C247.927 154.224 248.679 153.632 249.783 153.632C250.727 153.632 251.527 154.16 251.767 155.248H247.687ZM256.864 154.272C256.864 153.872 257.264 153.616 257.792 153.616C258.384 153.616 258.816 153.888 259.072 154.432L260.832 153.472C260.208 152.384 259.088 151.776 257.792 151.776C256.928 151.776 256.208 152 255.616 152.464C255.04 152.912 254.752 153.536 254.752 154.32C254.752 155.984 256.24 156.48 257.424 156.784C258.24 156.992 258.88 157.232 258.88 157.664C258.88 158.128 258.512 158.352 257.776 158.352C256.96 158.352 256.448 158 256.208 157.312L254.416 158.32C255.008 159.584 256.128 160.224 257.776 160.224C258.688 160.224 259.456 160 260.064 159.568C260.688 159.12 260.992 158.48 260.992 157.664C261.008 155.952 259.488 155.392 258.32 155.152C257.504 154.944 256.864 154.704 256.864 154.272Z" fill="white"/>
<path d="M215.364 76.172L210.414 71.222L209 72.636L215.364 79L221.728 72.636L220.314 71.222L215.364 76.172Z" fill="#9CA5E0"/>
<rect x="61" y="75" width="33" height="14" fill="#D9DBF3"/>
<rect x="102" y="75" width="81" height="14" fill="#D9DBF3"/>
</g>
<defs>
<filter id="filter0_d" x="8" y="25" width="311" height="213" filterUnits="userSpaceOnUse" color-interpolation-filters="sRGB">
<feFlood flood-opacity="0" result="BackgroundImageFix"/>
<feColorMatrix in="SourceAlpha" type="matrix" values="0 0 0 0 0 0 0 0 0 0 0 0 0 0 0 0 0 0 127 0"/>
<feOffset dy="16"/>
<feGaussianBlur stdDeviation="17"/>
<feColorMatrix type="matrix" values="0 0 0 0 0.0862745 0 0 0 0 0.160784 0 0 0 0 0.827451 0 0 0 0.1 0"/>
<feBlend mode="normal" in2="BackgroundImageFix" result="effect1_dropShadow"/>
<feBlend mode="normal" in="SourceGraphic" in2="effect1_dropShadow" result="shape"/>
</filter>
<linearGradient id="paint0_linear" x1="-4.35873" y1="-47" x2="-4.35873" y2="61.8474" gradientUnits="userSpaceOnUse">
<stop stop-color="#1627B5"/>
<stop offset="1" stop-color="#1627B5" stop-opacity="0"/>
</linearGradient>
<linearGradient id="paint1_linear" x1="33.6268" y1="-21.2318" x2="33.6268" y2="87.6156" gradientUnits="userSpaceOnUse">
<stop offset="0.399436" stop-color="#1627B5"/>
<stop offset="1" stop-color="#1627B5" stop-opacity="0"/>
</linearGradient>
<linearGradient id="paint2_linear" x1="100.823" y1="-35.0046" x2="100.823" y2="151.591" gradientUnits="userSpaceOnUse">
<stop offset="0.399436" stop-color="#1627B5"/>
<stop offset="1" stop-color="#1627B5" stop-opacity="0"/>
</linearGradient>
<linearGradient id="paint3_linear" x1="178.188" y1="-19.3363" x2="193.974" y2="179.295" gradientUnits="userSpaceOnUse">
<stop offset="0.399436" stop-color="#1627B5"/>
<stop offset="1" stop-color="#1627B5" stop-opacity="0"/>
</linearGradient>
<linearGradient id="paint4_linear" x1="226.22" y1="95.6121" x2="211.115" y2="184.467" gradientUnits="userSpaceOnUse">
<stop stop-color="#1627B5"/>
<stop offset="1" stop-color="#1627B5" stop-opacity="0"/>
</linearGradient>
</defs>
</svg>
